<svg xmlns="http://www.w3.org/2000/svg" xmlns:xlink="http://www.w3.org/1999/xlink" width="570" zoomAndPan="magnify" viewBox="0 0 427.5 181.5" height="242" preserveAspectRatio="xMidYMid meet" version="1.0"><defs><g/><clipPath id="5b124cc756"><path d="M 246.152344 0.582031 L 395.847656 0.582031 L 395.847656 145.105469 L 246.152344 145.105469 Z M 246.152344 0.582031 " clip-rule="nonzero"/></clipPath><clipPath id="5d641b1ce4"><path d="M 0.339844 2 L 426.664062 2 L 426.664062 166 L 0.339844 166 Z M 0.339844 2 " clip-rule="nonzero"/></clipPath><clipPath id="632ffa6fc9"><path d="M 84 101 L 344 101 L 344 181 L 84 181 Z M 84 101 " clip-rule="nonzero"/></clipPath></defs><g clip-path="url(#5b124cc756)"><path fill="#face00" d="M 255.238281 40.160156 C 255.457031 39.496094 255.773438 38.828125 256.15625 38.21875 C 257.445312 35.789062 258.898438 33.601562 260.472656 31.71875 L 260.476562 31.710938 C 260.683594 31.402344 260.96875 31.128906 261.277344 30.941406 C 261.015625 31.65625 260.660156 32.339844 260.214844 32.972656 C 258.996094 34.992188 257.554688 37.136719 255.808594 39.519531 C 255.636719 39.75 255.445312 39.964844 255.238281 40.160156 Z M 248.074219 65.140625 L 248.058594 65.148438 C 248.007812 65.199219 247.96875 65.257812 247.9375 65.328125 C 247.300781 66.945312 247.074219 68.722656 246.921875 70.40625 C 246.816406 71.25 246.828125 72.097656 246.949219 72.933594 C 246.980469 72.894531 247.007812 72.847656 247.023438 72.800781 C 247.5625 71.039062 247.835938 69.214844 248.007812 67.820312 C 248.191406 66.9375 248.214844 66.011719 248.078125 65.144531 Z M 251.710938 56.851562 L 251.777344 56.855469 C 251.863281 56.828125 251.9375 56.789062 252.003906 56.734375 C 253.035156 55.550781 253.859375 53.980469 254.589844 51.792969 C 254.964844 50.902344 255.121094 49.910156 255.03125 48.984375 L 254.976562 48.90625 L 254.8125 48.855469 C 254.707031 48.875 254.613281 48.921875 254.535156 48.992188 C 253.425781 50.179688 252.601562 51.777344 251.9375 54.023438 C 251.589844 54.925781 251.488281 55.914062 251.652344 56.8125 Z M 248.644531 81.269531 C 249.074219 80.292969 249.289062 79.148438 249.253906 78.039062 C 249.328125 77.242188 249.261719 76.425781 249.058594 75.671875 L 248.980469 75.59375 L 248.910156 75.609375 C 248.445312 76.617188 248.222656 77.800781 248.273438 78.945312 C 248.199219 79.75 248.320312 80.570312 248.613281 81.273438 Z M 250.9375 49.261719 C 251.128906 48.761719 251.308594 48.253906 251.46875 47.742188 C 251.441406 47.8125 251.414062 47.886719 251.390625 47.960938 L 251.386719 47.964844 C 250.777344 49.480469 250.253906 51.039062 249.769531 52.597656 C 250.03125 51.84375 250.292969 51.09375 250.550781 50.355469 C 250.679688 49.992188 250.808594 49.628906 250.9375 49.261719 Z M 246.152344 75.613281 C 246.15625 75.78125 246.15625 75.953125 246.160156 76.121094 C 246.214844 74.863281 246.277344 73.605469 246.335938 72.378906 L 246.355469 72.015625 C 246.429688 71.292969 246.457031 70.558594 246.4375 69.832031 C 246.433594 69.851562 246.433594 69.871094 246.429688 69.886719 C 246.222656 71.84375 246.179688 73.789062 246.152344 75.613281 Z M 250.972656 52.699219 L 250.867188 52.738281 C 250.777344 52.820312 250.707031 52.914062 250.648438 53.019531 L 250.648438 53.023438 C 249.78125 54.597656 249.113281 56.515625 248.613281 58.890625 C 248.363281 59.722656 248.257812 60.605469 248.300781 61.449219 L 248.308594 61.460938 L 248.351562 61.433594 C 248.414062 61.359375 248.472656 61.277344 248.523438 61.1875 C 249.433594 59.265625 250.0625 57.1875 250.554688 55.414062 C 250.839844 54.542969 250.988281 53.609375 250.984375 52.710938 Z M 255.492188 41.125 L 255.46875 41.089844 L 255.457031 41.085938 L 255.457031 41.089844 C 255.242188 41.222656 255.066406 41.402344 254.929688 41.617188 L 254.925781 41.621094 C 253.691406 43.425781 252.621094 45.570312 251.75 47.984375 C 251.410156 48.746094 251.191406 49.566406 251.109375 50.375 C 251.265625 50.261719 251.394531 50.109375 251.488281 49.929688 C 252.792969 47.804688 253.847656 45.535156 254.710938 43.589844 C 255.09375 42.8125 255.363281 41.960938 255.492188 41.125 Z M 247.019531 77.839844 L 246.984375 77.90625 C 246.710938 79.40625 246.769531 80.949219 246.847656 82.128906 C 246.875 82.898438 246.972656 83.664062 247.136719 84.40625 C 247.28125 82.964844 247.277344 81.519531 247.257812 80.296875 C 247.28125 79.464844 247.199219 78.636719 247.019531 77.839844 Z M 251.015625 62.148438 L 250.949219 62.125 C 250.933594 62.121094 250.921875 62.128906 250.90625 62.132812 C 250.871094 62.148438 250.835938 62.171875 250.804688 62.199219 C 249.820312 63.5625 249.472656 65.238281 249.292969 66.375 C 249.105469 67.226562 249.105469 68.105469 249.292969 68.929688 L 249.386719 68.996094 L 249.4375 68.984375 L 249.5 68.949219 C 250.378906 67.617188 250.757812 66.070312 250.992188 64.867188 C 251.242188 63.992188 251.269531 63.046875 251.0625 62.199219 Z M 247.992188 90.46875 C 248.046875 91.5 248.207031 92.535156 248.472656 93.546875 C 248.578125 94.039062 248.703125 94.53125 248.855469 95.015625 C 248.738281 94.160156 248.597656 93.296875 248.433594 92.445312 C 248.335938 91.777344 248.1875 91.113281 247.992188 90.46875 Z M 249.210938 88.972656 L 249.175781 88.960938 L 249.125 89.019531 C 248.988281 89.804688 249.007812 90.636719 249.179688 91.429688 C 249.265625 92.183594 249.476562 92.929688 249.796875 93.601562 L 249.800781 93.601562 L 249.8125 93.605469 C 249.816406 93.601562 249.820312 93.597656 249.820312 93.597656 L 249.839844 93.566406 C 249.964844 92.808594 249.960938 92.003906 249.820312 91.238281 C 249.753906 90.449219 249.542969 89.667969 249.210938 88.972656 Z M 248.253906 58.175781 C 248.210938 58.285156 248.175781 58.402344 248.152344 58.519531 L 248.152344 58.523438 C 247.617188 60.582031 247.203125 62.75 246.914062 64.96875 C 246.855469 65.296875 246.804688 65.625 246.761719 65.953125 C 247.058594 64.320312 247.410156 62.558594 247.875 60.359375 C 248.035156 59.640625 248.160156 58.90625 248.253906 58.175781 Z M 377.898438 28.21875 C 379.296875 30.011719 380.878906 32.046875 382.726562 33.558594 C 382.753906 33.570312 382.789062 33.582031 382.824219 33.59375 L 382.820312 33.550781 C 382.128906 32.269531 381.3125 31.0625 380.609375 30.054688 L 380.234375 29.59375 C 378.867188 27.902344 377.453125 26.15625 375.789062 24.734375 C 375.738281 24.703125 375.679688 24.667969 375.617188 24.640625 L 375.617188 24.675781 C 376.28125 25.980469 377.050781 27.171875 377.898438 28.21875 Z M 371.222656 23.230469 L 371.003906 23.316406 C 370.976562 23.335938 370.945312 23.367188 370.914062 23.40625 C 370.941406 25.050781 371.976562 26.515625 372.894531 27.808594 C 375.585938 31.410156 377.519531 32.300781 378.742188 32.660156 C 378.820312 32.652344 378.910156 32.644531 378.996094 32.605469 L 379.058594 32.5625 L 379.140625 32.449219 C 379.175781 31.066406 378.519531 29.605469 377.191406 28.109375 L 377.1875 28.109375 C 375.871094 26.457031 373.886719 23.960938 371.402344 23.226562 Z M 368.945312 18.34375 C 369.605469 18.898438 370.257812 19.480469 370.886719 20.042969 C 371.976562 21.015625 373.101562 22.019531 374.304688 22.894531 L 374.324219 22.910156 C 374.371094 22.949219 374.421875 22.976562 374.480469 23.003906 C 374.472656 22.988281 374.460938 22.972656 374.453125 22.957031 C 373.417969 21.976562 372.347656 20.976562 371.3125 20.011719 L 370.496094 19.246094 C 369.347656 18.15625 368.066406 17.105469 366.574219 16.039062 C 366.574219 16.039062 366.574219 16.035156 366.570312 16.035156 C 367.265625 16.890625 368.0625 17.664062 368.945312 18.34375 Z M 385.230469 39.9375 C 386.277344 42.011719 387.441406 44.179688 389.109375 45.84375 L 389.1875 45.863281 L 389.195312 45.859375 L 389.214844 45.785156 C 388.957031 44.351562 388.398438 42.859375 387.558594 41.347656 L 387.554688 41.347656 C 387.445312 41.136719 387.328125 40.921875 387.21875 40.707031 C 386.210938 38.800781 385.171875 36.832031 383.652344 35.371094 L 383.609375 35.347656 L 383.496094 35.339844 L 383.492188 35.34375 C 383.710938 36.652344 384.292969 37.90625 384.855469 39.121094 C 384.984375 39.394531 385.109375 39.667969 385.230469 39.9375 Z M 389.992188 53.070312 C 389.582031 51.445312 388.570312 48.539062 386.421875 47.328125 C 386.367188 47.316406 386.3125 47.3125 386.257812 47.320312 L 385.914062 47.507812 C 385.074219 49.5625 385.761719 51.996094 386.351562 53.648438 L 386.476562 53.988281 C 387.179688 55.953125 387.976562 58.179688 389.761719 59.238281 C 389.851562 59.257812 389.941406 59.257812 390.023438 59.238281 L 390.121094 59.203125 L 390.367188 59.015625 C 391.1875 57.183594 390.496094 54.808594 389.992188 53.074219 Z M 353.015625 9.46875 C 353.347656 9.648438 353.675781 9.828125 354.003906 10.007812 C 355.789062 10.992188 357.636719 12.007812 359.648438 12.476562 C 359.765625 12.496094 359.886719 12.496094 360.007812 12.476562 L 360.121094 12.378906 C 359.371094 11.59375 358.46875 10.894531 357.511719 10.347656 L 357.507812 10.34375 C 355.609375 9.046875 353.363281 8.019531 351.015625 7.371094 C 350.890625 7.347656 350.757812 7.335938 350.625 7.332031 L 350.527344 7.375 L 350.5625 7.582031 C 351.238281 8.347656 352.089844 9 353.015625 9.46875 Z M 267.636719 22.9375 C 265.261719 25.277344 263.167969 27.871094 261.347656 30.230469 C 262.984375 28.386719 264.683594 26.425781 266.691406 24.066406 C 267.023438 23.707031 267.339844 23.328125 267.636719 22.9375 Z M 302.242188 4.824219 C 305.074219 4.640625 307.996094 4.003906 310.699219 2.976562 C 311.085938 2.839844 311.453125 2.632812 311.765625 2.378906 L 311.832031 2.253906 L 311.832031 2.199219 L 311.785156 2.128906 L 311.660156 2.050781 C 310.949219 1.859375 310.179688 1.828125 309.433594 1.960938 L 309.429688 1.960938 C 306.363281 2.230469 303.683594 2.835938 301.234375 3.8125 C 300.816406 3.957031 300.429688 4.183594 300.109375 4.472656 L 300.070312 4.605469 L 300.097656 4.671875 C 300.753906 4.921875 301.515625 4.976562 302.242188 4.824219 Z M 293.773438 6.199219 C 295.730469 5.523438 297.753906 4.820312 299.691406 3.996094 C 300.058594 3.859375 300.40625 3.683594 300.734375 3.46875 C 300.0625 3.519531 299.296875 3.707031 298.644531 3.980469 L 298.636719 3.980469 C 296.039062 4.6875 293.546875 5.734375 291.007812 6.839844 C 290.667969 6.976562 290.335938 7.152344 290.03125 7.355469 C 290.625 7.222656 291.214844 7.066406 291.792969 6.894531 C 292.449219 6.660156 293.113281 6.429688 293.773438 6.199219 Z M 276.554688 15.683594 C 278.324219 14.496094 280.152344 13.269531 281.890625 11.972656 C 282.292969 11.6875 282.671875 11.375 283.023438 11.035156 C 281.714844 11.589844 280.519531 12.386719 279.519531 13.101562 L 279.515625 13.101562 C 278.015625 14.050781 276.59375 15.148438 275.214844 16.210938 L 274.6875 16.617188 C 274.308594 16.898438 273.945312 17.210938 273.613281 17.546875 C 274.03125 17.320312 274.445312 17.082031 274.847656 16.832031 C 275.414062 16.449219 275.984375 16.066406 276.554688 15.683594 Z M 341.613281 3.90625 C 344.339844 4.953125 346.460938 5.617188 348.496094 6.058594 C 348.640625 6.09375 348.796875 6.105469 348.949219 6.09375 L 348.898438 6.015625 L 348.757812 5.90625 C 347.640625 5.484375 346.484375 5.054688 345.21875 4.597656 C 343.082031 3.804688 341.289062 3.261719 339.582031 2.882812 C 339.421875 2.839844 339.253906 2.824219 339.097656 2.835938 L 339.042969 2.859375 L 339.042969 2.863281 C 339.832031 3.316406 340.722656 3.675781 341.613281 3.90625 Z M 322.742188 1.917969 C 325.195312 2.15625 327.730469 2.402344 330.207031 2.121094 C 330.507812 2.101562 330.789062 2 331.023438 1.832031 L 331.03125 1.8125 L 331.019531 1.777344 C 330.199219 1.445312 329.292969 1.210938 328.40625 1.097656 L 328.402344 1.097656 C 326.039062 0.671875 323.363281 0.601562 320.660156 0.890625 C 320.363281 0.910156 320.074219 0.984375 319.8125 1.113281 L 319.800781 1.164062 C 320.527344 1.585938 321.367188 1.828125 322.230469 1.867188 Z M 313.1875 1.230469 C 314.933594 1.074219 316.738281 0.914062 318.503906 0.667969 C 318.664062 0.648438 318.824219 0.621094 318.980469 0.582031 C 315.175781 0.71875 311.964844 1.023438 308.953125 1.535156 C 309.539062 1.527344 310.128906 1.503906 310.714844 1.460938 C 311.535156 1.378906 312.375 1.304688 313.1875 1.230469 Z M 273.492188 87.03125 C 273.472656 87.078125 273.46875 87.121094 273.484375 87.160156 L 273.492188 87.160156 C 273.5 87.152344 273.519531 87.132812 273.53125 87.109375 C 273.550781 87.0625 273.554688 87.019531 273.539062 86.976562 L 273.53125 86.980469 C 273.523438 86.988281 273.503906 87.007812 273.492188 87.03125 Z M 280.523438 73.484375 L 280.5 73.472656 C 280.457031 73.484375 280.421875 73.511719 280.398438 73.554688 C 280.359375 73.617188 280.355469 73.683594 280.378906 73.742188 L 280.390625 73.753906 L 280.402344 73.753906 C 280.445312 73.742188 280.480469 73.714844 280.503906 73.671875 C 280.539062 73.609375 280.546875 73.546875 280.523438 73.484375 Z M 275.03125 22.585938 C 274.695312 22.488281 274.332031 22.503906 273.996094 22.644531 C 271.335938 23.789062 269.398438 25.941406 268.242188 27.546875 C 267.617188 28.289062 267.25 29.199219 267.203125 30.113281 L 267.386719 30.355469 L 267.40625 30.367188 L 267.722656 30.425781 C 267.910156 30.398438 268.09375 30.355469 268.273438 30.300781 C 270.285156 29.433594 272.191406 27.839844 274.089844 25.433594 C 274.773438 24.703125 275.1875 23.75 275.226562 22.8125 L 275.078125 22.609375 Z M 281.101562 53.378906 L 280.988281 53.289062 L 280.84375 53.242188 C 280.394531 53.273438 280.019531 53.523438 279.792969 53.945312 C 279.574219 54.269531 279.503906 54.640625 279.585938 55.003906 L 279.671875 55.140625 C 279.695312 55.167969 279.734375 55.199219 279.777344 55.222656 L 279.914062 55.265625 C 280.359375 55.230469 280.734375 54.984375 280.96875 54.578125 C 281.191406 54.253906 281.265625 53.875 281.179688 53.511719 Z M 393.046875 67.105469 C 392.738281 65.078125 392.289062 62.808594 390.78125 61.519531 L 390.523438 61.492188 L 390.507812 61.496094 C 389.175781 63.117188 389.425781 66.039062 389.730469 68.097656 C 390.027344 70.175781 390.589844 71.832031 391.453125 73.164062 C 391.554688 73.285156 391.679688 73.382812 391.820312 73.449219 L 392.175781 73.472656 C 393.457031 71.894531 393.226562 69.203125 393.058594 67.234375 Z M 273.105469 48.785156 L 272.847656 48.761719 C 272.003906 49.007812 271.351562 49.566406 270.957031 50.378906 C 270.5 51.070312 270.441406 51.816406 270.785156 52.488281 C 270.84375 52.539062 270.910156 52.574219 270.984375 52.601562 L 271.246094 52.628906 C 272.066406 52.390625 272.738281 51.824219 273.136719 51.035156 C 273.679688 50.222656 273.664062 49.40625 273.105469 48.785156 Z M 274.019531 33.019531 L 273.578125 32.945312 C 271.980469 33.296875 270.480469 34.527344 269.347656 36.402344 C 268.632812 37.351562 268.460938 38.453125 268.863281 39.429688 C 269.019531 39.539062 269.199219 39.59375 269.398438 39.582031 C 270.957031 39.210938 272.425781 38.035156 273.628906 36.1875 C 274.339844 35.300781 274.585938 34.226562 274.304688 33.230469 Z M 282.390625 35.152344 C 282.285156 35.082031 282.164062 35.023438 282.035156 34.988281 C 282.007812 34.988281 281.984375 34.988281 281.960938 34.988281 C 280.574219 34.988281 279.277344 35.75 278.394531 37.09375 C 277.5 38.242188 277.523438 39.308594 278.449219 40.101562 C 278.464844 40.101562 278.484375 40.101562 278.5 40.101562 C 279.859375 40.101562 281.121094 39.363281 282.058594 38.019531 C 282.699219 37.246094 282.90625 36.335938 282.648438 35.441406 Z M 290.777344 39.457031 C 289.832031 39.273438 288.949219 39.648438 288.34375 40.476562 C 287.917969 40.988281 287.773438 41.613281 287.925781 42.230469 L 288.074219 42.464844 L 288.300781 42.632812 C 289.242188 42.8125 290.121094 42.445312 290.722656 41.625 C 291.082031 41.199219 291.261719 40.6875 291.246094 40.148438 C 291.222656 39.949219 291.144531 39.769531 291.011719 39.621094 Z M 251.796875 102.367188 C 251.832031 102.652344 251.902344 102.941406 252.003906 103.210938 C 252.078125 103.472656 252.167969 103.726562 252.273438 103.96875 C 252.222656 103.703125 252.15625 103.441406 252.078125 103.183594 C 252.003906 102.902344 251.910156 102.628906 251.796875 102.367188 Z M 293.792969 12.910156 L 293.710938 12.546875 L 293.554688 12.324219 C 293.082031 12.0625 292.535156 11.960938 291.980469 12.03125 L 291.976562 12.03125 C 289.410156 12.285156 286.667969 13.621094 284.457031 15.699219 C 283.640625 16.335938 283.191406 17.210938 283.183594 18.167969 C 283.546875 18.628906 284.097656 18.824219 284.730469 18.714844 C 287.386719 18.359375 290.105469 17.0625 292.394531 15.050781 C 293.109375 14.496094 293.589844 13.757812 293.792969 12.910156 Z M 283.609375 21.527344 C 283.300781 21.300781 282.941406 21.207031 282.546875 21.257812 C 280.445312 21.554688 278.269531 22.941406 276.570312 25.066406 C 275.679688 25.960938 275.367188 27.070312 275.707031 28.121094 L 276.089844 28.34375 C 276.28125 28.375 276.476562 28.390625 276.671875 28.394531 C 278.703125 28.101562 280.898438 26.730469 282.683594 24.636719 C 283.421875 23.878906 283.828125 22.90625 283.835938 21.898438 L 283.699219 21.625 Z M 287.617188 101.160156 C 287.632812 101.15625 287.640625 101.152344 287.644531 101.144531 L 287.617188 101.152344 Z M 289.34375 59.730469 L 289.3125 59.710938 L 289.273438 59.707031 C 289.171875 59.71875 289.089844 59.773438 289.03125 59.859375 C 288.953125 59.964844 288.9375 60.082031 288.984375 60.195312 L 289.007812 60.222656 L 289.039062 60.238281 L 289.078125 60.246094 C 289.179688 60.230469 289.261719 60.179688 289.320312 60.09375 C 289.398438 59.988281 289.414062 59.867188 289.371094 59.753906 Z M 265.789062 63.234375 L 265.632812 63.214844 C 265.128906 63.40625 264.75 63.808594 264.5625 64.34375 C 264.359375 64.78125 264.316406 65.246094 264.433594 65.695312 L 264.53125 65.847656 C 264.558594 65.871094 264.601562 65.902344 264.648438 65.917969 L 264.789062 65.9375 C 265.285156 65.75 265.664062 65.355469 265.851562 64.828125 C 266.0625 64.382812 266.109375 63.910156 265.992188 63.445312 C 265.957031 63.347656 265.886719 63.277344 265.789062 63.234375 Z M 266.054688 46.496094 C 265.980469 46.457031 265.894531 46.433594 265.816406 46.4375 C 264.65625 46.871094 263.71875 47.863281 263.171875 49.234375 C 262.664062 50.070312 262.414062 51.199219 263.210938 51.898438 C 264.359375 51.613281 265.324219 50.699219 265.925781 49.316406 C 266.484375 48.371094 266.527344 47.347656 266.054688 46.496094 Z M 260.554688 77.542969 L 260.46875 77.527344 L 260.375 77.554688 C 260.136719 77.746094 259.96875 78.019531 259.90625 78.328125 C 259.753906 78.75 259.804688 79.160156 260.046875 79.476562 L 260.109375 79.488281 L 260.195312 79.460938 C 260.433594 79.269531 260.597656 79.007812 260.667969 78.703125 C 260.808594 78.320312 260.792969 77.933594 260.625 77.597656 Z M 262.804688 94.78125 L 262.789062 94.789062 C 262.75 94.835938 262.722656 94.894531 262.714844 94.957031 C 262.6875 95.074219 262.699219 95.1875 262.746094 95.289062 L 262.761719 95.304688 L 262.777344 95.296875 C 262.820312 95.25 262.847656 95.191406 262.855469 95.128906 C 262.886719 95.011719 262.875 94.898438 262.828125 94.800781 Z M 259.359375 62.894531 C 259.507812 62.5 259.582031 62.078125 259.585938 61.660156 C 259.507812 62.074219 259.429688 62.492188 259.355469 62.910156 C 259.355469 62.902344 259.359375 62.898438 259.359375 62.894531 Z M 271.253906 115.546875 C 271.25 115.554688 271.253906 115.5625 271.257812 115.566406 L 271.28125 115.546875 L 271.265625 115.527344 C 271.257812 115.53125 271.253906 115.539062 271.253906 115.546875 Z M 272.886719 67.554688 L 272.820312 67.53125 L 272.742188 67.535156 C 272.535156 67.613281 272.378906 67.765625 272.292969 67.972656 C 272.160156 68.21875 272.144531 68.480469 272.246094 68.71875 L 272.300781 68.765625 L 272.363281 68.785156 C 272.605469 68.75 272.792969 68.59375 272.894531 68.347656 C 273.03125 68.101562 273.046875 67.839844 272.941406 67.605469 Z M 271.332031 115.542969 L 271.347656 115.554688 C 271.351562 115.546875 271.347656 115.539062 271.34375 115.535156 Z M 266.761719 81.605469 L 266.734375 81.59375 L 266.699219 81.59375 C 266.589844 81.652344 266.507812 81.75 266.46875 81.875 C 266.402344 82.039062 266.402344 82.210938 266.46875 82.363281 L 266.496094 82.386719 L 266.527344 82.398438 L 266.558594 82.398438 C 266.671875 82.339844 266.75 82.242188 266.792969 82.121094 C 266.859375 81.953125 266.859375 81.78125 266.792969 81.628906 Z M 269.847656 123.867188 L 269.859375 123.855469 L 269.84375 123.855469 C 269.84375 123.859375 269.847656 123.863281 269.847656 123.867188 Z M 266.667969 33.714844 L 266.214844 33.792969 C 264.558594 34.597656 263.117188 36.152344 261.933594 38.417969 C 261.3125 39.339844 261.101562 40.382812 261.328125 41.371094 L 261.578125 41.492188 C 261.710938 41.492188 261.839844 41.472656 261.96875 41.433594 C 263.523438 40.621094 264.929688 39.121094 266.246094 36.851562 C 266.792969 36.023438 267.09375 35.082031 267.113281 34.117188 L 266.949219 33.824219 C 266.867188 33.753906 266.773438 33.71875 266.667969 33.714844 Z M 255.011719 60.699219 C 254.113281 61.46875 253.519531 62.558594 253.285156 63.863281 C 252.96875 64.765625 253.027344 65.703125 253.445312 66.453125 L 253.539062 66.484375 L 253.621094 66.488281 L 253.867188 66.398438 C 254.664062 65.597656 255.179688 64.566406 255.359375 63.421875 C 255.667969 62.472656 255.601562 61.488281 255.179688 60.710938 Z M 323.4375 3.703125 L 323.464844 3.480469 C 322.902344 2.769531 321.980469 2.351562 320.988281 2.351562 C 320.96875 2.351562 320.949219 2.351562 320.929688 2.351562 L 320.917969 2.351562 C 317.574219 1.960938 314.679688 2.222656 312.3125 3.128906 C 311.800781 3.296875 311.390625 3.613281 311.125 4.054688 L 311.097656 4.222656 L 311.117188 4.328125 L 311.253906 4.523438 C 311.914062 4.929688 312.675781 5.199219 313.460938 5.304688 C 316.390625 5.726562 319.535156 5.433594 322.304688 4.484375 C 322.761719 4.339844 323.152344 4.070312 323.4375 3.703125 Z M 325.09375 8.457031 C 328.128906 9.589844 331.589844 9.714844 334.128906 8.773438 C 334.582031 8.609375 334.953125 8.316406 335.207031 7.921875 L 335.273438 7.683594 C 334.941406 6.503906 334.027344 5.675781 332.691406 5.351562 L 332.683594 5.351562 C 329.429688 4.285156 326.304688 4.171875 323.886719 5.035156 C 323.085938 5.289062 322.652344 5.839844 322.65625 6.589844 L 322.785156 6.859375 C 323.394531 7.578125 324.195312 8.128906 325.09375 8.457031 Z M 333.988281 4.882812 C 336.691406 5.71875 339.339844 6.445312 341.988281 6.171875 C 342.175781 6.140625 342.367188 6.082031 342.546875 6 C 342.65625 5.949219 342.75 5.859375 342.804688 5.757812 L 342.769531 5.582031 C 342.046875 4.886719 341.148438 4.355469 340.171875 4.039062 L 340.167969 4.039062 C 337.515625 3.050781 334.746094 2.613281 332.367188 2.804688 C 332.101562 2.832031 331.847656 2.910156 331.617188 3.035156 C 331.585938 3.054688 331.554688 3.085938 331.527344 3.121094 L 331.507812 3.332031 C 332.132812 4.074219 333.015625 4.625 333.988281 4.882812 Z M 336.6875 14.308594 C 338.824219 15.613281 342.40625 16.757812 345.484375 15.679688 C 346.253906 15.289062 346.644531 14.738281 346.636719 14.050781 C 346.621094 12.890625 345.441406 11.632812 344.3125 11.089844 L 344.304688 11.085938 C 341.304688 9.332031 338.070312 8.808594 335.652344 9.679688 C 334.898438 9.96875 334.4375 10.546875 334.355469 11.316406 C 334.644531 12.5625 335.453125 13.597656 336.6875 14.308594 Z M 302.542969 10.617188 C 303.039062 10.917969 303.585938 11.105469 304.167969 11.167969 C 307.085938 11.636719 310.410156 10.96875 313.066406 9.371094 C 313.722656 9.015625 314.207031 8.46875 314.480469 7.792969 L 314.5 7.613281 L 314.359375 7.078125 L 314.273438 6.9375 C 313.683594 6.476562 312.96875 6.1875 312.199219 6.105469 L 312.195312 6.105469 C 309.351562 5.65625 306.09375 6.351562 303.476562 7.957031 C 302.804688 8.335938 302.320312 8.910156 302.066406 9.609375 C 302.042969 9.792969 302.070312 9.992188 302.15625 10.171875 Z M 292.730469 7.449219 L 292.722656 7.398438 L 292.660156 7.324219 L 292.3125 7.253906 C 291.785156 7.34375 291.261719 7.472656 290.757812 7.640625 L 290.757812 7.644531 C 288.265625 8.402344 285.613281 9.761719 283.089844 11.574219 C 282.566406 11.898438 282.113281 12.355469 281.8125 12.863281 L 281.816406 12.945312 L 281.84375 12.976562 C 282.394531 13.019531 282.988281 12.925781 283.515625 12.710938 C 286.65625 11.519531 289.242188 10.21875 291.421875 8.726562 C 291.972656 8.429688 292.445312 7.964844 292.730469 7.449219 Z M 291.640625 10.515625 C 292.191406 10.71875 292.796875 10.792969 293.390625 10.734375 C 296.273438 10.472656 299.386719 9.394531 301.933594 7.78125 C 302.570312 7.441406 303.066406 6.882812 303.296875 6.246094 L 303.164062 5.941406 L 302.761719 5.738281 C 302.226562 5.613281 301.660156 5.5625 301.09375 5.589844 C 297.914062 6.023438 295.035156 7.046875 292.773438 8.550781 C 292.097656 8.925781 291.625 9.507812 291.4375 10.195312 L 291.511719 10.402344 Z M 380.980469 49.214844 C 380.957031 49.214844 380.933594 49.214844 380.910156 49.21875 C 378.824219 50.984375 379.957031 54.820312 380.355469 55.957031 C 380.9375 57.742188 382.269531 60.699219 384.625 60.527344 C 386.585938 58.679688 385.640625 55.03125 385.304688 53.949219 C 384.148438 50.765625 382.734375 49.214844 380.980469 49.214844 Z M 384.195312 102.296875 C 384.238281 102.402344 384.304688 102.492188 384.394531 102.5625 L 384.636719 102.625 L 385.003906 102.523438 C 386.144531 101.53125 386.941406 99.9375 387.441406 97.65625 L 387.441406 97.652344 C 387.820312 96.570312 387.761719 95.460938 387.273438 94.523438 C 387.199219 94.457031 387.113281 94.425781 387.015625 94.421875 L 386.632812 94.523438 C 385.398438 95.515625 384.570312 97.195312 384.164062 99.527344 C 383.96875 100.441406 383.980469 101.398438 384.195312 102.296875 Z M 365.253906 23.738281 C 365.050781 23.820312 364.847656 23.929688 364.664062 24.050781 C 363.613281 25.867188 364.84375 27.824219 366.082031 29.515625 C 369.039062 33.527344 371.8125 33.78125 372.886719 33.695312 C 373.40625 33.335938 373.714844 32.867188 373.800781 32.304688 C 373.972656 31.230469 373.363281 29.777344 371.984375 27.992188 C 369.625 24.945312 367.421875 23.550781 365.253906 23.738281 Z M 378.46875 76.875 C 378.910156 77.207031 379.441406 77.316406 380.039062 77.195312 C 381.707031 75.859375 381.753906 73.605469 381.5 71.945312 L 381.5 71.941406 C 381.378906 70.777344 380.914062 69.796875 380.253906 69.324219 C 379.816406 69.007812 379.308594 68.910156 378.734375 69.035156 C 376.980469 70.464844 377.109375 73.015625 377.34375 74.410156 C 377.429688 75.507812 377.839844 76.402344 378.46875 76.875 Z M 384.625 39.902344 C 383.421875 37.484375 382.003906 35.136719 379.777344 34.339844 L 379.394531 34.492188 C 378.667969 36.269531 379.742188 38.304688 380.601562 39.945312 L 380.628906 40 C 381.605469 41.984375 383.167969 44.707031 385.507812 45.457031 C 385.53125 45.453125 385.558594 45.449219 385.582031 45.445312 L 385.847656 45.285156 L 385.867188 45.261719 C 386.429688 43.398438 385.515625 41.628906 384.632812 39.917969 Z M 386.984375 74.835938 C 389.078125 72.957031 388.746094 69.820312 388.503906 68.554688 C 388.273438 66.898438 387.625 64.769531 385.820312 64.019531 C 385.683594 64.023438 385.558594 64.050781 385.441406 64.101562 C 383.734375 65.578125 383.875 68.226562 384.140625 70.597656 C 384.273438 71.867188 384.816406 74.816406 386.984375 74.835938 Z M 377.097656 113.300781 L 376.992188 113.199219 L 376.871094 113.179688 C 376.792969 113.1875 376.722656 113.214844 376.652344 113.261719 C 375.878906 113.941406 375.28125 114.824219 374.921875 115.816406 C 374.773438 116.136719 374.691406 116.480469 374.683594 116.820312 L 374.742188 117.015625 L 374.8125 117.070312 L 374.90625 117.085938 L 374.941406 117.082031 L 375.152344 117 C 375.988281 116.402344 376.609375 115.554688 376.933594 114.558594 L 376.9375 114.554688 C 377.109375 114.15625 377.167969 113.726562 377.101562 113.308594 Z M 363.082031 47.8125 C 362.523438 46.707031 361.5625 45.839844 360.507812 45.496094 C 360.164062 45.382812 359.816406 45.328125 359.472656 45.328125 C 358.960938 45.328125 358.460938 45.449219 357.984375 45.695312 C 356.113281 47.113281 356.191406 49.695312 357.238281 51.503906 C 358.214844 53.257812 359.914062 54.183594 361.574219 53.867188 L 362.3125 53.535156 C 363.597656 52.539062 364.394531 50.316406 363.082031 47.8125 Z M 359.964844 86.441406 L 360.179688 86.402344 L 360.410156 86.289062 C 360.996094 85.820312 361.242188 85.140625 361.09375 84.386719 C 361.039062 84.132812 360.90625 83.910156 360.710938 83.746094 C 360.449219 83.589844 360.171875 83.601562 359.90625 83.78125 C 359.351562 84.273438 359.105469 84.957031 359.222656 85.703125 C 359.285156 86.027344 359.476562 86.277344 359.765625 86.410156 Z M 354.839844 133.929688 C 354.828125 133.945312 354.820312 133.960938 354.816406 133.976562 C 354.824219 133.972656 354.832031 133.96875 354.84375 133.964844 C 354.988281 133.890625 355.113281 133.78125 355.207031 133.644531 C 355.21875 133.628906 355.226562 133.617188 355.234375 133.601562 C 355.226562 133.601562 355.214844 133.605469 355.207031 133.609375 C 355.058594 133.683594 354.933594 133.796875 354.839844 133.929688 Z M 356.601562 72.75 C 357.5 71.9375 357.800781 70.835938 357.441406 69.65625 C 357.25 69.089844 356.847656 68.699219 356.28125 68.523438 C 356.1875 68.507812 356.09375 68.5 356.003906 68.5 C 355.695312 68.5 355.398438 68.59375 355.136719 68.777344 C 354.242188 69.605469 353.949219 70.71875 354.316406 71.898438 C 354.519531 72.445312 354.9375 72.839844 355.488281 73.011719 C 355.882812 73.074219 356.269531 72.984375 356.601562 72.75 Z M 392.785156 54.117188 L 392.988281 54.773438 C 393.292969 55.773438 393.601562 56.792969 393.886719 57.820312 C 393.433594 55.863281 392.867188 53.898438 392.195312 51.988281 C 392.347656 52.511719 392.488281 53.039062 392.632812 53.558594 Z M 392.484375 53.933594 C 392.433594 53.757812 392.378906 53.582031 392.328125 53.402344 C 391.71875 51.335938 391.089844 49.203125 389.738281 47.625 L 389.59375 47.652344 C 389.386719 49.136719 389.847656 50.65625 390.292969 52.125 C 390.386719 52.4375 390.480469 52.742188 390.570312 53.046875 C 391.089844 54.910156 391.804688 57.460938 393.269531 59.214844 L 393.316406 59.210938 C 393.328125 59.199219 393.335938 59.1875 393.34375 59.175781 C 393.5 57.695312 393.230469 56.027344 392.484375 53.9375 Z M 260.015625 46.734375 L 259.96875 46.722656 C 259.878906 46.710938 259.777344 46.71875 259.683594 46.75 C 258.476562 47.511719 257.53125 48.847656 256.875 50.726562 C 256.460938 51.625 256.367188 52.574219 256.597656 53.488281 L 256.78125 53.621094 C 256.867188 53.636719 256.949219 53.636719 257.03125 53.613281 C 258.210938 52.835938 259.113281 51.558594 259.796875 49.703125 C 260.234375 48.792969 260.363281 47.785156 260.160156 46.851562 Z M 275.328125 17.335938 L 275.3125 17.230469 L 275.261719 17.214844 C 274.796875 17.351562 274.339844 17.574219 273.933594 17.855469 C 271.730469 19.304688 269.582031 21.214844 267.71875 23.378906 C 267.234375 23.878906 266.824219 24.460938 266.53125 25.078125 L 266.542969 25.15625 L 266.660156 25.160156 C 267.011719 25.007812 267.351562 24.824219 267.667969 24.613281 C 269.824219 23.058594 271.917969 21.234375 274.0625 19.035156 C 274.585938 18.550781 275.023438 17.960938 275.328125 17.335938 Z M 260.472656 36.503906 C 260.292969 36.550781 260.09375 36.648438 259.925781 36.777344 C 258.433594 38.0625 257.164062 39.90625 256.039062 42.40625 C 255.558594 43.246094 255.328125 44.242188 255.410156 45.144531 L 255.421875 45.15625 L 255.558594 45.175781 C 255.703125 45.125 255.84375 45.054688 255.964844 44.957031 C 257.796875 43.269531 259.070312 40.960938 259.867188 39.375 C 260.335938 38.546875 260.621094 37.621094 260.695312 36.699219 L 260.5625 36.519531 C 260.535156 36.511719 260.5 36.507812 260.472656 36.503906 Z M 266.527344 28.273438 C 267.125 27.574219 267.515625 26.722656 267.632812 25.867188 C 267.628906 25.863281 267.625 25.859375 267.621094 25.855469 L 267.496094 25.8125 C 267.167969 25.878906 266.847656 26.023438 266.570312 26.226562 C 264.664062 27.667969 262.871094 29.683594 261.390625 32.054688 C 260.875 32.746094 260.523438 33.574219 260.402344 34.390625 L 260.503906 34.46875 C 260.78125 34.421875 261.039062 34.296875 261.261719 34.105469 C 263.105469 32.648438 264.875 30.683594 266.527344 28.273438 Z M 275.550781 20.609375 C 278.582031 19.5 281.113281 17.457031 282.703125 15.9375 C 283.417969 15.390625 283.882812 14.640625 284.007812 13.824219 L 283.984375 13.78125 L 283.769531 13.632812 C 283.300781 13.609375 282.835938 13.679688 282.386719 13.851562 C 279.929688 14.714844 277.449219 16.367188 275.394531 18.507812 C 274.703125 19.066406 274.253906 19.863281 274.183594 20.648438 L 274.402344 20.800781 C 274.796875 20.828125 275.179688 20.761719 275.550781 20.609375 Z M 291.929688 22.46875 C 289.6875 22.109375 287.511719 23.550781 286.21875 25.019531 C 285.253906 25.964844 285.003906 27.121094 285.511719 28.273438 C 285.785156 28.609375 286.132812 28.835938 286.546875 28.949219 C 288.480469 29.191406 290.617188 28.253906 292.257812 26.4375 C 292.933594 25.785156 293.304688 25.027344 293.300781 24.304688 C 293.296875 23.722656 293.058594 23.199219 292.589844 22.75 Z M 372.628906 42.742188 C 371.480469 40.527344 369.136719 38.492188 366.71875 39.25 C 364.621094 40.710938 365.019531 43.753906 366.277344 45.964844 C 367.527344 48.175781 369.722656 50.222656 372.125 49.347656 C 372.617188 49.078125 372.996094 48.675781 373.242188 48.152344 C 373.8125 46.554688 373.597656 44.632812 372.628906 42.742188 Z M 369.039062 128.097656 L 369.105469 128.09375 L 369.296875 128.023438 C 370.117188 127.457031 370.816406 126.691406 371.320312 125.8125 L 371.324219 125.808594 C 371.5625 125.484375 371.710938 125.113281 371.757812 124.726562 L 371.730469 124.675781 L 371.617188 124.664062 L 371.421875 124.738281 C 370.589844 125.320312 369.882812 126.105469 369.378906 127 C 369.160156 127.316406 369.023438 127.683594 368.988281 128.050781 L 369.007812 128.082031 C 369.015625 128.089844 369.027344 128.09375 369.039062 128.097656 Z M 377.253906 63.171875 C 379.0625 61.714844 379.085938 58.925781 378.34375 56.945312 L 378.34375 56.941406 C 377.820312 55.332031 376.304688 52.800781 373.902344 53.515625 C 372.011719 55.015625 372.15625 57.871094 372.855469 59.859375 C 373.378906 61.433594 374.890625 63.898438 377.253906 63.171875 Z M 373.222656 92.382812 C 373.230469 92.09375 373.152344 91.816406 372.996094 91.578125 C 372.917969 91.472656 372.816406 91.410156 372.6875 91.386719 C 372.546875 91.375 372.410156 91.40625 372.28125 91.488281 C 371.644531 92.003906 371.304688 92.753906 371.324219 93.59375 C 371.320312 93.960938 371.460938 94.285156 371.714844 94.515625 L 371.882812 94.574219 C 372.019531 94.585938 372.148438 94.550781 372.269531 94.472656 C 372.886719 93.957031 373.226562 93.214844 373.222656 92.382812 Z M 371.820312 106.191406 L 371.777344 106.171875 L 371.71875 106.171875 L 371.636719 106.207031 C 371.355469 106.4375 371.160156 106.761719 371.085938 107.125 C 371.046875 107.261719 371.0625 107.390625 371.132812 107.492188 L 371.175781 107.511719 L 371.238281 107.507812 L 371.324219 107.476562 C 371.621094 107.257812 371.820312 106.945312 371.894531 106.578125 C 371.917969 106.464844 371.90625 106.347656 371.859375 106.242188 Z M 361.589844 136.945312 C 361.652344 136.929688 361.710938 136.90625 361.769531 136.875 C 362.617188 136.347656 363.40625 135.710938 364.109375 134.984375 L 364.113281 134.984375 C 364.386719 134.730469 364.621094 134.441406 364.8125 134.125 L 364.8125 134.113281 L 364.800781 134.085938 L 364.742188 134.089844 L 364.542969 134.164062 C 363.675781 134.679688 362.875 135.324219 362.171875 136.074219 C 361.902344 136.320312 361.683594 136.621094 361.527344 136.941406 L 361.527344 136.945312 Z M 367.648438 67.101562 C 368.996094 66.011719 369.46875 64.042969 368.832031 62.195312 L 368.832031 62.191406 C 368.523438 61.261719 367.921875 60.535156 367.1875 60.207031 C 366.582031 59.933594 365.910156 59.941406 365.246094 60.222656 C 363.929688 61.351562 363.492188 63.300781 364.128906 65.191406 C 364.429688 66.101562 365.011719 66.808594 365.730469 67.132812 C 366.332031 67.398438 366.992188 67.386719 367.648438 67.101562 Z M 367.949219 119.972656 C 367.996094 119.972656 368.042969 119.960938 368.082031 119.9375 C 368.394531 119.707031 368.628906 119.390625 368.761719 119.019531 L 368.765625 119.015625 C 368.808594 118.914062 368.824219 118.800781 368.808594 118.691406 L 368.785156 118.652344 L 368.75 118.636719 L 368.691406 118.636719 L 368.59375 118.675781 C 368.28125 118.890625 368.042969 119.207031 367.921875 119.589844 C 367.859375 119.71875 367.859375 119.847656 367.914062 119.953125 Z M 373.96875 126.019531 L 373.984375 126.019531 L 374.210938 125.921875 C 375.28125 125.070312 376.273438 123.984375 377.324219 122.5 L 377.324219 122.496094 C 377.777344 121.933594 378.09375 121.265625 378.230469 120.5625 L 378.203125 120.390625 L 378.121094 120.359375 C 378.042969 120.371094 377.964844 120.402344 377.894531 120.449219 C 376.609375 121.570312 375.59375 122.914062 374.773438 124.078125 C 374.363281 124.613281 374.054688 125.234375 373.886719 125.875 C 373.886719 125.917969 373.898438 125.957031 373.914062 125.992188 Z M 379.976562 91.207031 C 380.203125 91.273438 380.417969 91.242188 380.621094 91.109375 C 381.644531 90.125 382.207031 88.714844 382.234375 87.035156 L 382.234375 87.027344 C 382.34375 86.105469 382.035156 85.265625 381.386719 84.722656 L 381.050781 84.679688 C 380.933594 84.695312 380.8125 84.734375 380.707031 84.800781 C 379.625 85.738281 379.039062 87.21875 379.066406 88.953125 C 379.042969 89.710938 379.257812 90.429688 379.691406 91.027344 Z M 388.957031 101.113281 L 389.097656 101.105469 L 389.152344 101.074219 C 390.613281 99.394531 391.296875 97.042969 391.617188 95.363281 C 391.925781 93.984375 392.191406 92.371094 391.777344 90.855469 C 391.757812 90.835938 391.734375 90.816406 391.710938 90.804688 L 391.597656 90.789062 L 391.488281 90.820312 C 390.199219 92.207031 389.746094 94.148438 389.308594 96.023438 C 389.242188 96.304688 389.175781 96.582031 389.109375 96.855469 C 388.667969 98.539062 388.582031 99.824219 388.832031 101.011719 Z M 384.195312 113.46875 L 384.289062 113.421875 C 385.523438 112.128906 386.585938 110.386719 387.367188 108.378906 L 387.367188 108.375 C 387.933594 107.074219 388.269531 105.867188 388.394531 104.695312 L 388.347656 104.558594 L 388.328125 104.542969 L 388.257812 104.546875 L 388.164062 104.585938 C 386.660156 106.105469 385.816406 108.257812 385.136719 109.988281 C 384.5625 111.050781 384.195312 112.222656 384.078125 113.382812 L 384.136719 113.476562 Z M 378.699219 104.582031 L 378.957031 104.488281 C 379.835938 103.710938 380.425781 102.671875 380.667969 101.472656 L 380.667969 101.46875 C 380.820312 100.9375 380.769531 100.398438 380.523438 99.910156 L 380.359375 99.773438 L 380.160156 99.746094 C 380.074219 99.765625 379.988281 99.800781 379.910156 99.839844 C 379.042969 100.644531 378.457031 101.71875 378.226562 102.929688 C 378.089844 103.449219 378.136719 103.980469 378.351562 104.441406 L 378.507812 104.566406 C 378.570312 104.585938 378.632812 104.589844 378.699219 104.582031 Z M 380.167969 115.03125 L 380.347656 115.085938 C 380.441406 115.066406 380.535156 115.03125 380.617188 114.984375 C 381.703125 114.023438 382.613281 112.679688 383.386719 110.886719 L 383.390625 110.882812 C 383.789062 110.15625 383.96875 109.351562 383.910156 108.554688 L 383.800781 108.320312 L 383.679688 108.253906 C 383.566406 108.246094 383.460938 108.277344 383.363281 108.339844 C 382.179688 109.390625 381.21875 110.828125 380.527344 112.605469 C 380.128906 113.371094 379.996094 114.222656 380.152344 115.011719 Z M 387.34375 79.507812 C 386.046875 80.667969 385.421875 82.625 385.480469 85.332031 C 385.347656 86.816406 385.65625 88.074219 386.375 88.984375 L 386.671875 89.074219 C 386.8125 89.054688 386.941406 89.019531 387.070312 88.972656 C 388.855469 87.726562 389.144531 85.308594 389.191406 83.339844 L 389.191406 83.335938 C 389.285156 82.253906 389.179688 80.722656 388.183594 79.582031 C 387.910156 79.414062 387.625 79.390625 387.34375 79.507812 Z M 354.1875 15.484375 C 354.082031 16.609375 355.300781 17.964844 356.339844 18.90625 C 357.824219 20.238281 360.785156 22.441406 363.925781 22.25 C 364.425781 21.941406 364.695312 21.53125 364.71875 21.027344 C 364.777344 19.902344 363.613281 18.492188 362.507812 17.65625 L 362.503906 17.65625 C 359.703125 15.234375 357.261719 14.128906 355.039062 14.285156 C 354.519531 14.605469 354.234375 15.007812 354.1875 15.484375 Z M 368.035156 18.101562 C 366.109375 16.496094 364.03125 14.867188 361.671875 14.175781 C 361.550781 14.15625 361.425781 14.160156 361.296875 14.183594 L 361.1875 14.265625 L 361.160156 14.332031 L 361.230469 14.65625 C 361.824219 15.746094 362.609375 16.703125 363.5625 17.507812 C 365.273438 19.019531 367.546875 20.835938 370.007812 21.460938 C 370.109375 21.472656 370.21875 21.46875 370.324219 21.441406 L 370.421875 21.289062 C 369.976562 20.179688 369.195312 19.136719 368.035156 18.101562 Z M 370.742188 75.632812 C 370.519531 75.632812 370.296875 75.699219 370.097656 75.828125 C 369.097656 76.738281 368.710938 78.015625 369.015625 79.417969 C 369.09375 79.925781 369.316406 80.386719 369.660156 80.761719 C 369.953125 81.027344 370.316406 81.128906 370.707031 81.050781 L 371.097656 80.890625 C 372.097656 80.042969 372.515625 78.753906 372.238281 77.347656 L 372.234375 77.34375 C 372.109375 76.503906 371.617188 75.898438 370.851562 75.640625 C 370.8125 75.636719 370.777344 75.632812 370.742188 75.632812 Z M 362.601562 130.695312 L 362.605469 130.695312 C 362.664062 130.695312 362.71875 130.679688 362.765625 130.648438 C 363.203125 130.394531 363.574219 130.035156 363.851562 129.609375 L 363.851562 129.605469 C 363.933594 129.496094 363.984375 129.367188 364.003906 129.234375 L 363.992188 129.195312 L 363.96875 129.179688 C 363.949219 129.179688 363.933594 129.179688 363.914062 129.183594 L 363.792969 129.230469 C 363.371094 129.488281 363 129.851562 362.730469 130.277344 C 362.648438 130.390625 362.597656 130.519531 362.574219 130.652344 L 362.582031 130.683594 Z M 374.214844 35.542969 C 374.160156 35.542969 374.105469 35.546875 374.050781 35.546875 C 373.867188 35.605469 373.691406 35.714844 373.542969 35.871094 C 372.320312 37.851562 373.273438 40.320312 374.289062 42.042969 C 375.554688 44.320312 377.320312 46.898438 379.84375 46.636719 C 381.714844 45.277344 380.796875 42.40625 379.695312 40.234375 C 378.621094 37.875 376.527344 35.542969 374.214844 35.542969 Z M 392.417969 76.214844 L 392.289062 76.242188 L 392.21875 76.277344 C 390.984375 77.78125 390.839844 80.042969 390.714844 82.039062 C 390.699219 82.265625 390.683594 82.488281 390.671875 82.707031 C 390.550781 84.710938 390.777344 86.222656 391.390625 87.464844 L 391.574219 87.609375 L 391.75 87.628906 C 391.773438 87.625 391.808594 87.613281 391.839844 87.597656 L 391.921875 87.546875 C 392.921875 86.117188 393.457031 84.113281 393.550781 81.421875 C 393.597656 79.839844 393.539062 78.003906 392.757812 76.402344 C 392.675781 76.300781 392.558594 76.234375 392.417969 76.214844 Z M 364.75 30.070312 C 362.835938 27.527344 360.660156 26.652344 358.953125 26.652344 C 358.433594 26.652344 357.957031 26.734375 357.546875 26.875 C 356.808594 27.324219 356.347656 27.957031 356.191406 28.75 C 355.820312 30.636719 357.25 32.753906 357.695312 33.359375 C 359.320312 35.535156 362.277344 37.4375 364.929688 36.476562 C 365.667969 36.007812 366.121094 35.355469 366.261719 34.542969 C 366.527344 33.023438 365.65625 31.238281 364.75 30.070312 Z M 351.714844 9.570312 C 349.769531 8.496094 346.847656 7.09375 343.96875 7.304688 C 343.722656 7.328125 343.488281 7.417969 343.292969 7.5625 C 343.21875 7.621094 343.164062 7.6875 343.128906 7.769531 L 343.089844 8.011719 C 343.558594 9.109375 344.410156 10.007812 345.550781 10.613281 C 347.609375 11.820312 350.652344 13.199219 353.425781 12.898438 C 353.605469 12.859375 353.789062 12.796875 353.960938 12.710938 L 354.214844 12.414062 C 354.234375 12.339844 354.242188 12.261719 354.234375 12.179688 C 353.730469 11.097656 352.859375 10.195312 351.714844 9.570312 Z M 356.957031 138.464844 C 357.09375 138.359375 357.226562 138.25 357.351562 138.132812 L 357.355469 138.132812 C 357.46875 138.035156 357.570312 137.917969 357.644531 137.785156 L 357.644531 137.773438 C 357.578125 137.777344 357.515625 137.792969 357.457031 137.824219 C 356.929688 138.066406 356.445312 138.394531 356.015625 138.796875 C 355.898438 138.898438 355.800781 139.015625 355.722656 139.144531 L 355.722656 139.148438 C 355.785156 139.148438 355.847656 139.132812 355.910156 139.101562 C 356.28125 138.933594 356.632812 138.71875 356.957031 138.464844 Z M 362.558594 98.859375 C 362.5625 98.742188 362.515625 98.652344 362.421875 98.601562 L 362.359375 98.589844 L 362.285156 98.597656 L 362.195312 98.640625 C 361.96875 98.808594 361.84375 99.070312 361.847656 99.371094 C 361.851562 99.433594 361.871094 99.492188 361.902344 99.546875 L 361.949219 99.597656 L 362.011719 99.636719 C 362.070312 99.652344 362.140625 99.640625 362.207031 99.59375 C 362.429688 99.417969 362.558594 99.152344 362.558594 98.859375 Z M 354.820312 40.890625 C 355.621094 40.324219 356.121094 39.515625 356.265625 38.558594 C 356.449219 37.34375 356.042969 35.945312 355.175781 34.816406 C 354.132812 33.464844 352.460938 32.445312 350.753906 32.445312 C 350.070312 32.445312 349.378906 32.609375 348.722656 32.980469 C 347.953125 33.527344 347.464844 34.3125 347.316406 35.242188 C 347.117188 36.480469 347.519531 37.921875 348.386719 39.101562 C 350.25 41.542969 353.035156 41.851562 354.820312 40.890625 Z M 347.667969 22.699219 C 350.71875 25.503906 354.011719 25.730469 355.90625 25.070312 C 356.6875 24.632812 357.117188 24 357.179688 23.203125 C 357.292969 21.769531 356.207031 20.21875 355.148438 19.382812 L 355.144531 19.378906 C 353.539062 17.925781 351.222656 16.625 348.910156 16.625 C 348.265625 16.625 347.621094 16.726562 346.992188 16.953125 C 346.191406 17.328125 345.703125 18.011719 345.625 18.878906 C 345.761719 20.277344 346.453125 21.566406 347.667969 22.699219 Z M 317.957031 64.675781 L 317.886719 64.636719 C 317.75 64.605469 317.609375 64.644531 317.496094 64.757812 C 317.328125 64.941406 317.300781 65.148438 317.410156 65.363281 L 317.464844 65.417969 L 317.53125 65.453125 C 317.679688 65.484375 317.816406 65.445312 317.925781 65.335938 C 318.09375 65.152344 318.125 64.945312 318.011719 64.730469 Z M 318.792969 42.257812 C 318.148438 42.898438 317.984375 43.710938 318.339844 44.542969 L 318.589844 44.855469 C 319.496094 45.480469 320.46875 45.421875 321.324219 44.6875 C 322.121094 43.867188 322.199219 42.941406 321.542969 42.078125 C 320.617188 41.457031 319.640625 41.523438 318.792969 42.257812 Z M 320.289062 98.898438 C 320.253906 98.929688 320.246094 98.960938 320.253906 99 L 320.261719 99.007812 L 320.277344 99.007812 C 320.277344 99.007812 320.289062 99 320.296875 98.992188 C 320.328125 98.964844 320.339844 98.929688 320.328125 98.890625 L 320.3125 98.882812 C 320.3125 98.882812 320.300781 98.886719 320.289062 98.898438 Z M 358.988281 140.394531 C 359.480469 140.105469 359.972656 139.816406 360.457031 139.53125 L 360.507812 139.5 C 360.996094 139.210938 361.460938 138.878906 361.894531 138.511719 C 361.523438 138.75 361.152344 138.992188 360.78125 139.234375 C 360.199219 139.621094 359.597656 140.015625 358.988281 140.394531 Z M 370.824219 130.5625 L 370.832031 130.484375 L 370.816406 130.484375 C 370.75 130.503906 370.683594 130.535156 370.625 130.570312 C 369.632812 131.339844 368.691406 132.207031 367.785156 133.046875 C 367.605469 133.210938 367.429688 133.378906 367.25 133.542969 C 366.777344 133.957031 366.367188 134.429688 366.027344 134.949219 C 366.089844 134.925781 366.144531 134.898438 366.203125 134.863281 C 367.261719 134.132812 368.363281 133.234375 369.5625 132.125 C 370.0625 131.671875 370.484375 131.144531 370.824219 130.5625 Z M 325.890625 11.539062 C 325.769531 10.53125 324.914062 9.65625 323.714844 9.316406 L 323.707031 9.316406 C 320.675781 8.214844 317.289062 8.449219 314.875 9.929688 C 313.816406 10.574219 313.371094 11.5625 313.628906 12.710938 C 314.097656 13.53125 314.816406 14.148438 315.703125 14.496094 C 318.558594 15.542969 321.960938 15.253906 324.582031 13.746094 C 325.515625 13.214844 325.996094 12.410156 325.890625 11.539062 Z M 349.320312 54.136719 C 348.875 54.136719 348.417969 54.265625 347.972656 54.535156 C 346.855469 55.578125 346.601562 57.117188 347.316406 58.535156 C 348.105469 59.839844 349.5 60.207031 350.777344 59.445312 C 351.949219 58.425781 352.21875 56.898438 351.480469 55.472656 C 350.945312 54.597656 350.15625 54.136719 349.320312 54.136719 Z M 324.019531 22.628906 C 323.148438 22.144531 322.167969 21.90625 321.1875 21.90625 C 319.878906 21.90625 318.570312 22.328125 317.511719 23.152344 C 316.691406 23.816406 316.230469 24.785156 316.273438 25.738281 C 316.3125 26.617188 316.765625 27.394531 317.550781 27.921875 C 319.554688 29.109375 322.171875 28.914062 324.0625 27.429688 C 324.980469 26.71875 325.421875 25.734375 325.347656 24.585938 C 325.171875 23.78125 324.710938 23.101562 324.019531 22.628906 Z M 353.726562 142.828125 C 353.460938 142.980469 353.214844 143.15625 352.984375 143.351562 C 352.992188 143.347656 353 143.34375 353.011719 143.339844 C 353.921875 142.894531 354.820312 142.398438 355.675781 141.863281 L 355.679688 141.863281 C 355.953125 141.703125 356.214844 141.523438 356.460938 141.332031 L 356.449219 141.339844 C 355.507812 141.773438 354.59375 142.273438 353.726562 142.828125 Z M 313.277344 16.429688 C 312.550781 16.179688 311.78125 16.058594 311.003906 16.058594 C 309.242188 16.058594 307.449219 16.683594 306.054688 17.855469 C 305.183594 18.546875 304.71875 19.558594 304.832031 20.492188 C 304.933594 21.308594 305.460938 21.972656 306.320312 22.359375 C 308.636719 23.175781 311.488281 22.613281 313.578125 20.929688 C 314.53125 20.210938 314.992188 19.1875 314.882812 18.042969 C 314.632812 17.265625 314.078125 16.703125 313.277344 16.429688 Z M 308.171875 33.941406 C 307.210938 34.941406 307.175781 35.996094 308.066406 37 C 309.320312 37.59375 310.636719 37.359375 311.6875 36.355469 C 312.671875 35.34375 312.710938 34.25 311.804688 33.277344 C 310.554688 32.695312 309.199219 32.945312 308.171875 33.941406 Z M 387.308594 109.75 C 386.988281 110.503906 386.660156 111.28125 386.375 112.0625 C 387.425781 110.46875 388.316406 108.769531 389.023438 107.011719 L 389.027344 107.007812 C 389.113281 106.820312 389.199219 106.628906 389.285156 106.4375 C 389.859375 105.179688 390.457031 103.875 390.699219 102.511719 C 389.585938 104.359375 388.71875 106.339844 388.015625 108.039062 C 387.792969 108.613281 387.546875 109.191406 387.308594 109.75 Z M 371.167969 131.28125 C 370.617188 131.761719 370.089844 132.261719 369.582031 132.78125 C 370.648438 131.886719 371.839844 130.855469 372.988281 129.738281 C 373.671875 129.027344 374.335938 128.28125 374.960938 127.515625 C 373.523438 128.742188 372.238281 130.105469 371.167969 131.28125 Z M 381.609375 119.707031 C 382.738281 118.136719 383.773438 116.59375 384.707031 115.183594 C 383.558594 116.765625 382.566406 118.214844 381.691406 119.582031 C 381.664062 119.625 381.636719 119.664062 381.609375 119.707031 Z M 325.824219 76.148438 C 325.714844 76.136719 325.605469 76.171875 325.519531 76.257812 C 325.339844 76.433594 325.292969 76.648438 325.382812 76.875 L 325.429688 76.933594 L 325.488281 76.972656 L 325.5625 77 C 325.660156 77.007812 325.773438 76.972656 325.863281 76.890625 C 326.042969 76.714844 326.089844 76.5 325.996094 76.269531 C 325.957031 76.207031 325.898438 76.164062 325.824219 76.148438 Z M 314 87.628906 L 313.984375 87.625 C 313.980469 87.625 313.964844 87.632812 313.953125 87.644531 C 313.921875 87.675781 313.914062 87.710938 313.925781 87.75 L 313.933594 87.757812 L 313.945312 87.761719 C 313.949219 87.757812 313.964844 87.753906 313.980469 87.738281 C 314.011719 87.707031 314.019531 87.671875 314.003906 87.632812 Z M 382.542969 116.945312 C 381.125 118.285156 380.019531 119.972656 379.039062 121.59375 C 378.359375 122.433594 377.808594 123.347656 377.386719 124.316406 C 377.421875 124.300781 377.457031 124.285156 377.488281 124.257812 C 378.824219 122.988281 380.015625 121.546875 381.027344 119.980469 L 381.03125 119.980469 C 381.703125 119.039062 382.261719 117.980469 382.644531 116.910156 Z M 343.574219 42.515625 C 342.851562 41.660156 341.886719 41.214844 340.910156 41.214844 C 340.257812 41.214844 339.601562 41.414062 339.007812 41.820312 C 337.660156 43.003906 337.460938 44.875 338.53125 46.363281 C 339.707031 47.769531 341.566406 48.054688 343.058594 47.054688 C 344.425781 45.875 344.648438 43.960938 343.574219 42.515625 Z M 344.527344 78.261719 C 344.480469 78.25 344.429688 78.242188 344.378906 78.242188 C 344.21875 78.242188 344.042969 78.304688 343.859375 78.421875 C 343.40625 78.835938 343.253906 79.394531 343.433594 79.984375 C 343.574219 80.308594 343.835938 80.46875 344.199219 80.4375 C 344.335938 80.414062 344.46875 80.351562 344.585938 80.261719 C 345.050781 79.863281 345.210938 79.308594 345.035156 78.710938 C 344.894531 78.460938 344.722656 78.3125 344.527344 78.261719 Z M 338.738281 65.257812 C 338.46875 64.902344 338.15625 64.722656 337.820312 64.722656 C 337.574219 64.722656 337.3125 64.816406 337.042969 65.007812 C 336.480469 65.554688 336.339844 66.285156 336.664062 67.007812 C 337.113281 67.589844 337.714844 67.679688 338.347656 67.25 C 338.925781 66.695312 339.070312 65.984375 338.738281 65.257812 Z M 338.976562 133.867188 C 338.992188 133.867188 339 133.871094 339.007812 133.863281 L 338.984375 133.855469 Z M 309.328125 108.839844 C 309.332031 108.835938 309.335938 108.835938 309.339844 108.832031 L 309.324219 108.832031 Z M 328.507812 52.734375 C 327.84375 53.414062 327.734375 54.238281 328.214844 55.050781 C 328.867188 55.699219 329.648438 55.734375 330.410156 55.148438 C 331.089844 54.476562 331.199219 53.652344 330.714844 52.835938 C 330.03125 52.179688 329.269531 52.148438 328.507812 52.734375 Z M 340.140625 124.417969 L 340.136719 124.421875 C 340.160156 124.425781 340.164062 124.421875 340.171875 124.417969 Z M 336.863281 101.316406 C 336.851562 101.316406 336.824219 101.328125 336.800781 101.34375 C 336.730469 101.398438 336.699219 101.472656 336.710938 101.558594 L 336.738281 101.597656 L 336.765625 101.601562 C 336.777344 101.601562 336.804688 101.59375 336.828125 101.578125 C 336.898438 101.519531 336.929688 101.445312 336.917969 101.359375 L 336.886719 101.320312 Z M 340.121094 124.359375 C 340.121094 124.359375 340.121094 124.359375 340.117188 124.359375 C 340.113281 124.359375 340.105469 124.363281 340.097656 124.363281 L 340.121094 124.367188 Z M 332.285156 88.671875 L 332.253906 88.644531 L 332.21875 88.625 L 332.167969 88.617188 C 332.121094 88.621094 332.070312 88.644531 332.023438 88.679688 C 331.898438 88.796875 331.851562 88.941406 331.894531 89.101562 L 331.917969 89.144531 L 331.949219 89.175781 L 331.988281 89.191406 L 332.035156 89.199219 C 332.082031 89.195312 332.136719 89.171875 332.179688 89.136719 C 332.304688 89.023438 332.351562 88.875 332.308594 88.714844 Z M 348.957031 92.382812 L 348.898438 92.339844 L 348.824219 92.3125 L 348.734375 92.3125 C 348.675781 92.320312 348.617188 92.347656 348.558594 92.386719 C 348.320312 92.582031 348.214844 92.863281 348.261719 93.171875 L 348.296875 93.261719 L 348.351562 93.332031 L 348.414062 93.378906 L 348.484375 93.402344 L 348.574219 93.40625 C 348.632812 93.394531 348.695312 93.371094 348.75 93.328125 C 348.988281 93.136719 349.097656 92.859375 349.046875 92.550781 C 349.03125 92.488281 349 92.433594 348.957031 92.382812 Z M 349.441406 141.273438 L 349.445312 141.273438 C 349.472656 141.242188 349.496094 141.210938 349.515625 141.175781 C 349.492188 141.179688 349.46875 141.1875 349.445312 141.199219 C 349.199219 141.3125 348.980469 141.46875 348.792969 141.664062 C 348.773438 141.6875 348.75 141.710938 348.730469 141.734375 C 348.75 141.730469 348.769531 141.726562 348.789062 141.71875 C 349.039062 141.625 349.261719 141.472656 349.441406 141.273438 Z M 331.328125 30.328125 C 330.394531 30.328125 329.464844 30.617188 328.671875 31.199219 C 327.925781 31.824219 327.492188 32.671875 327.453125 33.582031 C 327.417969 34.476562 327.773438 35.339844 328.457031 36.007812 C 330.035156 37.347656 332.332031 37.445312 334.035156 36.238281 C 334.773438 35.632812 335.210938 34.808594 335.257812 33.910156 C 335.308594 33 334.960938 32.113281 334.277344 31.414062 C 333.421875 30.691406 332.375 30.328125 331.328125 30.328125 Z M 335.054688 15.265625 L 335.050781 15.265625 C 333.605469 14.410156 331.992188 13.980469 330.445312 13.980469 C 329.101562 13.980469 327.808594 14.304688 326.707031 14.957031 C 325.808594 15.515625 325.316406 16.347656 325.320312 17.296875 C 325.324219 18.4375 326.027344 19.570312 327.15625 20.261719 C 329.75 21.8125 333.140625 21.925781 335.589844 20.554688 C 336.515625 19.980469 337.011719 19.121094 336.976562 18.132812 C 336.941406 16.976562 336.203125 15.878906 335.054688 15.265625 Z M 345.710938 23.828125 C 344.484375 22.734375 342.671875 21.890625 340.835938 21.890625 C 339.90625 21.890625 338.96875 22.105469 338.097656 22.617188 C 337.296875 23.140625 336.785156 23.917969 336.621094 24.867188 C 336.558594 26.238281 337.132812 27.585938 338.199219 28.554688 C 340.414062 30.523438 343.554688 31.015625 345.835938 29.746094 C 346.964844 28.992188 347.253906 27.980469 347.296875 27.265625 C 347.367188 26.039062 346.761719 24.722656 345.710938 23.828125 Z M 348.183594 144.964844 C 348.097656 145.007812 348.011719 145.054688 347.933594 145.105469 C 348.519531 144.917969 349.078125 144.660156 349.589844 144.335938 L 349.59375 144.332031 C 349.726562 144.257812 349.847656 144.164062 349.953125 144.054688 C 349.925781 144.0625 349.902344 144.070312 349.875 144.082031 C 349.300781 144.339844 348.730469 144.636719 348.183594 144.964844 Z M 351.109375 105.941406 C 351.105469 105.941406 351.09375 105.949219 351.082031 105.957031 C 351.007812 106.011719 350.96875 106.089844 350.972656 106.183594 L 350.992188 106.222656 L 351.015625 106.222656 C 351.015625 106.222656 351.027344 106.21875 351.042969 106.207031 C 351.113281 106.15625 351.152344 106.078125 351.152344 105.988281 L 351.128906 105.941406 Z M 302.328125 12.730469 C 299.808594 12.421875 296.886719 13.398438 294.699219 15.285156 C 293.914062 15.878906 293.457031 16.625 293.441406 17.332031 C 293.429688 17.902344 293.703125 18.4375 294.234375 18.878906 C 294.484375 18.992188 294.746094 19.070312 295.019531 19.113281 C 297.710938 19.527344 300.707031 18.617188 302.84375 16.738281 C 303.765625 15.996094 304.203125 14.972656 304.070312 13.855469 C 303.695312 13.234375 303.078125 12.835938 302.328125 12.730469 Z M 394.988281 75.191406 C 394.449219 76.855469 394.175781 78.785156 394.128906 81.265625 C 394.121094 81.691406 394.109375 82.125 394.09375 82.546875 C 394.046875 83.976562 393.996094 85.453125 394.308594 86.863281 L 394.375 86.925781 L 394.464844 86.851562 C 395.210938 85.105469 395.332031 83.179688 395.453125 81.3125 L 395.476562 80.980469 C 395.648438 78.976562 395.824219 76.902344 395.121094 75.054688 Z M 395.296875 67.320312 L 395.238281 67.328125 L 395.296875 67.328125 C 395.296875 67.324219 395.296875 67.320312 395.296875 67.320312 Z M 309.277344 108.808594 L 309.292969 108.804688 L 309.28125 108.792969 C 309.277344 108.796875 309.277344 108.804688 309.277344 108.808594 Z M 308.914062 54.769531 L 308.875 54.742188 C 308.753906 54.703125 308.640625 54.734375 308.550781 54.835938 C 308.457031 54.9375 308.433594 55.054688 308.480469 55.179688 L 308.507812 55.214844 L 308.546875 55.246094 C 308.667969 55.285156 308.777344 55.25 308.867188 55.152344 C 308.960938 55.050781 308.984375 54.929688 308.941406 54.808594 Z M 394.128906 89.03125 C 393.136719 91.089844 392.589844 93.363281 392.226562 95.117188 C 392.140625 95.597656 392.035156 96.085938 391.9375 96.558594 C 391.691406 97.726562 391.433594 98.9375 391.378906 100.144531 L 391.382812 100.144531 C 392.433594 98.40625 392.953125 96.363281 393.390625 94.417969 L 393.390625 94.414062 L 393.5 94 C 393.914062 92.371094 394.347656 90.691406 394.144531 89.023438 Z M 306.421875 77.117188 C 306.425781 77.117188 306.425781 77.113281 306.429688 77.113281 C 306.441406 77.097656 306.441406 77.089844 306.441406 77.078125 C 306.441406 77.082031 306.4375 77.082031 306.4375 77.082031 C 306.425781 77.097656 306.421875 77.105469 306.421875 77.117188 Z M 309.320312 108.835938 L 309.316406 108.839844 C 309.320312 108.839844 309.324219 108.839844 309.328125 108.839844 L 309.320312 108.832031 Z M 299.808594 46.351562 L 299.714844 46.257812 L 299.589844 46.195312 C 299.242188 46.132812 298.921875 46.257812 298.6875 46.550781 C 298.492188 46.777344 298.417969 47.042969 298.476562 47.328125 L 298.535156 47.445312 L 298.628906 47.539062 L 298.746094 47.597656 C 299.097656 47.652344 299.417969 47.527344 299.65625 47.242188 C 299.851562 47.019531 299.925781 46.746094 299.867188 46.46875 Z M 395.171875 67.332031 C 395.148438 67.117188 395.125 66.898438 395.101562 66.679688 C 394.90625 64.792969 394.679688 62.652344 393.609375 61.082031 L 393.582031 61.085938 C 392.972656 62.902344 393.257812 65.015625 393.605469 67.027344 L 393.640625 67.347656 C 393.871094 69.257812 394.105469 71.234375 394.925781 72.992188 L 395.03125 73.0625 L 395.066406 73.046875 C 395.671875 71.246094 395.417969 69.261719 395.171875 67.34375 Z M 395.4375 67.453125 C 395.5 68.066406 395.574219 68.695312 395.648438 69.300781 C 395.714844 69.878906 395.785156 70.460938 395.847656 71.050781 C 395.730469 69.167969 395.519531 67.34375 395.277344 65.667969 C 395.335938 66.257812 395.390625 66.851562 395.4375 67.453125 Z M 301.941406 26.703125 C 301.542969 26.582031 301.136719 26.523438 300.726562 26.523438 C 299.445312 26.523438 298.152344 27.105469 297.160156 28.175781 C 296.351562 28.984375 296.082031 30 296.394531 31.046875 C 296.570312 31.347656 296.839844 31.597656 297.167969 31.753906 C 298.746094 32.253906 300.582031 31.703125 301.949219 30.304688 C 302.800781 29.496094 303.082031 28.46875 302.746094 27.417969 C 302.558594 27.113281 302.285156 26.867188 301.941406 26.703125 Z M 309.328125 108.792969 L 309.320312 108.800781 L 309.320312 108.808594 L 309.335938 108.796875 C 309.332031 108.796875 309.332031 108.796875 309.328125 108.792969 Z M 309.304688 108.785156 L 309.300781 108.785156 L 309.308594 108.796875 L 309.320312 108.789062 C 309.3125 108.785156 309.308594 108.785156 309.304688 108.785156 Z M 309.304688 108.785156 " fill-opacity="1" fill-rule="nonzero"/></g><g clip-path="url(#5d641b1ce4)"><path stroke-linecap="butt" transform="matrix(0.948526, 0, 0, 0.948526, 22.902273, 31.528708)" fill="none" stroke-linejoin="miter" d="M 56.683441 26.750607 L 19.223989 26.750607 C 18.087356 26.750607 17.185463 27.648382 17.185463 28.789133 L 17.185463 81.963764 C 17.185463 83.100397 18.165603 83.998172 19.223989 83.998172 L 32.064641 83.998172 C 33.143618 83.998172 34.11964 83.100397 34.11964 81.963764 L 34.11964 62.414509 L 52.351059 62.414509 C 53.487692 62.414509 54.389585 61.516735 54.389585 60.359511 L 54.389585 50.393386 C 54.389585 49.236162 53.487692 48.338387 52.351059 48.338387 L 34.11964 48.338387 L 34.11964 40.810256 L 56.683441 40.810256 C 57.741827 40.810256 58.639602 39.908363 58.639602 38.771731 L 58.639602 28.789133 C 58.639602 27.648382 57.741827 26.750607 56.683441 26.750607 Z M 81.623464 26.750607 L 68.865176 26.750607 C 67.728544 26.750607 66.82665 27.648382 66.82665 28.789133 L 66.82665 81.963764 C 66.82665 83.100397 67.728544 83.998172 68.865176 83.998172 L 81.623464 83.998172 C 82.784805 83.998172 83.68258 83.100397 83.68258 81.963764 L 83.68258 28.789133 C 83.68258 27.648382 82.784805 26.750607 81.623464 26.750607 Z M 140.35771 83.998172 C 141.494343 83.998172 142.392118 83.100397 142.392118 81.963764 L 142.392118 28.789133 C 142.392118 27.648382 141.494343 26.750607 140.35771 26.750607 L 127.595305 26.750607 C 126.438081 26.750607 125.540306 27.648382 125.540306 28.789133 L 125.540306 55.866518 C 125.540306 55.866518 109.606861 31.980764 107.889557 29.686907 C 106.172254 27.409524 105.270361 26.750607 103.293608 26.750607 L 93.891681 26.750607 C 92.833295 26.750607 91.853156 27.648382 91.853156 28.789133 L 91.853156 81.963764 C 91.853156 83.100397 92.750931 83.998172 93.891681 83.998172 L 106.728215 83.998172 C 107.807192 83.998172 108.787332 83.100397 108.787332 81.963764 L 108.787332 54.388072 L 127.096998 81.963764 C 127.994773 83.261008 128.892548 83.998172 131.268769 83.998172 Z M 208.559776 81.144236 C 207.822612 79.348686 189.83005 30.185214 189.171133 28.789133 C 188.512215 27.409524 188.0345 26.750607 186.556054 26.750607 L 172.817627 26.750607 C 171.339181 26.750607 170.861466 27.409524 170.280795 28.789133 C 169.621878 30.185214 151.629316 79.167484 150.892152 81.144236 C 150.154988 82.939785 150.970398 83.998172 152.370598 83.998172 L 165.6066 83.998172 C 168.065186 83.998172 168.485246 83.182761 169.300656 81.065989 C 169.461267 80.645929 170.041938 79.006872 170.861466 76.391794 L 188.512215 76.391794 C 189.331744 79.006872 189.908297 80.645929 190.068908 81.065989 C 190.966683 83.182761 191.308496 83.998172 193.742372 83.998172 L 207.08133 83.998172 C 208.48153 83.998172 209.218694 82.939785 208.559776 81.144236 Z M 175.354459 62.336263 C 176.828787 57.900926 178.286641 53.247322 179.686841 48.754329 C 181.165287 53.247322 182.623141 57.900926 184.019223 62.336263 Z M 265.482 83.998172 C 266.618633 83.998172 267.516408 83.100397 267.516408 81.963764 L 267.516408 28.789133 C 267.516408 27.648382 266.618633 26.750607 265.482 26.750607 L 252.723713 26.750607 C 251.562371 26.750607 250.664596 27.648382 250.664596 28.789133 L 250.664596 55.866518 C 250.664596 55.866518 234.731151 31.980764 233.013847 29.686907 C 231.296544 27.409524 230.398769 26.750607 228.422017 26.750607 L 219.015971 26.750607 C 217.957585 26.750607 216.977446 27.648382 216.977446 28.789133 L 216.977446 81.963764 C 216.977446 83.100397 217.875221 83.998172 219.015971 83.998172 L 231.856624 83.998172 C 232.931482 83.998172 233.911622 83.100397 233.911622 81.963764 L 233.911622 54.388072 L 252.221288 81.963764 C 253.123182 83.261008 254.020956 83.998172 256.397177 83.998172 Z M 319.369086 61.99445 C 317.153477 67.727031 312.660484 70.420355 306.367823 70.420355 C 298.180775 70.420355 292.291701 63.794118 292.291701 55.285847 C 292.291701 46.777577 298.180775 40.167812 306.367823 40.167812 C 312.578119 40.167812 316.992866 42.787008 319.286722 48.338387 C 319.447333 48.836693 320.028004 49.396773 321.004025 49.396773 L 333.922924 49.396773 C 335.162512 49.396773 335.40137 48.338387 335.162512 47.280001 C 331.888516 34.278738 320.505719 25.774586 306.367823 25.774586 C 289.676623 25.774586 275.699338 38.932342 275.699338 55.285847 C 275.699338 71.659944 289.676623 84.900065 306.367823 84.900065 C 320.686921 84.900065 332.049128 76.231183 335.244877 63.052836 C 335.483734 61.99445 335.063675 60.857817 333.922924 60.857817 L 321.164636 60.857817 C 320.266861 60.857817 319.607944 61.257286 319.369086 61.99445 Z M 383.152288 69.922049 L 360.34551 69.922049 L 360.34551 62.414509 L 378.659295 62.414509 C 379.717681 62.414509 380.693702 61.516735 380.693702 60.359511 L 380.693702 50.393386 C 380.693702 49.236162 379.717681 48.338387 378.659295 48.338387 L 360.34551 48.338387 L 360.34551 40.810256 L 382.91343 40.810256 C 383.967698 40.810256 384.947838 39.908363 384.947838 38.771731 L 384.947838 28.789133 C 384.947838 27.648382 383.967698 26.750607 382.91343 26.750607 L 345.532224 26.750607 C 344.391474 26.750607 343.493699 27.648382 343.493699 28.789133 L 343.493699 81.963764 C 343.493699 83.100397 344.391474 83.998172 345.532224 83.998172 L 383.152288 83.998172 C 384.309511 83.998172 385.207286 83.100397 385.207286 81.963764 L 385.207286 71.977048 C 385.207286 70.840415 384.309511 69.922049 383.152288 69.922049 Z M 383.152288 69.922049 " stroke="#000000" stroke-width="10.020121" stroke-opacity="1" stroke-miterlimit="4"/></g><g fill="#ffffff" fill-opacity="1"><g transform="translate(35.32203, 111.204859)"><g><path d="M 41.351562 -54.304688 L 5.820312 -54.304688 C 4.730469 -54.304688 3.878906 -53.453125 3.878906 -52.367188 L 3.878906 -1.941406 C 3.878906 -0.851562 4.808594 0 5.820312 0 L 18 0 C 19.007812 0 19.9375 -0.851562 19.9375 -1.941406 L 19.9375 -20.480469 L 37.238281 -20.480469 C 38.324219 -20.480469 39.179688 -21.335938 39.179688 -22.421875 L 39.179688 -31.886719 C 39.179688 -32.972656 38.324219 -33.824219 37.238281 -33.824219 L 19.9375 -33.824219 L 19.9375 -40.960938 L 41.351562 -40.960938 C 42.359375 -40.960938 43.210938 -41.816406 43.210938 -42.902344 L 43.210938 -52.367188 C 43.210938 -53.453125 42.359375 -54.304688 41.351562 -54.304688 Z M 41.351562 -54.304688 "/></g></g></g><g fill="#ffffff" fill-opacity="1"><g transform="translate(82.407941, 111.204859)"><g><path d="M 17.921875 -54.304688 L 5.820312 -54.304688 C 4.730469 -54.304688 3.878906 -53.453125 3.878906 -52.367188 L 3.878906 -1.941406 C 3.878906 -0.851562 4.730469 0 5.820312 0 L 17.921875 0 C 19.007812 0 19.859375 -0.851562 19.859375 -1.941406 L 19.859375 -52.367188 C 19.859375 -53.453125 19.007812 -54.304688 17.921875 -54.304688 Z M 17.921875 -54.304688 "/></g></g></g><g fill="#ffffff" fill-opacity="1"><g transform="translate(106.144817, 111.204859)"><g><path d="M 49.882812 0 C 50.96875 0 51.824219 -0.851562 51.824219 -1.941406 L 51.824219 -52.367188 C 51.824219 -53.453125 50.96875 -54.304688 49.882812 -54.304688 L 37.78125 -54.304688 C 36.695312 -54.304688 35.84375 -53.453125 35.84375 -52.367188 L 35.84375 -26.6875 C 35.84375 -26.6875 20.714844 -49.339844 19.085938 -51.511719 C 17.457031 -53.683594 16.601562 -54.304688 14.738281 -54.304688 L 5.820312 -54.304688 C 4.808594 -54.304688 3.878906 -53.453125 3.878906 -52.367188 L 3.878906 -1.941406 C 3.878906 -0.851562 4.730469 0 5.820312 0 L 18 0 C 19.007812 0 19.9375 -0.851562 19.9375 -1.941406 L 19.9375 -28.082031 L 37.316406 -1.941406 C 38.167969 -0.699219 39.023438 0 41.273438 0 Z M 49.882812 0 "/></g></g></g><g fill="#ffffff" fill-opacity="1"><g transform="translate(161.841171, 111.204859)"><g><path d="M 58.882812 -2.714844 C 58.183594 -4.421875 41.117188 -51.046875 40.496094 -52.367188 C 39.875 -53.683594 39.410156 -54.304688 38.015625 -54.304688 L 24.980469 -54.304688 C 23.585938 -54.304688 23.117188 -53.683594 22.574219 -52.367188 C 21.957031 -51.046875 4.886719 -4.578125 4.1875 -2.714844 C 3.492188 -1.007812 4.265625 0 5.585938 0 L 18.152344 0 C 20.480469 0 20.867188 -0.777344 21.644531 -2.792969 C 21.800781 -3.179688 22.34375 -4.730469 23.117188 -7.214844 L 39.875 -7.214844 C 40.652344 -4.730469 41.195312 -3.179688 41.351562 -2.792969 C 42.203125 -0.777344 42.515625 0 44.839844 0 L 57.488281 0 C 58.804688 0 59.503906 -1.007812 58.882812 -2.714844 Z M 27.386719 -20.558594 C 28.78125 -24.746094 30.179688 -29.171875 31.496094 -33.4375 C 32.894531 -29.171875 34.289062 -24.746094 35.609375 -20.558594 Z M 27.386719 -20.558594 "/></g></g></g><g fill="#ffffff" fill-opacity="1"><g transform="translate(224.829244, 111.204859)"><g><path d="M 49.882812 0 C 50.96875 0 51.824219 -0.851562 51.824219 -1.941406 L 51.824219 -52.367188 C 51.824219 -53.453125 50.96875 -54.304688 49.882812 -54.304688 L 37.78125 -54.304688 C 36.695312 -54.304688 35.84375 -53.453125 35.84375 -52.367188 L 35.84375 -26.6875 C 35.84375 -26.6875 20.714844 -49.339844 19.085938 -51.511719 C 17.457031 -53.683594 16.601562 -54.304688 14.738281 -54.304688 L 5.820312 -54.304688 C 4.808594 -54.304688 3.878906 -53.453125 3.878906 -52.367188 L 3.878906 -1.941406 C 3.878906 -0.851562 4.730469 0 5.820312 0 L 18 0 C 19.007812 0 19.9375 -0.851562 19.9375 -1.941406 L 19.9375 -28.082031 L 37.316406 -1.941406 C 38.167969 -0.699219 39.023438 0 41.273438 0 Z M 49.882812 0 "/></g></g></g><g fill="#ffffff" fill-opacity="1"><g transform="translate(280.525598, 111.204859)"><g><path d="M 45.308594 -20.867188 C 43.210938 -15.4375 38.945312 -12.878906 32.972656 -12.878906 C 25.214844 -12.878906 19.628906 -19.164062 19.628906 -27.230469 C 19.628906 -35.300781 25.214844 -41.582031 32.972656 -41.582031 C 38.867188 -41.582031 43.058594 -39.101562 45.230469 -33.824219 C 45.382812 -33.359375 45.925781 -32.816406 46.859375 -32.816406 L 59.117188 -32.816406 C 60.28125 -32.816406 60.511719 -33.824219 60.28125 -34.832031 C 57.175781 -47.167969 46.394531 -55.238281 32.972656 -55.238281 C 17.144531 -55.238281 3.878906 -42.746094 3.878906 -27.230469 C 3.878906 -11.714844 17.144531 0.851562 32.972656 0.851562 C 46.546875 0.851562 57.332031 -7.371094 60.355469 -19.859375 C 60.589844 -20.867188 60.203125 -21.957031 59.117188 -21.957031 L 47.011719 -21.957031 C 46.160156 -21.957031 45.539062 -21.566406 45.308594 -20.867188 Z M 45.308594 -20.867188 "/></g></g></g><g fill="#ffffff" fill-opacity="1"><g transform="translate(344.832381, 111.204859)"><g><path d="M 41.503906 -13.34375 L 19.859375 -13.34375 L 19.859375 -20.480469 L 37.238281 -20.480469 C 38.246094 -20.480469 39.179688 -21.335938 39.179688 -22.421875 L 39.179688 -31.886719 C 39.179688 -32.972656 38.246094 -33.824219 37.238281 -33.824219 L 19.859375 -33.824219 L 19.859375 -40.960938 L 41.273438 -40.960938 C 42.28125 -40.960938 43.210938 -41.816406 43.210938 -42.902344 L 43.210938 -52.367188 C 43.210938 -53.453125 42.28125 -54.304688 41.273438 -54.304688 L 5.820312 -54.304688 C 4.730469 -54.304688 3.878906 -53.453125 3.878906 -52.367188 L 3.878906 -1.941406 C 3.878906 -0.851562 4.730469 0 5.820312 0 L 41.503906 0 C 42.589844 0 43.445312 -0.851562 43.445312 -1.941406 L 43.445312 -11.402344 C 43.445312 -12.492188 42.589844 -13.34375 41.503906 -13.34375 Z M 41.503906 -13.34375 "/></g></g></g><g clip-path="url(#632ffa6fc9)"><path stroke-linecap="butt" transform="matrix(0.748814, 0, 0, 0.748814, 106.499135, 116.876537)" fill="none" stroke-linejoin="miter" d="M 22.547215 17.050948 L 8.937157 17.050948 C 8.238135 17.050948 7.586063 17.697804 7.586063 18.396826 L 7.586063 53.650476 C 7.586063 54.40688 8.238135 55.00157 8.937157 55.00157 L 17.450616 55.00157 C 18.165288 55.00157 18.812143 54.40688 18.812143 53.650476 L 18.812143 46.435945 L 22.547215 46.435945 C 35.400869 46.435945 40.007109 39.059701 40.007109 31.360028 C 40.007109 23.284762 33.825461 17.050948 22.547215 17.050948 Z M 21.842977 37.103483 L 18.812143 37.103483 L 18.812143 26.367761 L 21.738645 26.367761 C 27.429934 26.367761 28.514983 29.784621 28.514983 31.46436 C 28.514983 33.144099 27.763795 37.103483 21.842977 37.103483 Z M 77.796017 53.212283 C 77.36304 52.565427 73.35149 45.55956 70.75885 41.182849 C 74.332207 38.955369 76.168444 35.053367 76.168444 30.327145 C 76.168444 22.251879 70.915347 17.050948 62.073244 17.050948 L 46.783447 17.050948 C 46.027043 17.050948 45.432353 17.645639 45.432353 18.396826 L 45.432353 53.650476 C 45.432353 54.40688 46.027043 55.00157 46.783447 55.00157 L 55.24474 55.00157 C 56.011577 55.00157 56.606268 54.40688 56.606268 53.650476 L 56.606268 43.389462 L 59.532769 43.389462 C 61.968912 47.839205 64.947579 53.264449 65.171892 53.650476 C 65.54227 54.297332 66.256941 55.00157 67.222008 55.00157 L 76.820516 55.00157 C 78.129878 55.00157 78.286375 54.073019 77.796017 53.212283 Z M 66.13696 30.274979 C 66.13696 31.954718 64.7337 34.401294 61.859364 34.401294 L 56.606268 34.401294 L 56.606268 26.049549 L 61.755032 26.049549 C 64.838031 26.049549 66.13696 28.64219 66.13696 30.274979 Z M 103.826752 16.398876 C 92.762385 16.398876 83.492522 25.178381 83.492522 36.018434 C 83.492522 46.874138 92.762385 55.648426 103.826752 55.648426 C 114.82852 55.648426 124.160982 46.874138 124.160982 36.018434 C 124.160982 25.178381 114.82852 16.398876 103.826752 16.398876 Z M 103.826752 46.049918 C 98.50584 46.049918 94.176079 41.553226 94.176079 36.018434 C 94.176079 30.499292 98.50584 26.049549 103.826752 26.049549 C 109.137231 26.049549 113.42526 30.499292 113.42526 36.018434 C 113.42526 41.553226 109.137231 46.049918 103.826752 46.049918 Z M 161.193486 17.050948 L 139.612493 17.050948 C 138.845656 17.050948 138.250965 17.645639 138.250965 18.396826 L 138.250965 25.016667 C 138.250965 25.773071 138.845656 26.367761 139.612493 26.367761 L 151.318499 26.367761 L 151.318499 36.018434 C 151.318499 41.28718 150.405598 45.507394 145.569828 45.507394 C 143.39973 45.507394 141.558277 44.646658 140.634943 41.391512 C 140.473229 40.796822 140.155017 40.410795 139.440346 40.410795 L 130.613892 40.410795 C 129.794889 40.410795 129.528843 40.953319 129.633175 41.709723 C 131.088601 50.499661 137.061585 55.648426 146.00802 55.648426 C 159.018172 55.648426 162.539363 46.978469 162.539363 35.804555 L 162.539363 18.396826 C 162.539363 17.645639 161.944673 17.050948 161.193486 17.050948 Z M 194.256171 45.669108 L 179.138522 45.669108 L 179.138522 40.69249 L 191.277504 40.69249 C 191.981742 40.69249 192.628598 40.092584 192.628598 39.325746 L 192.628598 32.721556 C 192.628598 31.954718 191.981742 31.360028 191.277504 31.360028 L 179.138522 31.360028 L 179.138522 26.367761 L 194.099674 26.367761 C 194.798696 26.367761 195.450768 25.773071 195.450768 25.016667 L 195.450768 18.396826 C 195.450768 17.645639 194.798696 17.050948 194.099674 17.050948 L 169.315701 17.050948 C 168.564513 17.050948 167.969823 17.645639 167.969823 18.396826 L 167.969823 53.650476 C 167.969823 54.40688 168.564513 55.00157 169.315701 55.00157 L 194.256171 55.00157 C 195.023009 55.00157 195.622915 54.40688 195.622915 53.650476 L 195.622915 47.030635 C 195.622915 46.274231 195.023009 45.669108 194.256171 45.669108 Z M 229.989746 40.410795 C 228.523887 44.213682 225.54522 45.997752 221.371956 45.997752 C 215.946712 45.997752 212.039493 41.605392 212.039493 35.966269 C 212.039493 30.327145 215.946712 25.945218 221.371956 25.945218 C 225.493054 25.945218 228.414339 27.677122 229.93758 31.360028 C 230.041912 31.688673 230.427939 32.05905 231.074795 32.05905 L 239.64042 32.05905 C 240.459423 32.05905 240.621137 31.360028 240.459423 30.65579 C 238.289325 22.037999 230.74615 16.398876 221.371956 16.398876 C 210.307589 16.398876 201.042942 25.120998 201.042942 35.966269 C 201.042942 46.816755 210.307589 55.59626 221.371956 55.59626 C 230.866132 55.59626 238.398874 49.852805 240.516805 41.115033 C 240.673303 40.410795 240.396824 39.659607 239.64042 39.659607 L 231.184343 39.659607 C 230.584436 39.659607 230.15146 39.920436 229.989746 40.410795 Z M 277.491926 17.050948 L 247.340092 17.050948 C 246.583688 17.050948 245.988998 17.697804 245.988998 18.396826 L 245.988998 25.016667 C 245.988998 25.773071 246.583688 26.367761 247.340092 26.367761 L 256.829052 26.367761 L 256.829052 53.650476 C 256.829052 54.40688 257.423742 55.00157 258.180146 55.00157 L 266.636223 55.00157 C 267.408277 55.00157 268.002967 54.40688 268.002967 53.650476 L 268.002967 26.367761 L 277.491926 26.367761 C 278.24833 26.367761 278.84302 25.773071 278.84302 25.016667 L 278.84302 18.396826 C 278.84302 17.697804 278.24833 17.050948 277.491926 17.050948 Z M 277.491926 17.050948 " stroke="#000000" stroke-width="6.642832" stroke-opacity="1" stroke-miterlimit="4"/></g><g fill="#ffffff" fill-opacity="1"><g transform="translate(110.149605, 158.061324)"><g><path d="M 13.234375 -28.421875 L 3.046875 -28.421875 C 2.515625 -28.421875 2.03125 -27.933594 2.03125 -27.40625 L 2.03125 -1.015625 C 2.03125 -0.445312 2.515625 0 3.046875 0 L 9.417969 0 C 9.945312 0 10.433594 -0.445312 10.433594 -1.015625 L 10.433594 -6.414062 L 13.234375 -6.414062 C 22.859375 -6.414062 26.308594 -11.9375 26.308594 -17.703125 C 26.308594 -23.75 21.679688 -28.421875 13.234375 -28.421875 Z M 12.707031 -13.398438 L 10.433594 -13.398438 L 10.433594 -21.4375 L 12.625 -21.4375 C 16.890625 -21.4375 17.703125 -18.878906 17.703125 -17.621094 C 17.703125 -16.363281 17.132812 -13.398438 12.707031 -13.398438 Z M 12.707031 -13.398438 "/></g></g></g><g fill="#ffffff" fill-opacity="1"><g transform="translate(138.488255, 158.061324)"><g><path d="M 26.269531 -1.339844 C 25.945312 -1.828125 22.9375 -7.066406 20.992188 -10.351562 C 23.671875 -12.019531 25.050781 -14.941406 25.050781 -18.472656 C 25.050781 -24.523438 21.113281 -28.421875 14.496094 -28.421875 L 3.046875 -28.421875 C 2.476562 -28.421875 2.03125 -27.972656 2.03125 -27.40625 L 2.03125 -1.015625 C 2.03125 -0.445312 2.476562 0 3.046875 0 L 9.378906 0 C 9.945312 0 10.394531 -0.445312 10.394531 -1.015625 L 10.394531 -8.6875 L 12.585938 -8.6875 C 14.414062 -5.359375 16.644531 -1.300781 16.808594 -1.015625 C 17.09375 -0.527344 17.621094 0 18.351562 0 L 25.539062 0 C 26.511719 0 26.632812 -0.691406 26.269531 -1.339844 Z M 17.539062 -18.515625 C 17.539062 -17.253906 16.484375 -15.429688 14.332031 -15.429688 L 10.394531 -15.429688 L 10.394531 -21.679688 L 14.25 -21.679688 C 16.566406 -21.679688 17.539062 -19.730469 17.539062 -18.515625 Z M 17.539062 -18.515625 "/></g></g></g><g fill="#ffffff" fill-opacity="1"><g transform="translate(166.989303, 158.061324)"><g><path d="M 17.253906 -28.90625 C 8.972656 -28.90625 2.03125 -22.332031 2.03125 -14.210938 C 2.03125 -6.089844 8.972656 0.488281 17.253906 0.488281 C 25.496094 0.488281 32.480469 -6.089844 32.480469 -14.210938 C 32.480469 -22.332031 25.496094 -28.90625 17.253906 -28.90625 Z M 17.253906 -6.699219 C 13.277344 -6.699219 10.027344 -10.070312 10.027344 -14.210938 C 10.027344 -18.351562 13.277344 -21.679688 17.253906 -21.679688 C 21.234375 -21.679688 24.441406 -18.351562 24.441406 -14.210938 C 24.441406 -10.070312 21.234375 -6.699219 17.253906 -6.699219 Z M 17.253906 -6.699219 "/></g></g></g><g fill="#ffffff" fill-opacity="1"><g transform="translate(201.499124, 158.061324)"><g><path d="M 25.699219 -28.421875 L 9.542969 -28.421875 C 8.972656 -28.421875 8.527344 -27.972656 8.527344 -27.40625 L 8.527344 -22.453125 C 8.527344 -21.882812 8.972656 -21.4375 9.542969 -21.4375 L 18.3125 -21.4375 L 18.3125 -14.210938 C 18.3125 -10.273438 17.621094 -7.105469 14.007812 -7.105469 C 12.382812 -7.105469 11.003906 -7.753906 10.3125 -10.191406 C 10.191406 -10.636719 9.945312 -10.921875 9.417969 -10.921875 L 2.800781 -10.921875 C 2.191406 -10.921875 1.988281 -10.515625 2.070312 -9.945312 C 3.167969 -3.371094 7.632812 0.488281 14.332031 0.488281 C 24.078125 0.488281 26.714844 -6.007812 26.714844 -14.371094 L 26.714844 -27.40625 C 26.714844 -27.972656 26.269531 -28.421875 25.699219 -28.421875 Z M 25.699219 -28.421875 "/></g></g></g><g fill="#ffffff" fill-opacity="1"><g transform="translate(230.243775, 158.061324)"><g><path d="M 21.722656 -6.984375 L 10.394531 -6.984375 L 10.394531 -10.71875 L 19.488281 -10.71875 C 20.015625 -10.71875 20.503906 -11.164062 20.503906 -11.734375 L 20.503906 -16.6875 C 20.503906 -17.253906 20.015625 -17.703125 19.488281 -17.703125 L 10.394531 -17.703125 L 10.394531 -21.4375 L 21.597656 -21.4375 C 22.128906 -21.4375 22.613281 -21.882812 22.613281 -22.453125 L 22.613281 -27.40625 C 22.613281 -27.972656 22.128906 -28.421875 21.597656 -28.421875 L 3.046875 -28.421875 C 2.476562 -28.421875 2.03125 -27.972656 2.03125 -27.40625 L 2.03125 -1.015625 C 2.03125 -0.445312 2.476562 0 3.046875 0 L 21.722656 0 C 22.289062 0 22.738281 -0.445312 22.738281 -1.015625 L 22.738281 -5.96875 C 22.738281 -6.535156 22.289062 -6.984375 21.722656 -6.984375 Z M 21.722656 -6.984375 "/></g></g></g><g fill="#ffffff" fill-opacity="1"><g transform="translate(255.009652, 158.061324)"><g><path d="M 23.710938 -10.921875 C 22.613281 -8.078125 20.382812 -6.738281 17.253906 -6.738281 C 13.195312 -6.738281 10.273438 -10.027344 10.273438 -14.25 C 10.273438 -18.472656 13.195312 -21.761719 17.253906 -21.761719 C 20.339844 -21.761719 22.535156 -20.460938 23.671875 -17.703125 C 23.75 -17.457031 24.035156 -17.175781 24.523438 -17.175781 L 30.9375 -17.175781 C 31.546875 -17.175781 31.667969 -17.703125 31.546875 -18.230469 C 29.921875 -24.683594 24.277344 -28.90625 17.253906 -28.90625 C 8.972656 -28.90625 2.03125 -22.371094 2.03125 -14.25 C 2.03125 -6.128906 8.972656 0.445312 17.253906 0.445312 C 24.359375 0.445312 30.003906 -3.855469 31.585938 -10.394531 C 31.710938 -10.921875 31.507812 -11.488281 30.9375 -11.488281 L 24.605469 -11.488281 C 24.15625 -11.488281 23.832031 -11.285156 23.710938 -10.921875 Z M 23.710938 -10.921875 "/></g></g></g><g fill="#ffffff" fill-opacity="1"><g transform="translate(288.666877, 158.061324)"><g><path d="M 25.617188 -28.421875 L 3.046875 -28.421875 C 2.476562 -28.421875 2.03125 -27.933594 2.03125 -27.40625 L 2.03125 -22.453125 C 2.03125 -21.882812 2.476562 -21.4375 3.046875 -21.4375 L 10.148438 -21.4375 L 10.148438 -1.015625 C 10.148438 -0.445312 10.597656 0 11.164062 0 L 17.5 0 C 18.066406 0 18.515625 -0.445312 18.515625 -1.015625 L 18.515625 -21.4375 L 25.617188 -21.4375 C 26.1875 -21.4375 26.632812 -21.882812 26.632812 -22.453125 L 26.632812 -27.40625 C 26.632812 -27.933594 26.1875 -28.421875 25.617188 -28.421875 Z M 25.617188 -28.421875 "/></g></g></g><path stroke-linecap="butt" transform="matrix(0.748814, 0, 0, 0.748814, 321.043016, 141.961799)" fill="none" stroke-linejoin="miter" d="M -0.0000627222 3.999966 L 54.007193 3.999966 " stroke="#face00" stroke-width="8" stroke-opacity="1" stroke-miterlimit="4"/><path stroke-linecap="round" transform="matrix(0.748814, 0, 0, 0.748814, 321.043016, 141.961799)" fill-opacity="1" fill="#face00" fill-rule="nonzero" stroke-linejoin="round" d="M 76.010728 3.999966 L 64.007377 -7.998168 L 52.009243 3.999966 L 64.007377 15.998101 Z M 76.010728 3.999966 " stroke="#face00" stroke-width="8" stroke-opacity="1" stroke-miterlimit="4"/><path stroke-linecap="butt" transform="matrix(0.748814, 0, 0, 0.748814, 46.544858, 141.961799)" fill="none" stroke-linejoin="miter" d="M 26.00213 3.999966 L 80.009385 3.999966 " stroke="#face00" stroke-width="8" stroke-opacity="1" stroke-miterlimit="4"/><path stroke-linecap="round" transform="matrix(0.748814, 0, 0, 0.748814, 46.544858, 141.961799)" fill-opacity="1" fill="#face00" fill-rule="nonzero" stroke-linejoin="round" d="M 3.998594 3.999966 L 16.001945 -7.998168 L 28.00008 3.999966 L 16.001945 15.998101 Z M 3.998594 3.999966 " stroke="#face00" stroke-width="8" stroke-opacity="1" stroke-miterlimit="4"/></svg>