<svg xmlns="http://www.w3.org/2000/svg" xmlns:xlink="http://www.w3.org/1999/xlink" width="500" zoomAndPan="magnify" viewBox="0 0 375 374.999991" height="500" preserveAspectRatio="xMidYMid meet" version="1.0"><defs><g/><clipPath id="fc1a2e0c13"><path d="M 0.0820312 6.746094 L 374.914062 6.746094 L 374.914062 368.246094 L 0.0820312 368.246094 Z M 0.0820312 6.746094 " clip-rule="nonzero"/></clipPath></defs><g clip-path="url(#fc1a2e0c13)"><path fill="#ffde59" d="M 22.832031 105.746094 C 23.378906 104.078125 24.167969 102.40625 25.128906 100.890625 C 28.359375 94.808594 31.996094 89.339844 35.933594 84.625 L 35.945312 84.613281 C 36.464844 83.832031 37.175781 83.152344 37.953125 82.683594 C 37.300781 84.472656 36.40625 86.179688 35.296875 87.765625 C 32.242188 92.816406 28.632812 98.175781 24.257812 104.144531 C 23.828125 104.710938 23.347656 105.25 22.832031 105.746094 Z M 4.894531 168.230469 L 4.859375 168.25 C 4.726562 168.375 4.625 168.527344 4.550781 168.695312 C 2.953125 172.742188 2.382812 177.191406 2.003906 181.398438 C 1.746094 183.511719 1.773438 185.632812 2.078125 187.714844 C 2.15625 187.617188 2.21875 187.507812 2.261719 187.390625 C 3.613281 182.984375 4.292969 178.414062 4.730469 174.929688 C 5.179688 172.71875 5.242188 170.410156 4.902344 168.234375 Z M 13.996094 147.488281 L 14.164062 147.503906 C 14.375 147.441406 14.566406 147.335938 14.734375 147.195312 C 17.3125 144.242188 19.375 140.308594 21.203125 134.839844 C 22.148438 132.617188 22.539062 130.125 22.308594 127.8125 L 22.179688 127.621094 L 21.769531 127.488281 C 21.503906 127.542969 21.269531 127.660156 21.066406 127.839844 C 18.289062 130.804688 16.222656 134.800781 14.566406 140.417969 C 13.691406 142.675781 13.441406 145.144531 13.855469 147.390625 Z M 6.320312 208.570312 C 7.398438 206.125 7.9375 203.261719 7.839844 200.496094 C 8.03125 198.496094 7.867188 196.453125 7.359375 194.566406 L 7.164062 194.371094 L 6.984375 194.417969 C 5.824219 196.9375 5.261719 199.898438 5.394531 202.761719 C 5.210938 204.773438 5.507812 206.828125 6.238281 208.578125 Z M 12.058594 128.507812 C 12.539062 127.257812 12.984375 125.984375 13.390625 124.707031 C 13.320312 124.886719 13.253906 125.070312 13.191406 125.253906 L 13.1875 125.261719 C 11.664062 129.058594 10.347656 132.949219 9.136719 136.851562 C 9.789062 134.964844 10.445312 133.09375 11.097656 131.25 C 11.417969 130.335938 11.738281 129.421875 12.058594 128.507812 Z M 0.0820312 194.425781 C 0.0859375 194.847656 0.09375 195.269531 0.101562 195.695312 C 0.238281 192.550781 0.394531 189.40625 0.542969 186.332031 L 0.585938 185.425781 C 0.773438 183.613281 0.84375 181.78125 0.792969 179.964844 C 0.789062 180.011719 0.78125 180.054688 0.777344 180.101562 C 0.25 184.988281 0.144531 189.855469 0.0820312 194.425781 Z M 12.148438 137.109375 L 11.882812 137.207031 C 11.660156 137.410156 11.480469 137.644531 11.335938 137.914062 C 9.160156 141.855469 7.496094 146.65625 6.238281 152.589844 C 5.617188 154.675781 5.347656 156.886719 5.457031 158.996094 L 5.480469 159.023438 L 5.585938 158.957031 C 5.746094 158.765625 5.890625 158.5625 6.015625 158.34375 C 8.296875 153.53125 9.867188 148.339844 11.105469 143.894531 C 11.816406 141.714844 12.1875 139.382812 12.175781 137.140625 L 12.148438 137.113281 Z M 23.464844 108.152344 L 23.410156 108.0625 L 23.378906 108.0625 C 22.84375 108.40625 22.398438 108.851562 22.054688 109.386719 L 22.050781 109.394531 C 18.957031 113.914062 16.28125 119.273438 14.097656 125.316406 C 13.25 127.214844 12.695312 129.273438 12.488281 131.292969 C 12.878906 131.007812 13.207031 130.628906 13.4375 130.183594 C 16.710938 124.867188 19.351562 119.183594 21.507812 114.324219 C 22.46875 112.378906 23.140625 110.25 23.464844 108.152344 Z M 2.253906 199.988281 L 2.164062 200.15625 C 1.476562 203.910156 1.621094 207.773438 1.824219 210.726562 C 1.894531 212.648438 2.136719 214.5625 2.542969 216.421875 C 2.90625 212.808594 2.898438 209.195312 2.84375 206.144531 C 2.902344 204.058594 2.707031 201.992188 2.253906 199.988281 Z M 12.253906 160.746094 L 12.089844 160.683594 C 12.046875 160.679688 12.019531 160.691406 11.984375 160.707031 C 11.894531 160.746094 11.804688 160.800781 11.726562 160.867188 C 9.261719 164.28125 8.390625 168.46875 7.949219 171.320312 C 7.476562 173.445312 7.472656 175.644531 7.9375 177.703125 L 8.175781 177.875 L 8.304688 177.847656 L 8.464844 177.75 C 10.664062 174.421875 11.613281 170.550781 12.195312 167.546875 C 12.828125 165.355469 12.890625 162.988281 12.375 160.867188 Z M 4.683594 231.578125 C 4.820312 234.167969 5.226562 236.753906 5.890625 239.277344 C 6.152344 240.515625 6.472656 241.746094 6.847656 242.953125 C 6.550781 240.8125 6.199219 238.652344 5.792969 236.53125 C 5.546875 234.855469 5.171875 233.191406 4.683594 231.578125 Z M 7.742188 227.835938 L 7.652344 227.8125 L 7.527344 227.957031 C 7.183594 229.917969 7.226562 232.003906 7.65625 233.988281 C 7.871094 235.871094 8.40625 237.742188 9.207031 239.414062 L 9.210938 239.421875 L 9.242188 239.425781 C 9.25 239.421875 9.261719 239.410156 9.269531 239.40625 L 9.316406 239.328125 C 9.628906 237.433594 9.613281 235.421875 9.269531 233.507812 C 9.097656 231.53125 8.570312 229.578125 7.742188 227.835938 Z M 5.339844 150.800781 C 5.234375 151.082031 5.148438 151.375 5.085938 151.667969 L 5.085938 151.675781 C 3.75 156.820312 2.707031 162.246094 1.984375 167.796875 C 1.835938 168.617188 1.710938 169.4375 1.605469 170.265625 C 2.34375 166.175781 3.222656 161.765625 4.394531 156.269531 C 4.792969 154.46875 5.109375 152.632812 5.339844 150.800781 Z M 329.972656 75.867188 C 333.472656 80.359375 337.429688 85.449219 342.066406 89.230469 C 342.132812 89.261719 342.214844 89.292969 342.304688 89.316406 L 342.296875 89.207031 C 340.5625 86.003906 338.523438 82.988281 336.757812 80.460938 L 335.824219 79.316406 C 332.398438 75.085938 328.855469 70.710938 324.691406 67.160156 C 324.5625 67.074219 324.414062 66.992188 324.257812 66.921875 L 324.257812 67.015625 C 325.921875 70.273438 327.847656 73.25 329.972656 75.867188 Z M 313.25 63.398438 L 312.707031 63.609375 C 312.636719 63.660156 312.558594 63.738281 312.488281 63.835938 C 312.550781 67.945312 315.148438 71.609375 317.4375 74.84375 C 324.179688 83.851562 329.027344 86.085938 332.085938 86.980469 C 332.277344 86.964844 332.503906 86.941406 332.722656 86.84375 L 332.878906 86.742188 L 333.085938 86.457031 C 333.171875 82.996094 331.527344 79.34375 328.199219 75.601562 L 328.195312 75.59375 C 324.898438 71.464844 319.921875 65.222656 313.703125 63.386719 Z M 307.550781 51.175781 C 309.210938 52.558594 310.839844 54.015625 312.417969 55.421875 C 315.144531 57.855469 317.960938 60.367188 320.972656 62.558594 L 321.015625 62.59375 C 321.140625 62.6875 321.269531 62.765625 321.410156 62.824219 C 321.390625 62.785156 321.367188 62.746094 321.34375 62.710938 C 318.75 60.257812 316.074219 57.761719 313.484375 55.34375 L 311.4375 53.433594 C 308.5625 50.703125 305.347656 48.078125 301.617188 45.40625 C 301.613281 45.402344 301.613281 45.398438 301.609375 45.398438 C 303.347656 47.53125 305.34375 49.472656 307.550781 51.175781 Z M 348.335938 105.1875 C 350.953125 110.378906 353.863281 115.796875 358.039062 119.957031 L 358.238281 120.003906 L 358.261719 119.996094 L 358.304688 119.808594 C 357.664062 116.226562 356.265625 112.492188 354.15625 108.714844 L 354.15625 108.710938 C 353.875 108.179688 353.589844 107.644531 353.304688 107.105469 C 350.789062 102.34375 348.1875 97.417969 344.382812 93.765625 L 344.273438 93.707031 L 343.984375 93.683594 L 343.980469 93.691406 C 344.527344 96.96875 345.984375 100.109375 347.398438 103.144531 C 347.710938 103.824219 348.027344 104.507812 348.335938 105.1875 Z M 360.253906 138.035156 C 359.226562 133.96875 356.695312 126.699219 351.308594 123.667969 C 351.175781 123.644531 351.039062 123.632812 350.90625 123.648438 L 350.042969 124.125 C 347.941406 129.257812 349.660156 135.347656 351.140625 139.484375 L 351.449219 140.335938 C 353.210938 145.246094 355.210938 150.8125 359.679688 153.46875 C 359.902344 153.515625 360.121094 153.511719 360.335938 153.464844 L 360.582031 153.378906 L 361.191406 152.90625 C 363.25 148.320312 361.519531 142.382812 360.257812 138.042969 Z M 267.667969 28.972656 C 268.496094 29.417969 269.316406 29.867188 270.136719 30.320312 C 274.613281 32.78125 279.238281 35.320312 284.277344 36.5 C 284.566406 36.546875 284.871094 36.546875 285.171875 36.496094 L 285.457031 36.253906 C 283.578125 34.292969 281.320312 32.535156 278.921875 31.167969 L 278.910156 31.160156 C 274.160156 27.917969 268.539062 25.347656 262.65625 23.722656 C 262.34375 23.667969 262.011719 23.632812 261.683594 23.632812 L 261.429688 23.738281 L 261.523438 24.25 C 263.21875 26.167969 265.34375 27.800781 267.667969 28.972656 Z M 53.878906 62.667969 C 47.933594 68.515625 42.6875 75 38.125 80.898438 C 42.226562 76.296875 46.484375 71.386719 51.507812 65.484375 C 52.34375 64.585938 53.136719 63.644531 53.878906 62.667969 Z M 140.527344 17.351562 C 147.621094 16.894531 154.9375 15.296875 161.710938 12.734375 C 162.671875 12.386719 163.589844 11.871094 164.371094 11.238281 L 164.539062 10.921875 L 164.539062 10.792969 L 164.425781 10.617188 L 164.117188 10.421875 C 162.328125 9.941406 160.402344 9.859375 158.539062 10.1875 L 158.527344 10.191406 C 150.847656 10.867188 144.136719 12.382812 138.007812 14.824219 C 136.957031 15.1875 135.984375 15.753906 135.183594 16.472656 L 135.085938 16.808594 L 135.15625 16.976562 C 136.804688 17.601562 138.707031 17.738281 140.527344 17.355469 Z M 119.324219 20.796875 C 124.222656 19.101562 129.289062 17.347656 134.140625 15.285156 C 135.058594 14.9375 135.929688 14.496094 136.75 13.96875 C 135.074219 14.089844 133.148438 14.558594 131.523438 15.242188 L 131.503906 15.246094 C 124.996094 17.011719 118.753906 19.636719 112.398438 22.398438 C 111.550781 22.742188 110.714844 23.183594 109.957031 23.6875 C 111.4375 23.355469 112.917969 22.96875 114.363281 22.53125 C 116.007812 21.949219 117.667969 21.371094 119.324219 20.796875 Z M 76.210938 44.519531 C 80.636719 41.550781 85.214844 38.484375 89.570312 35.234375 C 90.574219 34.523438 91.523438 33.738281 92.40625 32.894531 C 89.132812 34.277344 86.140625 36.273438 83.628906 38.058594 L 83.621094 38.0625 C 79.867188 40.429688 76.300781 43.179688 72.851562 45.835938 L 71.53125 46.855469 C 70.578125 47.5625 69.675781 48.339844 68.84375 49.179688 C 69.886719 48.613281 70.925781 48.015625 71.933594 47.394531 C 73.351562 46.433594 74.78125 45.476562 76.210938 44.519531 Z M 239.117188 15.058594 C 245.941406 17.679688 251.25 19.339844 256.34375 20.441406 C 256.714844 20.527344 257.101562 20.558594 257.480469 20.527344 L 257.351562 20.339844 L 257 20.0625 C 254.207031 19 251.308594 17.929688 248.140625 16.785156 C 242.792969 14.808594 238.304688 13.445312 234.023438 12.503906 C 233.625 12.394531 233.203125 12.355469 232.816406 12.386719 L 232.671875 12.4375 L 232.675781 12.445312 C 234.65625 13.578125 236.878906 14.480469 239.117188 15.058594 Z M 191.859375 10.085938 C 198 10.679688 204.347656 11.292969 210.550781 10.589844 C 211.304688 10.542969 212.007812 10.292969 212.59375 9.871094 L 212.621094 9.820312 L 212.585938 9.730469 C 210.53125 8.902344 208.269531 8.316406 206.039062 8.035156 L 206.03125 8.03125 C 200.121094 6.964844 193.414062 6.789062 186.648438 7.519531 C 185.902344 7.558594 185.175781 7.75 184.527344 8.070312 L 184.496094 8.203125 C 186.316406 9.25 188.417969 9.859375 190.578125 9.960938 Z M 167.9375 8.367188 C 172.308594 7.972656 176.832031 7.570312 181.246094 6.960938 C 181.652344 6.914062 182.050781 6.84375 182.445312 6.746094 C 172.914062 7.082031 164.875 7.84375 157.332031 9.128906 C 158.804688 9.105469 160.28125 9.042969 161.742188 8.941406 C 163.800781 8.734375 165.902344 8.546875 167.9375 8.367188 Z M 68.542969 222.984375 C 68.488281 223.097656 68.480469 223.207031 68.519531 223.308594 L 68.539062 223.304688 C 68.5625 223.289062 68.605469 223.238281 68.632812 223.175781 C 68.6875 223.066406 68.695312 222.957031 68.660156 222.851562 L 68.636719 222.855469 C 68.613281 222.875 68.570312 222.921875 68.542969 222.984375 Z M 86.148438 189.097656 L 86.089844 189.066406 C 85.976562 189.097656 85.886719 189.167969 85.832031 189.277344 C 85.738281 189.433594 85.722656 189.59375 85.78125 189.746094 L 85.816406 189.773438 L 85.835938 189.777344 C 85.949219 189.746094 86.039062 189.671875 86.097656 189.566406 C 86.1875 189.410156 86.203125 189.25 86.148438 189.097656 Z M 72.386719 61.78125 C 71.550781 61.535156 70.640625 61.582031 69.796875 61.929688 C 63.144531 64.792969 58.289062 70.179688 55.390625 74.195312 C 53.824219 76.050781 52.90625 78.320312 52.792969 80.609375 L 53.25 81.222656 L 53.296875 81.246094 L 54.097656 81.394531 C 54.558594 81.320312 55.019531 81.214844 55.46875 81.082031 C 60.507812 78.910156 65.277344 74.925781 70.039062 68.902344 C 71.75 67.074219 72.78125 64.691406 72.882812 62.34375 L 72.503906 61.84375 Z M 87.59375 138.8125 L 87.308594 138.582031 L 86.949219 138.464844 C 85.824219 138.542969 84.886719 139.164062 84.3125 140.222656 C 83.769531 141.03125 83.589844 141.964844 83.800781 142.867188 L 84.007812 143.21875 C 84.074219 143.285156 84.171875 143.363281 84.273438 143.421875 L 84.617188 143.527344 C 85.738281 143.433594 86.675781 142.824219 87.257812 141.804688 C 87.820312 140.992188 88.003906 140.050781 87.792969 139.140625 Z M 367.902344 173.140625 C 367.136719 168.066406 366.003906 162.390625 362.234375 159.167969 L 361.585938 159.101562 L 361.546875 159.113281 C 358.214844 163.167969 358.839844 170.476562 359.601562 175.625 C 360.339844 180.824219 361.753906 184.96875 363.917969 188.296875 C 364.164062 188.597656 364.476562 188.84375 364.832031 189.015625 L 365.722656 189.070312 C 368.925781 185.121094 368.351562 178.386719 367.929688 173.464844 Z M 67.566406 127.316406 L 66.921875 127.257812 C 64.8125 127.875 63.175781 129.269531 62.1875 131.300781 C 61.042969 133.035156 60.898438 134.902344 61.761719 136.578125 C 61.90625 136.703125 62.074219 136.796875 62.257812 136.859375 L 62.910156 136.925781 C 64.972656 136.335938 66.652344 134.921875 67.648438 132.945312 C 69.007812 130.910156 68.972656 128.867188 67.566406 127.316406 Z M 69.855469 87.875 L 68.753906 87.699219 C 64.757812 88.578125 60.996094 91.648438 58.15625 96.34375 C 56.375 98.71875 55.9375 101.472656 56.945312 103.917969 C 57.339844 104.191406 57.789062 104.328125 58.285156 104.292969 C 62.195312 103.367188 65.867188 100.429688 68.878906 95.804688 C 70.660156 93.585938 71.273438 90.898438 70.574219 88.410156 Z M 90.816406 93.214844 C 90.5625 93.039062 90.253906 92.890625 89.925781 92.804688 C 89.863281 92.800781 89.804688 92.800781 89.742188 92.800781 C 86.277344 92.800781 83.03125 94.714844 80.808594 98.074219 C 78.578125 100.949219 78.628906 103.613281 80.949219 105.589844 C 80.992188 105.589844 81.035156 105.59375 81.078125 105.59375 C 84.480469 105.59375 87.640625 103.75 89.988281 100.386719 C 91.59375 98.457031 92.113281 96.171875 91.464844 93.941406 Z M 111.820312 103.980469 C 109.453125 103.527344 107.238281 104.460938 105.722656 106.535156 C 104.664062 107.816406 104.296875 109.375 104.679688 110.925781 L 105.054688 111.507812 L 105.621094 111.925781 C 107.972656 112.375 110.175781 111.457031 111.683594 109.410156 C 112.585938 108.339844 113.035156 107.0625 112.988281 105.710938 C 112.941406 105.210938 112.742188 104.765625 112.402344 104.398438 Z M 14.214844 261.34375 C 14.300781 262.0625 14.480469 262.78125 14.734375 263.453125 C 14.917969 264.109375 15.140625 264.742188 15.410156 265.351562 C 15.277344 264.6875 15.113281 264.03125 14.914062 263.386719 C 14.730469 262.683594 14.496094 262 14.214844 261.34375 Z M 119.371094 37.578125 L 119.167969 36.667969 L 118.773438 36.117188 C 117.585938 35.464844 116.222656 35.210938 114.828125 35.378906 L 114.824219 35.382812 C 108.394531 36.011719 101.53125 39.359375 95.988281 44.558594 C 93.949219 46.152344 92.820312 48.339844 92.804688 50.730469 C 93.71875 51.886719 95.09375 52.371094 96.683594 52.097656 C 103.328125 51.214844 110.136719 47.964844 115.867188 42.9375 C 117.65625 41.546875 118.863281 39.699219 119.371094 37.578125 Z M 93.871094 59.132812 C 93.101562 58.570312 92.199219 58.335938 91.210938 58.457031 C 85.949219 59.199219 80.496094 62.671875 76.25 67.988281 C 74.019531 70.226562 73.238281 73.003906 74.085938 75.632812 L 75.046875 76.1875 C 75.519531 76.265625 76.007812 76.304688 76.5 76.308594 C 81.585938 75.578125 87.085938 72.15625 91.554688 66.914062 C 93.398438 65.015625 94.417969 62.585938 94.4375 60.0625 L 94.101562 59.378906 Z M 103.90625 258.324219 C 103.945312 258.316406 103.960938 258.304688 103.972656 258.285156 L 103.90625 258.308594 Z M 108.234375 154.691406 L 108.152344 154.648438 L 108.058594 154.632812 C 107.804688 154.667969 107.59375 154.800781 107.449219 155.019531 C 107.257812 155.28125 107.214844 155.578125 107.328125 155.859375 L 107.386719 155.925781 L 107.46875 155.964844 L 107.5625 155.980469 C 107.816406 155.949219 108.027344 155.816406 108.171875 155.597656 C 108.367188 155.335938 108.40625 155.039062 108.296875 154.757812 Z M 49.246094 163.460938 L 48.859375 163.414062 C 47.597656 163.890625 46.644531 164.894531 46.179688 166.238281 C 45.667969 167.328125 45.5625 168.492188 45.859375 169.617188 L 46.101562 169.992188 C 46.171875 170.058594 46.273438 170.128906 46.390625 170.175781 L 46.746094 170.226562 C 47.988281 169.753906 48.933594 168.769531 49.402344 167.445312 C 49.933594 166.335938 50.054688 165.148438 49.761719 163.988281 C 49.667969 163.746094 49.496094 163.566406 49.246094 163.457031 Z M 49.917969 121.585938 C 49.730469 121.488281 49.515625 121.433594 49.324219 121.449219 C 46.414062 122.523438 44.0625 125.007812 42.699219 128.441406 C 41.425781 130.535156 40.796875 133.355469 42.792969 135.101562 C 45.667969 134.390625 48.082031 132.101562 49.59375 128.644531 C 50.988281 126.285156 51.101562 123.71875 49.917969 121.585938 Z M 36.140625 199.25 L 35.929688 199.214844 L 35.695312 199.285156 C 35.097656 199.757812 34.675781 200.441406 34.515625 201.21875 C 34.136719 202.265625 34.265625 203.296875 34.867188 204.082031 L 35.03125 204.113281 L 35.242188 204.046875 C 35.839844 203.570312 36.25 202.914062 36.429688 202.148438 C 36.78125 201.195312 36.742188 200.222656 36.320312 199.386719 Z M 41.78125 242.375 L 41.742188 242.394531 C 41.636719 242.507812 41.570312 242.652344 41.546875 242.8125 C 41.480469 243.101562 41.507812 243.386719 41.628906 243.640625 L 41.660156 243.675781 L 41.671875 243.679688 L 41.710938 243.660156 C 41.816406 243.542969 41.882812 243.398438 41.90625 243.242188 C 41.980469 242.949219 41.953125 242.667969 41.832031 242.414062 Z M 33.152344 162.609375 C 33.519531 161.621094 33.710938 160.570312 33.714844 159.523438 C 33.519531 160.558594 33.324219 161.601562 33.136719 162.644531 C 33.140625 162.632812 33.144531 162.621094 33.152344 162.609375 Z M 62.933594 294.316406 C 62.929688 294.332031 62.933594 294.347656 62.941406 294.359375 L 63.003906 294.3125 L 62.964844 294.265625 C 62.949219 294.277344 62.9375 294.296875 62.933594 294.316406 Z M 67.019531 174.265625 L 66.851562 174.210938 L 66.65625 174.21875 C 66.144531 174.414062 65.753906 174.792969 65.535156 175.316406 C 65.199219 175.925781 65.164062 176.582031 65.421875 177.175781 L 65.554688 177.292969 L 65.714844 177.347656 C 66.316406 177.253906 66.789062 176.863281 67.042969 176.25 C 67.382812 175.636719 67.417969 174.984375 67.15625 174.390625 Z M 63.132812 294.304688 L 63.171875 294.328125 C 63.175781 294.3125 63.171875 294.292969 63.164062 294.28125 Z M 51.691406 209.410156 L 51.613281 209.382812 L 51.53125 209.386719 C 51.253906 209.535156 51.054688 209.777344 50.953125 210.089844 C 50.78125 210.5 50.785156 210.925781 50.957031 211.304688 L 51.023438 211.371094 L 51.097656 211.398438 L 51.179688 211.390625 C 51.460938 211.246094 51.660156 211.007812 51.757812 210.695312 C 51.929688 210.28125 51.929688 209.855469 51.757812 209.472656 Z M 59.414062 315.121094 L 59.441406 315.097656 L 59.40625 315.09375 C 59.40625 315.105469 59.410156 315.117188 59.414062 315.121094 Z M 51.453125 89.617188 L 50.316406 89.8125 C 46.171875 91.828125 42.5625 95.722656 39.59375 101.382812 C 38.042969 103.6875 37.511719 106.300781 38.082031 108.769531 L 38.710938 109.070312 C 39.039062 109.070312 39.363281 109.019531 39.683594 108.925781 C 43.582031 106.898438 47.09375 103.148438 50.394531 97.46875 C 51.765625 95.398438 52.511719 93.035156 52.566406 90.628906 L 52.152344 89.890625 C 51.953125 89.71875 51.710938 89.625 51.453125 89.617188 Z M 22.265625 157.117188 C 20.019531 159.039062 18.523438 161.773438 17.941406 165.03125 C 17.148438 167.285156 17.296875 169.636719 18.335938 171.511719 L 18.574219 171.589844 L 18.785156 171.601562 L 19.394531 171.375 C 21.390625 169.367188 22.683594 166.792969 23.136719 163.933594 C 23.90625 161.554688 23.738281 159.097656 22.6875 157.144531 Z M 193.605469 14.546875 L 193.671875 13.992188 C 192.261719 12.21875 189.957031 11.171875 187.464844 11.171875 C 187.417969 11.171875 187.367188 11.171875 187.316406 11.171875 L 187.296875 11.171875 C 178.921875 10.195312 171.675781 10.847656 165.746094 13.113281 C 164.460938 13.53125 163.433594 14.332031 162.773438 15.425781 L 162.699219 15.851562 L 162.753906 16.113281 L 163.09375 16.605469 C 164.746094 17.621094 166.65625 18.292969 168.625 18.554688 C 175.960938 19.609375 183.828125 18.882812 190.765625 16.503906 C 191.914062 16.140625 192.890625 15.464844 193.605469 14.546875 Z M 197.75 26.4375 C 205.347656 29.28125 214.011719 29.585938 220.371094 27.234375 C 221.503906 26.828125 222.4375 26.089844 223.070312 25.105469 L 223.242188 24.507812 C 222.410156 21.558594 220.113281 19.488281 216.769531 18.675781 L 216.757812 18.671875 C 208.601562 16.007812 200.777344 15.726562 194.722656 17.882812 C 192.726562 18.511719 191.636719 19.890625 191.648438 21.765625 L 191.964844 22.449219 C 193.496094 24.246094 195.496094 25.625 197.75 26.4375 Z M 220.019531 17.5 C 226.792969 19.589844 233.417969 21.410156 240.046875 20.726562 C 240.527344 20.648438 241 20.503906 241.453125 20.300781 C 241.730469 20.164062 241.960938 19.941406 242.09375 19.6875 L 242.011719 19.246094 C 240.199219 17.511719 237.949219 16.179688 235.503906 15.386719 L 235.496094 15.386719 C 228.851562 12.921875 221.921875 11.828125 215.957031 12.308594 C 215.296875 12.375 214.664062 12.566406 214.082031 12.875 C 214.003906 12.929688 213.925781 13.003906 213.859375 13.089844 L 213.8125 13.625 C 215.378906 15.480469 217.582031 16.855469 220.019531 17.5 Z M 226.777344 41.078125 C 232.128906 44.347656 241.101562 47.207031 248.804688 44.511719 C 250.730469 43.527344 251.707031 42.152344 251.6875 40.4375 C 251.65625 37.53125 248.703125 34.386719 245.867188 33.023438 L 245.855469 33.019531 C 238.34375 28.628906 230.242188 27.316406 224.1875 29.503906 C 222.296875 30.21875 221.140625 31.671875 220.9375 33.597656 C 221.667969 36.714844 223.6875 39.300781 226.777344 41.078125 Z M 141.277344 31.847656 C 142.523438 32.601562 143.890625 33.0625 145.351562 33.21875 C 152.65625 34.398438 160.984375 32.71875 167.632812 28.730469 C 169.269531 27.835938 170.492188 26.46875 171.171875 24.777344 L 171.21875 24.328125 L 170.875 22.988281 L 170.652344 22.644531 C 169.179688 21.484375 167.382812 20.761719 165.457031 20.554688 L 165.449219 20.554688 C 158.328125 19.433594 150.167969 21.171875 143.621094 25.195312 C 141.941406 26.144531 140.722656 27.570312 140.085938 29.324219 C 140.027344 29.785156 140.101562 30.28125 140.308594 30.726562 Z M 116.714844 23.921875 L 116.691406 23.796875 L 116.53125 23.609375 L 115.664062 23.433594 C 114.347656 23.652344 113.035156 23.980469 111.773438 24.402344 L 111.769531 24.40625 C 105.53125 26.308594 98.890625 29.707031 92.570312 34.238281 C 91.257812 35.046875 90.125 36.191406 89.367188 37.46875 L 89.382812 37.664062 L 89.449219 37.746094 C 90.832031 37.855469 92.316406 37.617188 93.640625 37.078125 C 101.503906 34.101562 107.976562 30.84375 113.433594 27.117188 C 114.808594 26.371094 116 25.210938 116.714844 23.921875 Z M 113.976562 31.589844 C 115.359375 32.09375 116.878906 32.285156 118.367188 32.140625 C 125.585938 31.480469 133.378906 28.789062 139.753906 24.75 C 141.351562 23.894531 142.589844 22.5 143.171875 20.910156 L 142.835938 20.152344 L 141.824219 19.640625 C 140.484375 19.332031 139.070312 19.203125 137.65625 19.273438 C 129.691406 20.351562 122.484375 22.910156 116.820312 26.675781 C 115.128906 27.613281 113.945312 29.070312 113.472656 30.792969 L 113.660156 31.304688 Z M 337.691406 128.394531 C 337.632812 128.394531 337.574219 128.394531 337.511719 128.394531 C 332.292969 132.816406 335.128906 142.414062 336.128906 145.257812 C 337.585938 149.722656 340.917969 157.117188 346.820312 156.6875 C 351.722656 152.0625 349.359375 142.9375 348.515625 140.238281 C 345.617188 132.273438 342.078125 128.394531 337.691406 128.394531 Z M 345.742188 261.167969 C 345.84375 261.429688 346.015625 261.65625 346.238281 261.832031 L 346.847656 261.992188 L 347.769531 261.734375 C 350.621094 259.25 352.613281 255.269531 353.863281 249.566406 L 353.867188 249.546875 C 354.820312 246.84375 354.671875 244.066406 353.441406 241.726562 C 353.257812 241.5625 353.042969 241.476562 352.796875 241.476562 L 351.84375 241.730469 C 348.753906 244.203125 346.675781 248.414062 345.65625 254.238281 C 345.171875 256.527344 345.199219 258.917969 345.742188 261.167969 Z M 298.304688 64.667969 C 297.800781 64.871094 297.289062 65.140625 296.832031 65.449219 C 294.199219 69.996094 297.285156 74.890625 300.386719 79.121094 C 307.785156 89.152344 314.726562 89.78125 317.417969 89.566406 C 318.71875 88.671875 319.492188 87.503906 319.714844 86.09375 C 320.144531 83.402344 318.613281 79.769531 315.164062 75.300781 C 309.253906 67.683594 303.738281 64.199219 298.304688 64.671875 Z M 331.398438 197.582031 C 332.507812 198.414062 333.835938 198.6875 335.335938 198.382812 C 339.511719 195.039062 339.628906 189.398438 338.984375 185.253906 L 338.984375 185.242188 C 338.691406 182.328125 337.523438 179.878906 335.871094 178.6875 C 334.777344 177.902344 333.496094 177.65625 332.0625 177.972656 C 327.671875 181.546875 327.996094 187.925781 328.582031 191.414062 C 328.800781 194.15625 329.824219 196.398438 331.398438 197.582031 Z M 346.816406 105.097656 C 343.804688 99.050781 340.25 93.179688 334.679688 91.179688 L 333.71875 91.5625 C 331.902344 96.007812 334.585938 101.105469 336.742188 105.207031 L 336.8125 105.339844 C 339.25 110.308594 343.164062 117.121094 349.023438 118.996094 C 349.085938 118.988281 349.148438 118.976562 349.210938 118.960938 L 349.875 118.558594 L 349.921875 118.5 C 351.328125 113.847656 349.042969 109.417969 346.835938 105.132812 Z M 352.722656 192.480469 C 357.96875 187.777344 357.132812 179.933594 356.527344 176.773438 L 356.527344 176.761719 C 355.957031 172.625 354.328125 167.300781 349.804688 165.425781 C 349.46875 165.433594 349.152344 165.5 348.855469 165.632812 C 344.582031 169.320312 344.9375 175.949219 345.601562 181.875 C 345.9375 185.054688 347.296875 192.433594 352.722656 192.480469 Z M 327.964844 288.691406 L 327.703125 288.4375 L 327.394531 288.386719 C 327.203125 288.410156 327.023438 288.480469 326.847656 288.59375 C 324.917969 290.292969 323.417969 292.507812 322.523438 294.988281 C 322.148438 295.785156 321.941406 296.648438 321.921875 297.5 L 322.066406 297.984375 L 322.246094 298.125 L 322.480469 298.164062 L 322.570312 298.152344 L 323.097656 297.949219 C 325.1875 296.449219 326.746094 294.332031 327.554688 291.84375 L 327.5625 291.828125 C 327.996094 290.832031 328.140625 289.757812 327.976562 288.714844 Z M 292.871094 124.886719 C 291.472656 122.117188 289.0625 119.953125 286.425781 119.089844 C 285.5625 118.808594 284.695312 118.667969 283.832031 118.667969 C 282.554688 118.667969 281.296875 118.976562 280.105469 119.582031 C 275.421875 123.136719 275.613281 129.589844 278.238281 134.121094 C 280.679688 138.507812 284.941406 140.824219 289.097656 140.023438 L 290.945312 139.195312 C 294.15625 136.703125 296.15625 131.152344 292.871094 124.886719 Z M 285.0625 221.503906 L 285.597656 221.40625 L 286.183594 221.125 C 287.648438 219.949219 288.265625 218.253906 287.894531 216.367188 C 287.757812 215.730469 287.425781 215.179688 286.929688 214.765625 C 286.28125 214.378906 285.578125 214.40625 284.917969 214.859375 C 283.527344 216.085938 282.914062 217.796875 283.207031 219.664062 C 283.363281 220.46875 283.84375 221.097656 284.5625 221.433594 Z M 272.230469 340.296875 C 272.207031 340.335938 272.1875 340.371094 272.171875 340.410156 C 272.195312 340.402344 272.214844 340.394531 272.238281 340.382812 C 272.605469 340.199219 272.917969 339.917969 273.15625 339.582031 C 273.179688 339.546875 273.203125 339.511719 273.214844 339.46875 C 273.195312 339.476562 273.175781 339.484375 273.152344 339.496094 C 272.785156 339.679688 272.464844 339.960938 272.230469 340.296875 Z M 276.644531 187.265625 C 278.894531 185.230469 279.648438 182.476562 278.75 179.523438 C 278.265625 178.109375 277.257812 177.132812 275.835938 176.691406 C 275.605469 176.652344 275.375 176.628906 275.144531 176.628906 C 274.375 176.628906 273.632812 176.867188 272.980469 177.328125 C 270.738281 179.398438 270.003906 182.175781 270.925781 185.132812 C 271.433594 186.496094 272.476562 187.488281 273.859375 187.914062 C 274.84375 188.074219 275.808594 187.847656 276.644531 187.265625 Z M 367.253906 140.652344 L 367.753906 142.292969 C 368.515625 144.796875 369.289062 147.34375 370.007812 149.917969 C 368.875 145.019531 367.449219 140.105469 365.769531 135.324219 C 366.148438 136.644531 366.507812 137.957031 366.867188 139.253906 Z M 366.496094 140.191406 C 366.367188 139.753906 366.234375 139.3125 366.105469 138.871094 C 364.582031 133.703125 363.003906 128.355469 359.617188 124.417969 L 359.253906 124.480469 C 358.734375 128.199219 359.894531 132 361.011719 135.675781 C 361.246094 136.449219 361.480469 137.21875 361.699219 137.980469 C 363.007812 142.640625 364.796875 149.019531 368.464844 153.402344 L 368.574219 153.394531 C 368.605469 153.371094 368.628906 153.339844 368.648438 153.308594 C 369.042969 149.601562 368.359375 145.433594 366.496094 140.199219 L 366.492188 140.191406 Z M 34.796875 122.191406 L 34.675781 122.15625 C 34.449219 122.125 34.199219 122.148438 33.964844 122.222656 C 30.9375 124.128906 28.574219 127.476562 26.929688 132.167969 C 25.898438 134.414062 25.660156 136.800781 26.238281 139.082031 L 26.699219 139.417969 C 26.90625 139.457031 27.121094 139.449219 27.320312 139.394531 C 30.269531 137.449219 32.53125 134.25 34.242188 129.613281 C 35.339844 127.339844 35.660156 124.816406 35.152344 122.480469 Z M 73.132812 48.648438 L 73.09375 48.390625 L 72.964844 48.347656 C 71.800781 48.6875 70.65625 49.242188 69.648438 49.949219 L 69.644531 49.953125 C 64.125 53.578125 58.746094 58.355469 54.078125 63.769531 C 52.867188 65.011719 51.839844 66.476562 51.105469 68.011719 L 51.140625 68.210938 L 51.429688 68.222656 C 52.308594 67.84375 53.15625 67.382812 53.949219 66.851562 C 59.355469 62.964844 64.59375 58.398438 69.960938 52.902344 C 71.277344 51.6875 72.371094 50.21875 73.132812 48.648438 Z M 35.941406 96.601562 C 35.488281 96.714844 34.988281 96.957031 34.570312 97.277344 C 30.835938 100.496094 27.652344 105.105469 24.839844 111.359375 C 23.628906 113.464844 23.054688 115.949219 23.257812 118.207031 L 23.292969 118.242188 L 23.632812 118.289062 C 24 118.164062 24.34375 117.984375 24.652344 117.746094 C 29.234375 113.519531 32.421875 107.75 34.417969 103.777344 C 35.59375 101.703125 36.308594 99.394531 36.496094 97.085938 L 36.164062 96.640625 C 36.09375 96.613281 36.003906 96.605469 35.941406 96.601562 Z M 51.101562 76.007812 C 52.59375 74.257812 53.570312 72.128906 53.863281 69.996094 C 53.855469 69.984375 53.851562 69.976562 53.839844 69.964844 L 53.527344 69.855469 C 52.699219 70.019531 51.898438 70.375 51.207031 70.890625 C 46.429688 74.496094 41.945312 79.535156 38.238281 85.46875 C 36.941406 87.199219 36.066406 89.269531 35.765625 91.316406 L 36.019531 91.503906 C 36.707031 91.386719 37.359375 91.074219 37.910156 90.601562 C 42.527344 86.949219 46.964844 82.039062 51.101562 76.007812 Z M 73.695312 56.84375 C 81.289062 54.0625 87.621094 48.949219 91.601562 45.152344 C 93.394531 43.78125 94.550781 41.910156 94.875 39.871094 L 94.8125 39.761719 L 94.277344 39.390625 C 93.101562 39.324219 91.933594 39.507812 90.808594 39.933594 L 90.804688 39.9375 C 84.660156 42.09375 78.445312 46.230469 73.304688 51.582031 C 71.574219 52.984375 70.449219 54.972656 70.265625 56.933594 L 70.820312 57.320312 C 71.804688 57.386719 72.769531 57.222656 73.695312 56.84375 Z M 114.710938 61.488281 C 109.089844 60.589844 103.636719 64.199219 100.410156 67.871094 C 97.992188 70.234375 97.363281 73.121094 98.628906 76.011719 C 99.316406 76.847656 100.191406 77.417969 101.230469 77.703125 C 106.070312 78.308594 111.421875 75.957031 115.523438 71.417969 C 117.222656 69.78125 118.148438 67.890625 118.140625 66.078125 C 118.132812 64.625 117.53125 63.316406 116.355469 62.195312 Z M 316.777344 112.199219 C 313.898438 106.664062 308.035156 101.574219 301.976562 103.46875 C 296.726562 107.117188 297.722656 114.726562 300.871094 120.261719 C 304 125.792969 309.5 130.914062 315.515625 128.722656 C 316.746094 128.050781 317.695312 127.042969 318.3125 125.738281 C 319.742188 121.738281 319.199219 116.925781 316.777344 112.199219 Z M 307.785156 325.703125 L 307.953125 325.695312 L 308.433594 325.519531 C 310.484375 324.097656 312.234375 322.1875 313.503906 319.992188 L 313.515625 319.976562 C 314.105469 319.171875 314.476562 318.238281 314.589844 317.269531 L 314.523438 317.144531 L 314.246094 317.121094 L 313.75 317.304688 C 311.667969 318.761719 309.902344 320.71875 308.644531 322.960938 C 308.089844 323.75 307.746094 324.675781 307.660156 325.585938 L 307.710938 325.671875 C 307.734375 325.6875 307.757812 325.699219 307.785156 325.703125 Z M 328.355469 163.304688 C 332.886719 159.660156 332.945312 152.679688 331.085938 147.722656 L 331.082031 147.71875 C 329.777344 143.691406 325.980469 137.363281 319.964844 139.152344 C 315.230469 142.902344 315.59375 150.042969 317.34375 155.019531 C 318.65625 158.957031 322.441406 165.117188 328.355469 163.304688 Z M 318.265625 236.375 L 318.265625 236.371094 C 318.285156 235.648438 318.085938 234.953125 317.691406 234.359375 C 317.496094 234.097656 317.246094 233.9375 316.925781 233.878906 C 316.574219 233.84375 316.226562 233.933594 315.910156 234.132812 C 314.316406 235.421875 313.457031 237.292969 313.515625 239.398438 C 313.503906 240.3125 313.847656 241.128906 314.488281 241.703125 L 314.90625 241.851562 C 315.253906 241.878906 315.574219 241.796875 315.871094 241.59375 C 317.421875 240.3125 318.277344 238.453125 318.265625 236.375 Z M 314.753906 270.910156 L 314.640625 270.859375 L 314.492188 270.863281 L 314.292969 270.953125 C 313.585938 271.523438 313.097656 272.335938 312.914062 273.242188 C 312.8125 273.582031 312.855469 273.910156 313.035156 274.164062 L 313.140625 274.210938 L 313.296875 274.207031 L 313.515625 274.125 C 314.253906 273.574219 314.75 272.796875 314.9375 271.878906 C 314.996094 271.59375 314.96875 271.300781 314.855469 271.035156 Z M 289.136719 347.835938 C 289.292969 347.792969 289.441406 347.734375 289.582031 347.660156 C 291.710938 346.339844 293.6875 344.75 295.449219 342.9375 L 295.453125 342.929688 C 296.136719 342.296875 296.722656 341.574219 297.199219 340.78125 L 297.207031 340.757812 L 297.175781 340.6875 L 297.027344 340.699219 L 296.535156 340.878906 C 294.355469 342.167969 292.351562 343.78125 290.59375 345.652344 C 289.917969 346.277344 289.367188 347.023438 288.976562 347.824219 L 288.980469 347.839844 Z M 304.308594 173.128906 C 307.679688 170.410156 308.867188 165.480469 307.265625 160.855469 C 306.492188 158.523438 304.992188 156.710938 303.148438 155.882812 C 301.632812 155.203125 299.953125 155.21875 298.289062 155.929688 C 294.996094 158.753906 293.894531 163.625 295.492188 168.351562 C 296.242188 170.636719 297.703125 172.402344 299.503906 173.207031 C 301.003906 173.875 302.664062 173.847656 304.308594 173.128906 Z M 305.0625 305.378906 C 305.171875 305.386719 305.289062 305.359375 305.394531 305.292969 C 306.175781 304.722656 306.765625 303.925781 307.097656 303 L 307.101562 302.988281 C 307.210938 302.730469 307.25 302.445312 307.214844 302.179688 L 307.152344 302.078125 L 307.0625 302.039062 L 306.914062 302.042969 L 306.671875 302.136719 C 305.894531 302.671875 305.296875 303.46875 304.988281 304.421875 C 304.832031 304.746094 304.828125 305.070312 304.96875 305.335938 L 305.058594 305.378906 Z M 320.132812 320.507812 L 320.167969 320.507812 L 320.738281 320.261719 C 323.421875 318.136719 325.898438 315.414062 328.53125 311.703125 L 328.535156 311.695312 C 329.671875 310.289062 330.457031 308.617188 330.804688 306.859375 L 330.734375 306.429688 L 330.527344 306.351562 C 330.332031 306.378906 330.140625 306.453125 329.964844 306.574219 C 326.742188 309.382812 324.199219 312.738281 322.144531 315.648438 C 321.113281 316.992188 320.347656 318.546875 319.921875 320.148438 C 319.925781 320.253906 319.953125 320.347656 319.996094 320.441406 Z M 335.175781 233.425781 C 335.738281 233.59375 336.277344 233.515625 336.789062 233.1875 C 339.351562 230.726562 340.761719 227.195312 340.832031 222.992188 L 340.832031 222.976562 C 341.101562 220.667969 340.328125 218.566406 338.707031 217.207031 L 337.863281 217.097656 C 337.574219 217.136719 337.273438 217.238281 337 217.402344 C 334.292969 219.753906 332.824219 223.449219 332.890625 227.789062 C 332.835938 229.691406 333.378906 231.484375 334.460938 232.980469 Z M 357.664062 258.203125 L 358.015625 258.183594 L 358.152344 258.113281 C 361.808594 253.910156 363.523438 248.027344 364.320312 243.828125 L 364.320312 243.820312 C 365.101562 240.375 365.757812 236.34375 364.71875 232.550781 C 364.671875 232.496094 364.621094 232.453125 364.558594 232.421875 L 364.277344 232.378906 L 364.003906 232.457031 C 360.777344 235.933594 359.640625 240.78125 358.542969 245.472656 C 358.378906 246.175781 358.214844 246.871094 358.046875 247.554688 C 356.933594 251.773438 356.722656 254.980469 357.351562 257.949219 Z M 345.738281 289.113281 L 345.96875 288.996094 C 349.058594 285.765625 351.726562 281.40625 353.679688 276.382812 L 353.683594 276.375 C 355.101562 273.113281 355.945312 270.101562 356.257812 267.167969 L 356.140625 266.828125 L 356.089844 266.785156 L 355.914062 266.792969 L 355.679688 266.894531 C 351.914062 270.699219 349.800781 276.082031 348.097656 280.410156 C 346.65625 283.066406 345.742188 285.996094 345.445312 288.902344 L 345.597656 289.132812 Z M 331.976562 266.886719 L 332.617188 266.652344 C 334.820312 264.707031 336.304688 262.101562 336.902344 259.113281 L 336.90625 259.097656 C 337.289062 257.773438 337.164062 256.421875 336.542969 255.195312 L 336.136719 254.859375 L 335.632812 254.792969 C 335.417969 254.839844 335.207031 254.921875 335.011719 255.027344 C 332.835938 257.039062 331.367188 259.71875 330.796875 262.753906 C 330.453125 264.046875 330.566406 265.382812 331.105469 266.535156 L 331.496094 266.839844 C 331.652344 266.894531 331.808594 266.90625 331.976562 266.886719 Z M 335.660156 293.023438 L 336.105469 293.160156 C 336.34375 293.109375 336.570312 293.019531 336.78125 292.902344 C 339.5 290.5 341.777344 287.144531 343.71875 282.65625 L 343.722656 282.640625 C 344.71875 280.828125 345.167969 278.816406 345.023438 276.820312 L 344.75 276.242188 L 344.453125 276.070312 C 344.164062 276.046875 343.898438 276.132812 343.660156 276.285156 C 340.6875 278.914062 338.289062 282.507812 336.558594 286.953125 C 335.554688 288.871094 335.222656 291 335.613281 292.972656 Z M 353.625 204.167969 C 350.378906 207.066406 348.808594 211.964844 348.957031 218.730469 C 348.625 222.445312 349.398438 225.597656 351.203125 227.867188 L 351.945312 228.09375 C 352.289062 228.042969 352.621094 227.957031 352.9375 227.835938 C 357.40625 224.722656 358.128906 218.671875 358.253906 213.75 L 358.253906 213.742188 C 358.480469 211.03125 358.222656 207.199219 355.726562 204.347656 C 355.039062 203.929688 354.328125 203.871094 353.625 204.167969 Z M 270.605469 44.019531 C 270.335938 46.839844 273.382812 50.230469 275.988281 52.578125 C 279.703125 55.914062 287.121094 61.425781 294.980469 60.941406 C 296.238281 60.167969 296.910156 59.140625 296.972656 57.890625 C 297.117188 55.074219 294.203125 51.542969 291.4375 49.453125 L 291.429688 49.449219 C 284.40625 43.390625 278.296875 40.628906 272.726562 41.019531 C 271.429688 41.816406 270.714844 42.824219 270.605469 44.019531 Z M 305.273438 50.570312 C 300.453125 46.546875 295.25 42.472656 289.335938 40.746094 C 289.035156 40.699219 288.722656 40.703125 288.398438 40.765625 L 288.125 40.972656 L 288.058594 41.136719 L 288.230469 41.945312 C 289.726562 44.671875 291.691406 47.074219 294.078125 49.078125 C 298.355469 52.867188 304.050781 57.410156 310.214844 58.964844 C 310.46875 59 310.738281 58.988281 311.007812 58.914062 L 311.25 58.535156 C 310.132812 55.761719 308.175781 53.15625 305.273438 50.570312 Z M 312.054688 194.472656 C 311.488281 194.472656 310.941406 194.636719 310.4375 194.960938 C 307.933594 197.238281 306.964844 200.433594 307.730469 203.945312 C 307.929688 205.210938 308.484375 206.367188 309.34375 207.300781 C 310.074219 207.964844 310.984375 208.222656 311.960938 208.027344 L 312.9375 207.625 C 315.449219 205.503906 316.492188 202.277344 315.792969 198.765625 L 315.792969 198.757812 C 315.476562 196.648438 314.242188 195.132812 312.324219 194.488281 C 312.234375 194.480469 312.144531 194.472656 312.054688 194.472656 Z M 291.667969 332.207031 L 291.679688 332.207031 C 291.820312 332.207031 291.957031 332.167969 292.082031 332.089844 C 293.171875 331.453125 294.105469 330.554688 294.796875 329.488281 L 294.800781 329.480469 C 295 329.203125 295.128906 328.882812 295.179688 328.546875 L 295.148438 328.453125 L 295.085938 328.414062 C 295.046875 328.40625 295.003906 328.414062 294.957031 328.425781 L 294.652344 328.542969 C 293.597656 329.183594 292.667969 330.09375 291.988281 331.15625 C 291.785156 331.441406 291.652344 331.761719 291.597656 332.09375 L 291.621094 332.175781 Z M 320.746094 94.195312 C 320.609375 94.195312 320.472656 94.199219 320.332031 94.207031 C 319.875 94.351562 319.4375 94.625 319.070312 95.015625 C 316 99.964844 318.386719 106.144531 320.9375 110.457031 C 324.101562 116.144531 328.527344 122.597656 334.847656 121.9375 C 339.527344 118.539062 337.226562 111.359375 334.46875 105.929688 L 334.46875 105.921875 C 331.785156 100.023438 326.539062 94.195312 320.746094 94.195312 Z M 366.328125 195.933594 L 366.007812 196 L 365.828125 196.089844 C 362.738281 199.847656 362.378906 205.507812 362.0625 210.5 C 362.023438 211.066406 361.988281 211.621094 361.953125 212.164062 C 361.648438 217.175781 362.222656 220.960938 363.757812 224.0625 L 364.214844 224.433594 L 364.660156 224.476562 C 364.714844 224.464844 364.800781 224.441406 364.886719 224.398438 L 365.085938 224.273438 C 367.589844 220.695312 368.925781 215.683594 369.164062 208.953125 C 369.28125 204.992188 369.140625 200.402344 367.179688 196.398438 C 366.96875 196.140625 366.683594 195.976562 366.328125 195.933594 Z M 297.046875 80.503906 C 292.253906 74.140625 286.804688 71.953125 282.535156 71.953125 C 281.234375 71.953125 280.039062 72.15625 279.007812 72.507812 C 277.160156 73.636719 276.003906 75.222656 275.617188 77.203125 C 274.691406 81.921875 278.265625 87.21875 279.382812 88.730469 C 283.453125 94.171875 290.855469 98.9375 297.5 96.527344 C 299.347656 95.355469 300.480469 93.722656 300.835938 91.691406 C 301.503906 87.894531 299.316406 83.421875 297.050781 80.507812 Z M 264.410156 29.230469 L 264.40625 29.230469 C 259.535156 26.542969 252.21875 23.03125 245.011719 23.554688 C 244.398438 23.621094 243.8125 23.84375 243.316406 24.207031 C 243.136719 24.347656 243 24.519531 242.910156 24.71875 L 242.8125 25.324219 C 243.988281 28.074219 246.121094 30.324219 248.972656 31.839844 C 254.128906 34.859375 261.746094 38.300781 268.691406 37.550781 C 269.144531 37.453125 269.605469 37.292969 270.03125 37.078125 L 270.664062 36.339844 C 270.722656 36.15625 270.738281 35.957031 270.714844 35.753906 C 269.457031 33.042969 267.277344 30.789062 264.410156 29.230469 Z M 277.53125 351.640625 C 277.878906 351.375 278.214844 351.097656 278.523438 350.8125 L 278.53125 350.804688 C 278.816406 350.5625 279.066406 350.265625 279.253906 349.941406 L 279.253906 349.910156 C 279.089844 349.921875 278.933594 349.960938 278.785156 350.03125 C 277.460938 350.644531 276.25 351.464844 275.179688 352.46875 C 274.886719 352.71875 274.632812 353.015625 274.445312 353.335938 L 274.441406 353.347656 C 274.601562 353.34375 274.761719 353.304688 274.910156 353.230469 C 275.84375 352.808594 276.726562 352.273438 277.53125 351.640625 Z M 291.5625 252.570312 L 291.5625 252.566406 C 291.566406 252.277344 291.449219 252.054688 291.21875 251.921875 L 291.058594 251.894531 L 290.875 251.921875 L 290.648438 252.023438 C 290.082031 252.445312 289.765625 253.097656 289.785156 253.847656 C 289.792969 254.003906 289.839844 254.152344 289.917969 254.292969 L 290.03125 254.417969 L 290.1875 254.511719 C 290.335938 254.554688 290.515625 254.527344 290.679688 254.410156 C 291.242188 253.964844 291.5625 253.308594 291.5625 252.570312 Z M 272.179688 107.570312 C 274.183594 106.152344 275.445312 104.132812 275.808594 101.738281 C 276.265625 98.695312 275.242188 95.195312 273.070312 92.375 C 270.457031 88.996094 266.277344 86.449219 262 86.449219 C 260.289062 86.449219 258.5625 86.855469 256.910156 87.78125 C 254.984375 89.152344 253.761719 91.117188 253.390625 93.445312 C 252.894531 96.535156 253.898438 100.140625 256.078125 103.09375 C 260.738281 109.207031 267.710938 109.96875 272.179688 107.570312 Z M 254.277344 62.0625 C 261.914062 69.078125 270.160156 69.648438 274.902344 68 C 276.855469 66.898438 277.9375 65.320312 278.097656 63.320312 C 278.375 59.742188 275.65625 55.859375 273.007812 53.769531 L 273 53.761719 C 268.980469 50.128906 263.171875 46.871094 257.382812 46.871094 C 255.765625 46.871094 254.152344 47.125 252.578125 47.695312 C 250.574219 48.628906 249.351562 50.339844 249.15625 52.511719 C 249.503906 56.011719 251.226562 59.238281 254.277344 62.0625 Z M 179.882812 167.066406 L 179.699219 166.96875 C 179.355469 166.890625 179.011719 166.988281 178.726562 167.269531 C 178.308594 167.726562 178.230469 168.25 178.511719 168.78125 L 178.648438 168.917969 L 178.8125 169.003906 C 179.183594 169.089844 179.527344 168.988281 179.800781 168.710938 C 180.226562 168.257812 180.300781 167.734375 180.019531 167.203125 Z M 181.972656 110.988281 C 180.355469 112.585938 179.949219 114.621094 180.835938 116.710938 L 181.457031 117.484375 C 183.738281 119.050781 186.171875 118.902344 188.3125 117.066406 C 190.304688 115.015625 190.5 112.695312 188.855469 110.542969 C 186.542969 108.988281 184.097656 109.148438 181.972656 110.988281 Z M 185.714844 252.667969 C 185.632812 252.742188 185.609375 252.824219 185.632812 252.925781 L 185.648438 252.9375 L 185.683594 252.941406 C 185.683594 252.9375 185.714844 252.925781 185.738281 252.902344 C 185.816406 252.832031 185.84375 252.746094 185.820312 252.648438 L 185.78125 252.625 C 185.777344 252.628906 185.746094 252.640625 185.714844 252.667969 Z M 282.621094 356.464844 C 283.855469 355.742188 285.085938 355.019531 286.292969 354.308594 L 286.429688 354.226562 C 287.648438 353.503906 288.8125 352.675781 289.894531 351.757812 C 288.96875 352.355469 288.042969 352.960938 287.113281 353.566406 C 285.648438 354.527344 284.144531 355.515625 282.621094 356.464844 Z M 312.257812 331.875 L 312.28125 331.675781 L 312.238281 331.675781 C 312.070312 331.726562 311.910156 331.804688 311.761719 331.894531 C 309.269531 333.8125 306.917969 335.984375 304.648438 338.085938 C 304.199219 338.5 303.753906 338.914062 303.304688 339.328125 C 302.125 340.367188 301.101562 341.546875 300.25 342.839844 C 300.402344 342.789062 300.542969 342.71875 300.683594 342.632812 C 303.339844 340.800781 306.09375 338.558594 309.09375 335.777344 L 309.097656 335.777344 C 310.347656 334.644531 311.410156 333.332031 312.257812 331.875 Z M 199.742188 34.152344 C 199.4375 31.625 197.296875 29.441406 194.292969 28.589844 L 194.28125 28.589844 C 186.683594 25.835938 178.207031 26.425781 172.160156 30.128906 C 169.507812 31.742188 168.398438 34.210938 169.042969 37.085938 C 170.214844 39.128906 172.011719 40.671875 174.230469 41.546875 C 181.386719 44.164062 189.90625 43.445312 196.460938 39.671875 C 198.808594 38.34375 200.003906 36.332031 199.742188 34.15625 Z M 258.410156 140.699219 C 257.296875 140.699219 256.148438 141.023438 255.039062 141.699219 C 252.242188 144.3125 251.601562 148.152344 253.394531 151.707031 C 255.375 154.964844 258.859375 155.886719 262.0625 153.984375 C 264.992188 151.433594 265.671875 147.617188 263.820312 144.042969 C 262.476562 141.859375 260.503906 140.699219 258.410156 140.699219 Z M 195.0625 61.886719 C 192.875 60.679688 190.417969 60.082031 187.964844 60.082031 C 184.691406 60.082031 181.417969 61.140625 178.757812 63.199219 C 176.710938 64.863281 175.550781 67.285156 175.660156 69.667969 C 175.761719 71.867188 176.898438 73.808594 178.867188 75.128906 C 183.882812 78.097656 190.433594 77.609375 195.164062 73.902344 C 197.460938 72.117188 198.570312 69.65625 198.378906 66.785156 C 197.941406 64.769531 196.789062 63.066406 195.0625 61.886719 Z M 269.441406 362.550781 C 268.78125 362.929688 268.160156 363.371094 267.589844 363.859375 C 267.609375 363.851562 267.628906 363.839844 267.652344 363.832031 C 269.9375 362.722656 272.179688 361.480469 274.328125 360.140625 L 274.332031 360.136719 C 275.015625 359.738281 275.675781 359.292969 276.296875 358.8125 L 276.257812 358.828125 C 273.902344 359.910156 271.613281 361.160156 269.441406 362.550781 Z M 168.164062 46.390625 C 166.34375 45.761719 164.414062 45.457031 162.46875 45.457031 C 158.058594 45.457031 153.570312 47.023438 150.074219 49.945312 C 147.894531 51.683594 146.726562 54.210938 147.015625 56.546875 C 147.269531 58.585938 148.589844 60.246094 150.738281 61.214844 C 156.542969 63.257812 163.683594 61.851562 168.917969 57.640625 C 171.296875 55.84375 172.453125 53.28125 172.179688 50.421875 C 171.558594 48.476562 170.167969 47.070312 168.164062 46.386719 Z M 155.378906 90.183594 C 152.972656 92.683594 152.878906 95.332031 155.113281 97.835938 C 158.25 99.320312 161.550781 98.734375 164.179688 96.226562 C 166.640625 93.691406 166.746094 90.957031 164.472656 88.523438 C 161.347656 87.074219 157.949219 87.691406 155.378906 90.183594 Z M 353.535156 279.816406 C 352.738281 281.699219 351.910156 283.640625 351.195312 285.597656 C 353.824219 281.609375 356.058594 277.363281 357.832031 272.960938 L 357.835938 272.953125 C 358.050781 272.480469 358.265625 272.003906 358.484375 271.527344 C 359.925781 268.375 361.414062 265.121094 362.023438 261.703125 C 359.238281 266.332031 357.066406 271.28125 355.304688 275.535156 C 354.742188 276.972656 354.128906 278.417969 353.535156 279.816406 Z M 313.117188 333.671875 C 311.742188 334.871094 310.414062 336.125 309.148438 337.425781 C 311.816406 335.1875 314.800781 332.605469 317.679688 329.808594 C 319.390625 328.03125 321.046875 326.164062 322.617188 324.25 C 319.019531 327.316406 315.796875 330.726562 313.117188 333.671875 Z M 339.265625 304.71875 C 342.09375 300.785156 344.6875 296.929688 347.019531 293.402344 C 344.144531 297.363281 341.660156 300.984375 339.464844 304.410156 C 339.398438 304.511719 339.332031 304.613281 339.265625 304.71875 Z M 199.578125 195.761719 C 199.304688 195.738281 199.03125 195.824219 198.8125 196.035156 C 198.367188 196.476562 198.25 197.011719 198.472656 197.582031 L 198.589844 197.726562 L 198.734375 197.828125 L 198.917969 197.890625 C 199.167969 197.910156 199.453125 197.824219 199.675781 197.621094 C 200.125 197.179688 200.242188 196.640625 200.003906 196.066406 C 199.90625 195.902344 199.761719 195.800781 199.578125 195.761719 Z M 169.964844 224.476562 L 169.933594 224.464844 C 169.921875 224.46875 169.882812 224.484375 169.851562 224.519531 C 169.773438 224.597656 169.753906 224.6875 169.789062 224.785156 L 169.804688 224.796875 L 169.835938 224.804688 C 169.847656 224.804688 169.886719 224.789062 169.917969 224.757812 C 169.996094 224.675781 170.019531 224.589844 169.980469 224.488281 Z M 341.605469 297.816406 C 338.046875 301.164062 335.28125 305.378906 332.824219 309.433594 C 331.128906 311.535156 329.742188 313.824219 328.6875 316.246094 C 328.78125 316.210938 328.867188 316.167969 328.941406 316.101562 C 332.289062 312.925781 335.277344 309.324219 337.804688 305.40625 L 337.8125 305.398438 C 339.5 303.046875 340.898438 300.394531 341.851562 297.726562 Z M 244.023438 111.632812 C 242.214844 109.492188 239.800781 108.378906 237.355469 108.378906 C 235.722656 108.378906 234.078125 108.875 232.589844 109.890625 C 229.210938 112.855469 228.714844 117.535156 231.398438 121.261719 C 234.339844 124.78125 239 125.496094 242.734375 122.992188 C 246.160156 120.035156 246.707031 115.253906 244.023438 111.632812 Z M 246.410156 201.050781 C 246.289062 201.019531 246.164062 201.003906 246.035156 201.003906 C 245.632812 201.003906 245.199219 201.152344 244.734375 201.449219 C 243.605469 202.488281 243.21875 203.882812 243.667969 205.355469 C 244.023438 206.171875 244.679688 206.566406 245.585938 206.492188 C 245.933594 206.429688 246.265625 206.28125 246.5625 206.054688 C 247.722656 205.050781 248.121094 203.667969 247.679688 202.167969 C 247.332031 201.550781 246.902344 201.171875 246.410156 201.050781 Z M 231.917969 168.519531 C 231.238281 167.628906 230.460938 167.183594 229.613281 167.183594 C 229 167.183594 228.347656 167.417969 227.671875 167.890625 C 226.261719 169.257812 225.90625 171.089844 226.714844 172.894531 C 227.84375 174.351562 229.351562 174.578125 230.933594 173.507812 C 232.386719 172.113281 232.742188 170.339844 231.917969 168.519531 Z M 232.515625 340.136719 C 232.550781 340.140625 232.570312 340.144531 232.59375 340.132812 L 232.527344 340.105469 Z M 158.269531 277.535156 C 158.28125 277.53125 158.296875 277.527344 158.304688 277.515625 L 158.261719 277.519531 Z M 206.296875 137.195312 C 204.632812 138.898438 204.367188 140.960938 205.558594 142.992188 C 207.203125 144.613281 209.15625 144.699219 211.0625 143.238281 C 212.761719 141.550781 213.035156 139.492188 211.824219 137.445312 C 210.117188 135.8125 208.203125 135.726562 206.296875 137.195312 Z M 235.421875 316.5 L 235.421875 316.511719 C 235.472656 316.519531 235.488281 316.511719 235.503906 316.503906 Z M 227.21875 258.714844 C 227.1875 258.71875 227.121094 258.742188 227.0625 258.785156 C 226.882812 258.921875 226.804688 259.109375 226.835938 259.328125 L 226.910156 259.417969 L 226.972656 259.433594 C 227.007812 259.429688 227.070312 259.410156 227.128906 259.367188 C 227.304688 259.230469 227.382812 259.042969 227.359375 258.824219 L 227.28125 258.730469 Z M 235.378906 316.355469 C 235.375 316.355469 235.375 316.355469 235.371094 316.355469 C 235.355469 316.355469 235.339844 316.359375 235.324219 316.371094 L 235.378906 316.375 Z M 215.753906 227.089844 L 215.675781 227.015625 L 215.585938 226.976562 L 215.457031 226.957031 C 215.347656 226.964844 215.214844 227.015625 215.101562 227.113281 C 214.785156 227.398438 214.671875 227.761719 214.777344 228.167969 L 214.839844 228.269531 L 214.917969 228.34375 L 215.007812 228.386719 L 215.132812 228.402344 C 215.246094 228.394531 215.378906 228.34375 215.492188 228.25 C 215.808594 227.964844 215.921875 227.597656 215.816406 227.191406 Z M 257.503906 236.371094 L 257.351562 236.261719 L 257.167969 236.199219 L 256.945312 236.191406 C 256.800781 236.21875 256.648438 236.277344 256.507812 236.378906 C 255.910156 236.871094 255.644531 237.570312 255.761719 238.339844 L 255.855469 238.5625 L 255.980469 238.742188 L 256.140625 238.863281 L 256.316406 238.921875 L 256.542969 238.925781 C 256.6875 238.90625 256.84375 238.839844 256.980469 238.738281 C 257.582031 238.257812 257.851562 237.5625 257.730469 236.792969 C 257.6875 236.636719 257.613281 236.492188 257.503906 236.371094 Z M 258.714844 358.667969 L 258.71875 358.664062 C 258.792969 358.589844 258.851562 358.507812 258.902344 358.421875 C 258.84375 358.429688 258.78125 358.449219 258.726562 358.476562 C 258.109375 358.757812 257.558594 359.148438 257.089844 359.636719 C 257.039062 359.695312 256.988281 359.757812 256.941406 359.820312 C 256.988281 359.8125 257.035156 359.796875 257.082031 359.78125 C 257.703125 359.546875 258.265625 359.164062 258.714844 358.667969 Z M 213.359375 81.148438 C 211.027344 81.148438 208.695312 81.871094 206.710938 83.332031 C 204.839844 84.890625 203.753906 87.007812 203.660156 89.285156 C 203.566406 91.523438 204.457031 93.683594 206.167969 95.359375 C 210.121094 98.710938 215.871094 98.949219 220.136719 95.929688 C 221.988281 94.421875 223.078125 92.351562 223.203125 90.109375 C 223.332031 87.832031 222.457031 85.613281 220.742188 83.859375 C 218.601562 82.058594 215.976562 81.148438 213.359375 81.148438 Z M 222.6875 43.476562 L 222.679688 43.472656 C 219.058594 41.335938 215.027344 40.253906 211.148438 40.253906 C 207.789062 40.253906 204.546875 41.066406 201.792969 42.703125 C 199.539062 44.101562 198.304688 46.179688 198.3125 48.554688 C 198.324219 51.402344 200.089844 54.242188 202.914062 55.96875 C 209.410156 59.84375 217.898438 60.136719 224.027344 56.699219 C 226.347656 55.269531 227.585938 53.117188 227.507812 50.644531 C 227.414062 47.753906 225.566406 45.007812 222.6875 43.476562 Z M 249.378906 64.890625 L 249.375 64.886719 C 246.300781 62.15625 241.765625 60.046875 237.164062 60.046875 C 234.835938 60.046875 232.492188 60.585938 230.3125 61.855469 C 228.304688 63.167969 227.023438 65.117188 226.613281 67.484375 C 226.453125 70.914062 227.894531 74.285156 230.566406 76.714844 C 236.109375 81.640625 243.972656 82.871094 249.6875 79.695312 C 252.519531 77.808594 253.238281 75.277344 253.34375 73.488281 C 253.523438 70.421875 252.003906 67.128906 249.378906 64.890625 Z M 255.566406 367.898438 C 255.347656 368.003906 255.136719 368.121094 254.941406 368.246094 C 256.410156 367.78125 257.800781 367.136719 259.089844 366.320312 L 259.09375 366.316406 C 259.425781 366.125 259.730469 365.890625 259.996094 365.621094 C 259.929688 365.640625 259.867188 365.660156 259.804688 365.6875 C 258.363281 366.332031 256.9375 367.078125 255.566406 367.898438 Z M 262.890625 270.285156 C 262.886719 270.289062 262.851562 270.304688 262.820312 270.324219 C 262.640625 270.460938 262.539062 270.660156 262.546875 270.894531 L 262.601562 270.988281 L 262.652344 270.992188 C 262.65625 270.988281 262.691406 270.976562 262.722656 270.953125 C 262.898438 270.820312 262.996094 270.628906 263 270.398438 L 262.941406 270.289062 Z M 140.746094 37.128906 C 134.4375 36.355469 127.121094 38.804688 121.644531 43.519531 C 119.679688 45.007812 118.53125 46.871094 118.496094 48.644531 C 118.464844 50.070312 119.148438 51.40625 120.472656 52.507812 C 121.097656 52.789062 121.761719 52.988281 122.441406 53.09375 C 129.183594 54.132812 136.6875 51.855469 142.03125 47.15625 C 144.347656 45.296875 145.4375 42.742188 145.109375 39.945312 C 144.167969 38.390625 142.617188 37.390625 140.746094 37.128906 Z M 372.761719 193.363281 C 371.417969 197.527344 370.730469 202.359375 370.609375 208.558594 C 370.597656 209.621094 370.5625 210.710938 370.527344 211.765625 C 370.40625 215.34375 370.28125 219.039062 371.058594 222.558594 L 371.226562 222.722656 L 371.449219 222.535156 C 373.316406 218.167969 373.628906 213.34375 373.933594 208.683594 L 373.992188 207.847656 C 374.414062 202.832031 374.851562 197.644531 373.101562 193.03125 Z M 373.53125 173.679688 L 373.386719 173.695312 L 373.535156 173.695312 C 373.535156 173.691406 373.535156 173.683594 373.53125 173.679688 Z M 158.148438 277.457031 L 158.183594 277.445312 L 158.15625 277.414062 C 158.148438 277.421875 158.144531 277.445312 158.148438 277.457031 Z M 157.230469 142.285156 L 157.136719 142.214844 C 156.835938 142.121094 156.550781 142.203125 156.324219 142.453125 C 156.09375 142.703125 156.035156 143 156.144531 143.308594 L 156.222656 143.402344 L 156.320312 143.472656 C 156.621094 143.570312 156.894531 143.488281 157.121094 143.246094 C 157.347656 142.988281 157.410156 142.691406 157.304688 142.378906 Z M 370.609375 227.984375 C 368.125 233.132812 366.761719 238.824219 365.851562 243.210938 C 365.632812 244.410156 365.375 245.628906 365.125 246.8125 C 364.503906 249.742188 363.867188 252.769531 363.730469 255.789062 L 363.734375 255.789062 C 366.367188 251.4375 367.664062 246.324219 368.765625 241.457031 L 368.769531 241.453125 L 369.03125 240.414062 C 370.078125 236.34375 371.160156 232.140625 370.652344 227.964844 Z M 150.996094 198.183594 C 151.003906 198.179688 151.007812 198.175781 151.011719 198.171875 C 151.039062 198.140625 151.046875 198.113281 151.042969 198.089844 C 151.039062 198.09375 151.035156 198.097656 151.03125 198.101562 C 151.003906 198.132812 150.996094 198.160156 150.996094 198.183594 Z M 158.246094 277.519531 L 158.246094 277.535156 C 158.253906 277.535156 158.261719 277.535156 158.269531 277.53125 L 158.253906 277.519531 Z M 134.433594 121.226562 L 134.195312 120.992188 L 133.886719 120.835938 C 133.019531 120.683594 132.214844 121 131.625 121.730469 C 131.140625 122.289062 130.957031 122.960938 131.097656 123.675781 L 131.246094 123.964844 L 131.476562 124.199219 L 131.773438 124.351562 C 132.652344 124.484375 133.460938 124.171875 134.050781 123.460938 C 134.542969 122.902344 134.730469 122.214844 134.585938 121.519531 Z M 373.226562 173.710938 C 373.164062 173.175781 373.109375 172.628906 373.050781 172.074219 C 372.554688 167.351562 371.996094 162.007812 369.308594 158.074219 L 369.246094 158.082031 C 367.71875 162.625 368.433594 167.914062 369.296875 172.945312 L 369.394531 173.746094 C 369.964844 178.523438 370.550781 183.464844 372.601562 187.863281 L 372.875 188.046875 L 372.960938 188.007812 C 374.476562 183.5 373.84375 178.539062 373.226562 173.738281 Z M 373.886719 174.007812 C 374.050781 175.550781 374.234375 177.117188 374.414062 178.636719 C 374.582031 180.078125 374.753906 181.539062 374.914062 183.007812 C 374.617188 178.304688 374.089844 173.742188 373.492188 169.546875 C 373.636719 171.019531 373.769531 172.507812 373.886719 174.007812 Z M 139.777344 72.082031 C 138.78125 71.777344 137.757812 71.632812 136.734375 71.632812 C 133.523438 71.632812 130.285156 73.089844 127.800781 75.765625 C 125.78125 77.785156 125.101562 80.332031 125.882812 82.941406 C 126.324219 83.699219 127 84.324219 127.824219 84.710938 C 131.777344 85.96875 136.367188 84.582031 139.792969 81.09375 C 141.929688 79.066406 142.636719 76.5 141.789062 73.867188 C 141.316406 73.105469 140.632812 72.492188 139.777344 72.082031 Z M 158.277344 277.421875 L 158.257812 277.4375 L 158.253906 277.457031 L 158.289062 277.429688 C 158.285156 277.425781 158.28125 277.421875 158.277344 277.421875 Z M 158.210938 277.394531 L 158.207031 277.394531 L 158.222656 277.429688 L 158.246094 277.40625 C 158.230469 277.398438 158.222656 277.394531 158.210938 277.394531 Z M 158.210938 277.394531 " fill-opacity="1" fill-rule="nonzero"/></g><path stroke-linecap="butt" transform="matrix(0.950027, 0, 0, 0.950027, -3.649906, 114.828626)" fill="none" stroke-linejoin="miter" d="M 56.685765 26.750345 L 19.223853 26.750345 C 18.084906 26.750345 17.18855 27.650812 17.18855 28.78976 L 17.18855 81.962566 C 17.18855 83.101514 18.16714 84.001981 19.223853 84.001981 L 32.064765 84.001981 C 33.142036 84.001981 34.120627 83.101514 34.120627 81.962566 L 34.120627 62.415433 L 52.352008 62.415433 C 53.490955 62.415433 54.387311 61.514966 54.387311 60.359572 L 54.387311 50.392754 C 54.387311 49.233248 53.490955 48.336893 52.352008 48.336893 L 34.120627 48.336893 L 34.120627 40.808327 L 56.685765 40.808327 C 57.742477 40.808327 58.642945 39.911971 58.642945 38.773024 L 58.642945 28.78976 C 58.642945 27.650812 57.742477 26.750345 56.685765 26.750345 Z M 81.623367 26.750345 L 68.864689 26.750345 C 67.725742 26.750345 66.829386 27.650812 66.829386 28.78976 L 66.829386 81.962566 C 66.829386 83.101514 67.725742 84.001981 68.864689 84.001981 L 81.623367 84.001981 C 82.782873 84.001981 83.68334 83.101514 83.68334 81.962566 L 83.68334 28.78976 C 83.68334 27.650812 82.782873 26.750345 81.623367 26.750345 Z M 140.355223 84.001981 C 141.494171 84.001981 142.394638 83.101514 142.394638 81.962566 L 142.394638 28.78976 C 142.394638 27.650812 141.494171 26.750345 140.355223 26.750345 L 127.596546 26.750345 C 126.43704 26.750345 125.540684 27.650812 125.540684 28.78976 L 125.540684 55.865458 C 125.540684 55.865458 109.603644 31.984569 107.889056 29.686115 C 106.170355 27.408221 105.274 26.750345 103.296261 26.750345 L 93.888638 26.750345 C 92.831925 26.750345 91.853334 27.650812 91.853334 28.78976 L 91.853334 81.962566 C 91.853334 83.101514 92.753802 84.001981 93.888638 84.001981 L 106.72955 84.001981 C 107.806821 84.001981 108.785411 83.101514 108.785411 81.962566 L 108.785411 54.385238 L 127.099027 81.962566 C 127.995383 83.261871 128.89585 84.001981 131.272426 84.001981 Z M 208.560491 81.144333 C 207.82038 79.34751 189.831591 30.183634 189.169603 28.78976 C 188.511727 27.408221 188.034768 26.750345 186.554547 26.750345 L 172.817279 26.750345 C 171.341171 26.750345 170.860099 27.408221 170.280346 28.78976 C 169.62247 30.183634 151.629569 79.166594 150.89357 81.144333 C 150.15346 82.941156 150.971693 84.001981 152.369679 84.001981 L 165.609428 84.001981 C 168.064127 84.001981 168.483523 83.179636 169.301756 81.066211 C 169.462113 80.646815 170.041866 79.006237 170.860099 76.391181 L 188.511727 76.391181 C 189.32996 79.006237 189.909713 80.646815 190.070071 81.066211 C 190.966426 83.179636 191.307699 84.001981 193.74184 84.001981 L 207.084382 84.001981 C 208.478256 84.001981 209.218366 82.941156 208.560491 81.144333 Z M 175.354213 62.333199 C 176.830321 57.900761 178.289983 53.250402 179.687969 48.756288 C 181.164078 53.250402 182.619628 57.900761 184.017614 62.333199 Z M 265.483189 84.001981 C 266.618025 84.001981 267.518492 83.101514 267.518492 81.962566 L 267.518492 28.78976 C 267.518492 27.650812 266.618025 26.750345 265.483189 26.750345 L 252.7204 26.750345 C 251.565005 26.750345 250.664538 27.650812 250.664538 28.78976 L 250.664538 55.865458 C 250.664538 55.865458 234.73161 31.984569 233.012909 29.686115 C 231.294209 27.408221 230.397853 26.750345 228.420114 26.750345 L 219.016603 26.750345 C 217.955778 26.750345 216.977188 27.650812 216.977188 28.78976 L 216.977188 81.962566 C 216.977188 83.101514 217.877656 84.001981 219.016603 84.001981 L 231.853403 84.001981 C 232.934787 84.001981 233.913377 83.101514 233.913377 81.962566 L 233.913377 54.385238 L 252.222881 81.962566 C 253.119237 83.261871 254.019704 84.001981 256.39628 84.001981 Z M 319.367324 61.996038 C 317.151105 67.72778 312.656991 70.420959 306.370166 70.420959 C 298.183725 70.420959 292.291625 63.792861 292.291625 55.285705 C 292.291625 46.778549 298.183725 40.17101 306.370166 40.17101 C 312.578868 40.17101 316.990748 42.786066 319.289201 48.336893 C 319.449558 48.834411 320.025199 49.393605 321.00379 49.393605 L 333.926936 49.393605 C 335.164565 49.393605 335.403045 48.336893 335.164565 47.28018 C 331.887521 34.27891 320.506271 25.771755 306.370166 25.771755 C 289.676569 25.771755 275.69671 38.933381 275.69671 55.285705 C 275.69671 71.658587 289.676569 84.898337 306.370166 84.898337 C 320.687187 84.898337 332.047879 76.230824 335.242688 63.05275 C 335.481168 61.996038 335.061772 60.85709 333.926936 60.85709 L 321.164147 60.85709 C 320.267791 60.85709 319.605804 61.255927 319.367324 61.996038 Z M 383.152488 69.92344 L 360.34887 69.92344 L 360.34887 62.415433 L 378.658375 62.415433 C 379.715088 62.415433 380.693678 61.514966 380.693678 60.359572 L 380.693678 50.392754 C 380.693678 49.233248 379.715088 48.336893 378.658375 48.336893 L 360.34887 48.336893 L 360.34887 40.808327 L 382.909897 40.808327 C 383.970721 40.808327 384.949311 39.911971 384.949311 38.773024 L 384.949311 28.78976 C 384.949311 27.650812 383.970721 26.750345 382.909897 26.750345 L 345.530219 26.750345 C 344.391272 26.750345 343.494916 27.650812 343.494916 28.78976 L 343.494916 81.962566 C 343.494916 83.101514 344.391272 84.001981 345.530219 84.001981 L 383.152488 84.001981 C 384.307883 84.001981 385.20835 83.101514 385.20835 81.962566 L 385.20835 71.979302 C 385.20835 70.840355 384.307883 69.92344 383.152488 69.92344 Z M 383.152488 69.92344 " stroke="#000000" stroke-width="10.020121" stroke-opacity="1" stroke-miterlimit="4"/><g fill="#ffffff" fill-opacity="1"><g transform="translate(8.789515, 194.63093)"><g><path d="M 41.414062 -54.390625 L 5.828125 -54.390625 C 4.738281 -54.390625 3.886719 -53.539062 3.886719 -52.449219 L 3.886719 -1.941406 C 3.886719 -0.855469 4.816406 0 5.828125 0 L 18.027344 0 C 19.039062 0 19.96875 -0.855469 19.96875 -1.941406 L 19.96875 -20.511719 L 37.296875 -20.511719 C 38.386719 -20.511719 39.238281 -21.367188 39.238281 -22.457031 L 39.238281 -31.9375 C 39.238281 -33.023438 38.386719 -33.878906 37.296875 -33.878906 L 19.96875 -33.878906 L 19.96875 -41.027344 L 41.414062 -41.027344 C 42.425781 -41.027344 43.28125 -41.882812 43.28125 -42.96875 L 43.28125 -52.449219 C 43.28125 -53.539062 42.425781 -54.390625 41.414062 -54.390625 Z M 41.414062 -54.390625 "/></g></g></g><g fill="#ffffff" fill-opacity="1"><g transform="translate(55.949978, 194.63093)"><g><path d="M 17.949219 -54.390625 L 5.828125 -54.390625 C 4.738281 -54.390625 3.886719 -53.539062 3.886719 -52.449219 L 3.886719 -1.941406 C 3.886719 -0.855469 4.738281 0 5.828125 0 L 17.949219 0 C 19.039062 0 19.890625 -0.855469 19.890625 -1.941406 L 19.890625 -52.449219 C 19.890625 -53.539062 19.039062 -54.390625 17.949219 -54.390625 Z M 17.949219 -54.390625 "/></g></g></g><g fill="#ffffff" fill-opacity="1"><g transform="translate(79.724438, 194.63093)"><g><path d="M 49.960938 0 C 51.050781 0 51.90625 -0.855469 51.90625 -1.941406 L 51.90625 -52.449219 C 51.90625 -53.539062 51.050781 -54.390625 49.960938 -54.390625 L 37.839844 -54.390625 C 36.753906 -54.390625 35.898438 -53.539062 35.898438 -52.449219 L 35.898438 -26.730469 C 35.898438 -26.730469 20.746094 -49.417969 19.113281 -51.59375 C 17.484375 -53.769531 16.628906 -54.390625 14.761719 -54.390625 L 5.828125 -54.390625 C 4.816406 -54.390625 3.886719 -53.539062 3.886719 -52.449219 L 3.886719 -1.941406 C 3.886719 -0.855469 4.738281 0 5.828125 0 L 18.027344 0 C 19.039062 0 19.96875 -0.855469 19.96875 -1.941406 L 19.96875 -28.128906 L 37.375 -1.941406 C 38.230469 -0.699219 39.085938 0 41.335938 0 Z M 49.960938 0 "/></g></g></g><g fill="#ffffff" fill-opacity="1"><g transform="translate(135.508977, 194.63093)"><g><path d="M 58.976562 -2.71875 C 58.277344 -4.429688 41.183594 -51.128906 40.5625 -52.449219 C 39.9375 -53.769531 39.472656 -54.390625 38.074219 -54.390625 L 25.019531 -54.390625 C 23.621094 -54.390625 23.15625 -53.769531 22.613281 -52.449219 C 21.988281 -51.128906 4.894531 -4.585938 4.195312 -2.71875 C 3.496094 -1.011719 4.273438 0 5.59375 0 L 18.183594 0 C 20.511719 0 20.902344 -0.777344 21.679688 -2.796875 C 21.835938 -3.1875 22.378906 -4.738281 23.15625 -7.226562 L 39.9375 -7.226562 C 40.714844 -4.738281 41.261719 -3.1875 41.414062 -2.796875 C 42.269531 -0.777344 42.582031 0 44.914062 0 L 57.578125 0 C 58.898438 0 59.597656 -1.011719 58.976562 -2.71875 Z M 27.429688 -20.589844 C 28.828125 -24.789062 30.226562 -29.214844 31.546875 -33.488281 C 32.945312 -29.214844 34.34375 -24.789062 35.664062 -20.589844 Z M 27.429688 -20.589844 "/></g></g></g><g fill="#ffffff" fill-opacity="1"><g transform="translate(198.59678, 194.63093)"><g><path d="M 49.960938 0 C 51.050781 0 51.90625 -0.855469 51.90625 -1.941406 L 51.90625 -52.449219 C 51.90625 -53.539062 51.050781 -54.390625 49.960938 -54.390625 L 37.839844 -54.390625 C 36.753906 -54.390625 35.898438 -53.539062 35.898438 -52.449219 L 35.898438 -26.730469 C 35.898438 -26.730469 20.746094 -49.417969 19.113281 -51.59375 C 17.484375 -53.769531 16.628906 -54.390625 14.761719 -54.390625 L 5.828125 -54.390625 C 4.816406 -54.390625 3.886719 -53.539062 3.886719 -52.449219 L 3.886719 -1.941406 C 3.886719 -0.855469 4.738281 0 5.828125 0 L 18.027344 0 C 19.039062 0 19.96875 -0.855469 19.96875 -1.941406 L 19.96875 -28.128906 L 37.375 -1.941406 C 38.230469 -0.699219 39.085938 0 41.335938 0 Z M 49.960938 0 "/></g></g></g><g fill="#ffffff" fill-opacity="1"><g transform="translate(254.381319, 194.63093)"><g><path d="M 45.378906 -20.902344 C 43.28125 -15.460938 39.007812 -12.898438 33.023438 -12.898438 C 25.253906 -12.898438 19.660156 -19.191406 19.660156 -27.273438 C 19.660156 -35.355469 25.253906 -41.648438 33.023438 -41.648438 C 38.929688 -41.648438 43.125 -39.164062 45.300781 -33.878906 C 45.457031 -33.414062 46 -32.867188 46.933594 -32.867188 L 59.210938 -32.867188 C 60.375 -32.867188 60.609375 -33.878906 60.375 -34.886719 C 57.265625 -47.242188 46.464844 -55.324219 33.023438 -55.324219 C 17.171875 -55.324219 3.886719 -42.8125 3.886719 -27.273438 C 3.886719 -11.734375 17.171875 0.855469 33.023438 0.855469 C 46.621094 0.855469 57.421875 -7.382812 60.453125 -19.890625 C 60.6875 -20.902344 60.296875 -21.988281 59.210938 -21.988281 L 47.085938 -21.988281 C 46.234375 -21.988281 45.613281 -21.601562 45.378906 -20.902344 Z M 45.378906 -20.902344 "/></g></g></g><g fill="#ffffff" fill-opacity="1"><g transform="translate(318.78992, 194.63093)"><g><path d="M 41.570312 -13.363281 L 19.890625 -13.363281 L 19.890625 -20.511719 L 37.296875 -20.511719 C 38.308594 -20.511719 39.238281 -21.367188 39.238281 -22.457031 L 39.238281 -31.9375 C 39.238281 -33.023438 38.308594 -33.878906 37.296875 -33.878906 L 19.890625 -33.878906 L 19.890625 -41.027344 L 41.335938 -41.027344 C 42.347656 -41.027344 43.28125 -41.882812 43.28125 -42.96875 L 43.28125 -52.449219 C 43.28125 -53.539062 42.347656 -54.390625 41.335938 -54.390625 L 5.828125 -54.390625 C 4.738281 -54.390625 3.886719 -53.539062 3.886719 -52.449219 L 3.886719 -1.941406 C 3.886719 -0.855469 4.738281 0 5.828125 0 L 41.570312 0 C 42.660156 0 43.511719 -0.855469 43.511719 -1.941406 L 43.511719 -11.421875 C 43.511719 -12.511719 42.660156 -13.363281 41.570312 -13.363281 Z M 41.570312 -13.363281 "/></g></g></g><path stroke-linecap="butt" transform="matrix(1.000557, 0, 0, 1.000557, 43.490231, 192.033839)" fill="none" stroke-linejoin="miter" d="M 31.027628 14.856316 L 19.143628 14.856316 C 18.530689 14.856316 17.964598 15.422407 17.964598 16.035347 L 17.964598 46.818967 C 17.964598 47.478755 18.530689 48.001901 19.143628 48.001901 L 26.576984 48.001901 C 27.201636 48.001901 27.767727 47.478755 27.767727 46.818967 L 27.767727 40.521696 L 31.027628 40.521696 C 42.25184 40.521696 46.273036 34.079975 46.273036 27.353256 C 46.273036 20.302499 40.873702 14.856316 31.027628 14.856316 Z M 30.414689 32.369991 L 27.767727 32.369991 L 27.767727 22.99631 L 30.320991 22.99631 C 35.290877 22.99631 36.239567 25.979022 36.239567 27.446954 C 36.239567 28.914885 35.579778 32.369991 30.414689 32.369991 Z M 81.784489 46.440272 C 81.40189 45.874181 77.899936 39.756498 75.635574 35.930506 C 78.754928 33.990181 80.363407 30.578021 80.363407 26.451415 C 80.363407 19.400658 75.772216 14.856316 68.049958 14.856316 L 54.698027 14.856316 C 54.038238 14.856316 53.518996 15.379462 53.518996 16.035347 L 53.518996 46.818967 C 53.518996 47.478755 54.038238 48.001901 54.698027 48.001901 L 62.084534 48.001901 C 62.756035 48.001901 63.275276 47.478755 63.275276 46.818967 L 63.275276 37.863022 L 65.832445 37.863022 C 67.956261 41.747575 70.560278 46.487121 70.755481 46.818967 C 71.07952 47.388962 71.704171 48.001901 72.547451 48.001901 L 80.929497 48.001901 C 82.073391 48.001901 82.210034 47.189854 81.784489 46.440272 Z M 71.598761 26.404566 C 71.598761 27.872498 70.372882 30.01193 67.866467 30.01193 L 63.275276 30.01193 L 63.275276 22.719121 L 67.772769 22.719121 C 70.46658 22.719121 71.598761 24.983483 71.598761 26.404566 Z M 107.020421 14.290226 C 97.357839 14.290226 89.264695 21.953922 89.264695 31.421301 C 89.264695 40.900391 97.357839 48.567992 107.020421 48.567992 C 116.628347 48.567992 124.776148 40.900391 124.776148 31.421301 C 124.776148 21.953922 116.628347 14.290226 107.020421 14.290226 Z M 107.020421 40.185946 C 102.374574 40.185946 98.595431 36.254544 98.595431 31.421301 C 98.595431 26.603674 102.374574 22.719121 107.020421 22.719121 C 111.654557 22.719121 115.402467 26.603674 115.402467 31.421301 C 115.402467 36.254544 111.654557 40.185946 107.020421 40.185946 Z M 159.623909 14.856316 L 140.778946 14.856316 C 140.107445 14.856316 139.588204 15.379462 139.588204 16.035347 L 139.588204 21.81728 C 139.588204 22.477068 140.107445 22.99631 140.778946 22.99631 L 150.999811 22.99631 L 150.999811 31.421301 C 150.999811 36.024203 150.199476 39.709649 145.983076 39.709649 C 144.085696 39.709649 142.477218 38.960067 141.669075 36.117901 C 141.532432 35.594755 141.251339 35.259005 140.630591 35.259005 L 132.920046 35.259005 C 132.201696 35.259005 131.971356 35.735302 132.06115 36.39509 C 133.333878 44.070499 138.54972 48.567992 146.361771 48.567992 C 157.72653 48.567992 160.80294 40.994089 160.80294 31.237809 L 160.80294 16.035347 C 160.80294 15.379462 160.279794 14.856316 159.623909 14.856316 Z M 191.004853 39.850196 L 177.801276 39.850196 L 177.801276 35.504962 L 188.40474 35.504962 C 189.01768 35.504962 189.58377 34.981816 189.58377 34.314219 L 189.58377 28.543998 C 189.58377 27.872498 189.01768 27.353256 188.40474 27.353256 L 177.801276 27.353256 L 177.801276 22.99631 L 190.864307 22.99631 C 191.477246 22.99631 192.043337 22.477068 192.043337 21.81728 L 192.043337 16.035347 C 192.043337 15.379462 191.477246 14.856316 190.864307 14.856316 L 169.224026 14.856316 C 168.564238 14.856316 168.044996 15.379462 168.044996 16.035347 L 168.044996 46.818967 C 168.044996 47.478755 168.564238 48.001901 169.224026 48.001901 L 191.004853 48.001901 C 191.676354 48.001901 192.195596 47.478755 192.195596 46.818967 L 192.195596 41.040938 C 192.195596 40.38115 191.676354 39.850196 191.004853 39.850196 Z M 224.716529 35.259005 C 223.432089 38.577468 220.831976 40.139097 217.193379 40.139097 C 212.453834 40.139097 209.041673 36.301393 209.041673 31.378356 C 209.041673 26.451415 212.453834 22.625423 217.193379 22.625423 C 220.785127 22.625423 223.342295 24.140203 224.66968 27.353256 C 224.763378 27.642157 225.099128 27.966196 225.665219 27.966196 L 233.145424 27.966196 C 233.859869 27.966196 234.000416 27.353256 233.859869 26.740316 C 231.966394 19.217167 225.376317 14.290226 217.193379 14.290226 C 207.526893 14.290226 199.433748 21.907073 199.433748 31.378356 C 199.433748 40.857447 207.526893 48.521143 217.193379 48.521143 C 225.481727 48.521143 232.056187 43.504409 233.906718 35.871945 C 234.047265 35.259005 233.805212 34.603121 233.145424 34.603121 L 225.758917 34.603121 C 225.235771 34.603121 224.857076 34.833461 224.716529 35.259005 Z M 268.707631 14.856316 L 242.37075 14.856316 C 241.714866 14.856316 241.19172 15.422407 241.19172 16.035347 L 241.19172 21.81728 C 241.19172 22.477068 241.714866 22.99631 242.37075 22.99631 L 250.659098 22.99631 L 250.659098 46.818967 C 250.659098 47.478755 251.182244 48.001901 251.838128 48.001901 L 259.22854 48.001901 C 259.896136 48.001901 260.419282 47.478755 260.419282 46.818967 L 260.419282 22.99631 L 268.707631 22.99631 C 269.363515 22.99631 269.886661 22.477068 269.886661 21.81728 L 269.886661 16.035347 C 269.886661 15.422407 269.363515 14.856316 268.707631 14.856316 Z M 268.707631 14.856316 " stroke="#000000" stroke-width="6.39306" stroke-opacity="1" stroke-miterlimit="4"/><g fill="#ffffff" fill-opacity="1"><g transform="translate(59.092674, 240.060598)"><g><path d="M 15.445312 -33.164062 L 3.554688 -33.164062 C 2.9375 -33.164062 2.367188 -32.59375 2.367188 -31.980469 L 2.367188 -1.183594 C 2.367188 -0.519531 2.9375 0 3.554688 0 L 10.992188 0 C 11.605469 0 12.175781 -0.519531 12.175781 -1.183594 L 12.175781 -7.484375 L 15.445312 -7.484375 C 26.671875 -7.484375 30.699219 -13.929688 30.699219 -20.65625 C 30.699219 -27.714844 25.300781 -33.164062 15.445312 -33.164062 Z M 14.828125 -15.632812 L 12.175781 -15.632812 L 12.175781 -25.015625 L 14.734375 -25.015625 C 19.707031 -25.015625 20.65625 -22.03125 20.65625 -20.5625 C 20.65625 -19.09375 19.992188 -15.632812 14.828125 -15.632812 Z M 14.828125 -15.632812 "/></g></g></g><g fill="#ffffff" fill-opacity="1"><g transform="translate(94.668293, 240.060598)"><g><path d="M 30.652344 -1.5625 C 30.273438 -2.132812 26.769531 -8.242188 24.492188 -12.082031 C 27.621094 -14.023438 29.230469 -17.433594 29.230469 -21.554688 C 29.230469 -28.617188 24.636719 -33.164062 16.914062 -33.164062 L 3.554688 -33.164062 C 2.890625 -33.164062 2.367188 -32.640625 2.367188 -31.980469 L 2.367188 -1.183594 C 2.367188 -0.519531 2.890625 0 3.554688 0 L 10.945312 0 C 11.605469 0 12.128906 -0.519531 12.128906 -1.183594 L 12.128906 -10.136719 L 14.6875 -10.136719 C 16.820312 -6.253906 19.425781 -1.515625 19.613281 -1.183594 C 19.945312 -0.617188 20.5625 0 21.414062 0 L 29.800781 0 C 30.9375 0 31.078125 -0.804688 30.652344 -1.5625 Z M 20.464844 -21.605469 C 20.464844 -20.136719 19.234375 -18.003906 16.722656 -18.003906 L 12.128906 -18.003906 L 12.128906 -25.300781 L 16.628906 -25.300781 C 19.328125 -25.300781 20.464844 -23.023438 20.464844 -21.605469 Z M 20.464844 -21.605469 "/></g></g></g><g fill="#ffffff" fill-opacity="1"><g transform="translate(130.433394, 240.060598)"><g><path d="M 20.136719 -33.730469 C 10.46875 -33.730469 2.367188 -26.058594 2.367188 -16.582031 C 2.367188 -7.105469 10.46875 0.570312 20.136719 0.570312 C 29.753906 0.570312 37.902344 -7.105469 37.902344 -16.582031 C 37.902344 -26.058594 29.753906 -33.730469 20.136719 -33.730469 Z M 20.136719 -7.816406 C 15.492188 -7.816406 11.703125 -11.75 11.703125 -16.582031 C 11.703125 -21.414062 15.492188 -25.300781 20.136719 -25.300781 C 24.777344 -25.300781 28.519531 -21.414062 28.519531 -16.582031 C 28.519531 -11.75 24.777344 -7.816406 20.136719 -7.816406 Z M 20.136719 -7.816406 "/></g></g></g><g fill="#ffffff" fill-opacity="1"><g transform="translate(173.209263, 240.060598)"><g><path d="M 29.988281 -33.164062 L 11.132812 -33.164062 C 10.46875 -33.164062 9.949219 -32.640625 9.949219 -31.980469 L 9.949219 -26.199219 C 9.949219 -25.535156 10.46875 -25.015625 11.132812 -25.015625 L 21.367188 -25.015625 L 21.367188 -16.582031 C 21.367188 -11.984375 20.5625 -8.289062 16.34375 -8.289062 C 14.449219 -8.289062 12.839844 -9.050781 12.035156 -11.890625 C 11.890625 -12.414062 11.605469 -12.746094 10.992188 -12.746094 L 3.269531 -12.746094 C 2.558594 -12.746094 2.320312 -12.269531 2.417969 -11.605469 C 3.695312 -3.933594 8.90625 0.570312 16.722656 0.570312 C 28.09375 0.570312 31.171875 -7.011719 31.171875 -16.769531 L 31.171875 -31.980469 C 31.171875 -32.640625 30.652344 -33.164062 29.988281 -33.164062 Z M 29.988281 -33.164062 "/></g></g></g><g fill="#ffffff" fill-opacity="1"><g transform="translate(209.258584, 240.060598)"><g><path d="M 25.347656 -8.148438 L 12.128906 -8.148438 L 12.128906 -12.507812 L 22.742188 -12.507812 C 23.355469 -12.507812 23.925781 -13.027344 23.925781 -13.691406 L 23.925781 -19.472656 C 23.925781 -20.136719 23.355469 -20.65625 22.742188 -20.65625 L 12.128906 -20.65625 L 12.128906 -25.015625 L 25.203125 -25.015625 C 25.820312 -25.015625 26.386719 -25.535156 26.386719 -26.199219 L 26.386719 -31.980469 C 26.386719 -32.640625 25.820312 -33.164062 25.203125 -33.164062 L 3.554688 -33.164062 C 2.890625 -33.164062 2.367188 -32.640625 2.367188 -31.980469 L 2.367188 -1.183594 C 2.367188 -0.519531 2.890625 0 3.554688 0 L 25.347656 0 C 26.007812 0 26.53125 -0.519531 26.53125 -1.183594 L 26.53125 -6.964844 C 26.53125 -7.628906 26.007812 -8.148438 25.347656 -8.148438 Z M 25.347656 -8.148438 "/></g></g></g><g fill="#ffffff" fill-opacity="1"><g transform="translate(240.665625, 240.060598)"><g><path d="M 27.667969 -12.746094 C 26.386719 -9.429688 23.78125 -7.863281 20.136719 -7.863281 C 15.398438 -7.863281 11.984375 -11.703125 11.984375 -16.628906 C 11.984375 -21.554688 15.398438 -25.394531 20.136719 -25.394531 C 23.734375 -25.394531 26.292969 -23.878906 27.621094 -20.65625 C 27.714844 -20.371094 28.046875 -20.039062 28.617188 -20.039062 L 36.101562 -20.039062 C 36.8125 -20.039062 36.953125 -20.65625 36.8125 -21.273438 C 34.917969 -28.804688 28.332031 -33.730469 20.136719 -33.730469 C 10.46875 -33.730469 2.367188 -26.105469 2.367188 -16.628906 C 2.367188 -7.152344 10.46875 0.519531 20.136719 0.519531 C 28.425781 0.519531 35.011719 -4.5 36.859375 -12.128906 C 37 -12.746094 36.765625 -13.40625 36.101562 -13.40625 L 28.710938 -13.40625 C 28.1875 -13.40625 27.808594 -13.171875 27.667969 -12.746094 Z M 27.667969 -12.746094 "/></g></g></g><g fill="#ffffff" fill-opacity="1"><g transform="translate(282.446731, 240.060598)"><g><path d="M 29.894531 -33.164062 L 3.554688 -33.164062 C 2.890625 -33.164062 2.367188 -32.59375 2.367188 -31.980469 L 2.367188 -26.199219 C 2.367188 -25.535156 2.890625 -25.015625 3.554688 -25.015625 L 11.84375 -25.015625 L 11.84375 -1.183594 C 11.84375 -0.519531 12.367188 0 13.027344 0 L 20.417969 0 C 21.082031 0 21.605469 -0.519531 21.605469 -1.183594 L 21.605469 -25.015625 L 29.894531 -25.015625 C 30.558594 -25.015625 31.078125 -25.535156 31.078125 -26.199219 L 31.078125 -31.980469 C 31.078125 -32.59375 30.558594 -33.164062 29.894531 -33.164062 Z M 29.894531 -33.164062 "/></g></g></g><path stroke-linecap="butt" transform="matrix(0.747424, 0, 0, 0.75, 323.812747, 220.547021)" fill="none" stroke-linejoin="miter" d="M -0.000330785 2.999806 L 68.249725 2.999806 " stroke="#000000" stroke-width="6" stroke-opacity="1" stroke-miterlimit="4"/><path stroke-linecap="butt" transform="matrix(0.747424, 0, 0, 0.75, 0.0000045, 220.547021)" fill="none" stroke-linejoin="miter" d="M -0.00000602068 2.999806 L 68.25005 2.999806 " stroke="#000000" stroke-width="6" stroke-opacity="1" stroke-miterlimit="4"/></svg>